# 81 vertices
v 85.5358 -10.5108 8.26476
v 72.8694 -8.91428 16.2508
v 79.7691 -10.3613 5.70446
v 64.3918 -7.26488 17.3967
v 71.8044 -11.5596 5.5001
v 73.2341 -15.6366 12.3016
v 60.9428 -13.1327 13.0616
v 61.5198 -11.3389 6.62037
v 82.5501 -10.1368 4.95909
v 78.188 -7.34451 5.08119
v 81.9764 -12.9623 6.59945
v 64.3039 -6.64473 3.38244
v 79.2227 -7.79786 8.01659
v 83.8953 -10.3408 8.87085
v 61.8583 -9.90647 4.95703
v 74.0411 -8.35503 3.72298
v 73.7108 -13.9796 8.73169
v 73.8507 -15.4005 8.00281
v 82.5574 -10.3025 7.05015
v 63.9166 -7.20175 15.8729
v 60.9485 -12.7385 14.7513
v 81.4207 -12.6635 13.108
v 73.1976 -10.0642 5.18115
v 75.7141 -8.54304 17.6603
v 78.5919 -14.0748 15.6722
v 68.2655 -15.0089 13.0203
v 78.9844 -15.2545 13.0191
v 73.9436 -15.1307 14.3284
v 81.8683 -13.41 14.915
v 77.3732 -8.62668 15.7283
v 71.1232 -12.7236 15.0337
v 71.3995 -11.1466 3.7542
v 78.7306 -13.7823 12.7276
v 81.9446 -12.4044 9.61421
v 78.1912 -12.3106 17.1961
v 61.2261 -11.0355 16.6674
v 79.665 -6.69203 13.7565
v 71.2183 -13.1011 4.65054
v 71.9941 -8.79124 17.7043
v 78.8113 -13.633 8.85341
v 81.7724 -10.7129 15.5298
v 79.2361 -11.5445 4.47512
v 77.8382 -9.82989 3.92034
v 71.7664 -13.0315 6.60418
v 61.9936 -9.91113 3.32292
v 68.5944 -13.5457 12.9555
v 73.5864 -13.9425 5.53296
v 62.6931 -8.02818 4.72328
v 71.2928 -10.917 16.0253
v 61.9916 -8.7978 17.2218
v 68.3872 -14.8008 7.92711
v 68.7307 -14.2315 6.28252
v 85.3493 -9.56183 8.04888
v 79.308 -10.967 17.8399
v 61.2342 -12.8646 6.86443
v 74.5736 -8.52542 5.30318
v 82.1597 -10.3909 16.9935
v 68.7007 -13.3259 8.05748
v 80.1286 -12.449 7.18591
v 61.1775 -11.6733 13.6292
v 70.8435 -14.3053 15.4805
v 77.6473 -8.24089 6.17708
v 85.1087 -9.76878 14.3341
v 61.4611 -12.1484 4.89682
v 81.9378 -11.4537 16.8862
v 78.8254 -7.27156 15.9722
v 61.383 -10.0166 15.5008
v 79.0252 -13.5966 5.85941
v 79.5967 -12.7039 14.7464
v 79.4116 -14.993 8.41783
v 73.6831 -14.1169 12.8913
v 82.9693 -13.5558 12.7993
v 83.3383 -13.2537 9.33155
v 79.9117 -6.45483 7.70692
v 71.0302 -13.292 16.4639
v 65.2977 -6.7398 4.93704
v 83.7755 -10.5688 13.1603
v 85.1365 -10.932 14.2439
v 78.9684 -8.03676 13.7825
v 71.1376 -11.7798 17.3015
v 79.0044 -10.9208 16.2373
# 474 texture coordinates
vt 0.04273 0.62357
vt 0.07117 0.82864
vt 0.03723 0.62408
vt 0.84697 0.53625
vt 0.73442 0.51361
vt 0.75850 0.31940
vt 0.70122 0.90310
vt 0.53260 0.79305
vt 0.87860 0.59900
vt 0.49979 0.00000
vt 0.30270 0.09104
vt 0.29775 0.06837
vt 0.74677 0.50857
vt 0.04265 0.74482
vt 0.44937 0.74554
vt 0.99242 0.66161
vt 1.00000 0.55826
vt 0.98263 0.63907
vt 0.76128 0.97417
vt 0.77131 1.00000
vt 0.98263 0.63907
vt 0.30270 0.09104
vt 0.01185 0.30191
vt 0.00000 0.27270
vt 0.44937 0.74554
vt 0.60063 0.77257
vt 0.74677 0.50857
vt 0.74330 0.85373
vt 0.70122 0.90310
vt 0.77131 1.00000
vt 0.78013 0.34716
vt 0.76552 0.57455
vt 0.87889 0.58095
vt 0.92842 0.55194
vt 0.83267 0.32381
vt 0.85398 0.35202
vt 0.85527 0.29126
vt 0.87860 0.59900
vt 0.74384 0.44568
vt 0.85370 0.45557
vt 0.86272 0.57131
vt 0.98263 0.63907
vt 0.75098 0.07010
vt 0.85527 0.29126
vt 0.73526 0.22218
vt 0.72714 0.91105
vt 0.60063 0.77257
vt 0.66809 0.76346
vt 0.41782 0.27615
vt 0.02107 0.37991
vt 0.31667 0.15304
vt 0.53260 0.79305
vt 0.13667 0.97932
vt 0.68700 0.63242
vt 0.48496 0.73214
vt 0.73442 0.51361
vt 0.66809 0.76346
vt 0.41395 0.31726
vt 0.51805 0.16551
vt 0.75850 0.31940
vt 0.87889 0.58095
vt 0.93329 0.57678
vt 0.78013 0.34716
vt 0.76552 0.57455
vt 0.44165 0.44403
vt 0.49830 0.60690
vt 0.72714 0.91105
vt 0.98263 0.63907
vt 0.86272 0.57131
vt 0.02346 0.46808
vt 0.44011 0.28373
vt 0.31545 0.25167
vt 0.04273 0.62357
vt 0.03723 0.62408
vt 0.02107 0.37991
vt 0.72657 0.21821
vt 0.44011 0.28373
vt 0.78013 0.34716
vt 0.49979 0.00000
vt 0.29775 0.06837
vt 0.52864 0.05510
vt 0.71765 0.17010
vt 0.41017 0.25535
vt 0.70135 0.36224
vt 0.98263 0.63907
vt 1.00000 0.55826
vt 0.98376 0.51238
vt 0.85370 0.45557
vt 0.70135 0.36224
vt 0.74677 0.50857
vt 0.41395 0.31726
vt 0.42085 0.51402
vt 0.01790 0.61208
vt 0.00954 0.43165
vt 0.41395 0.31726
vt 0.01790 0.61208
vt 0.71765 0.17010
vt 0.40258 0.14499
vt 0.41017 0.25535
vt 0.29775 0.06837
vt 0.30270 0.09104
vt 0.00000 0.27270
vt 0.03723 0.62408
vt 0.49830 0.60690
vt 0.44165 0.44403
vt 0.76552 0.57455
vt 0.67924 0.80548
vt 0.87889 0.58095
vt 0.89564 0.22663
vt 0.98376 0.51238
vt 0.91064 0.25953
vt 0.73295 0.82771
vt 0.72714 0.91105
vt 0.66809 0.76346
vt 0.53260 0.79305
vt 0.17708 0.96896
vt 0.13667 0.97932
vt 0.41782 0.27615
vt 0.51411 0.18450
vt 0.73526 0.22218
vt 0.87889 0.58095
vt 0.67924 0.80548
vt 0.74330 0.85373
vt 0.87860 0.59900
vt 0.68700 0.63242
vt 0.74384 0.44568
vt 0.41017 0.25535
vt 0.40258 0.14499
vt 0.01152 0.50111
vt 0.00023 0.31563
vt 0.00000 0.27270
vt 0.00954 0.43165
vt 0.74384 0.44568
vt 0.41782 0.27615
vt 0.73526 0.22218
vt 0.01152 0.50111
vt 0.01790 0.61208
vt 0.04265 0.74482
vt 0.41395 0.31726
vt 0.75850 0.31940
vt 0.73442 0.51361
vt 0.01185 0.30191
vt 0.31667 0.15304
vt 0.02107 0.37991
vt 0.73361 0.04162
vt 0.71765 0.17010
vt 0.85087 0.24250
vt 0.44165 0.44403
vt 0.44011 0.28373
vt 0.03723 0.62408
vt 0.87860 0.59900
vt 0.99242 0.66161
vt 0.77131 1.00000
vt 0.71765 0.17010
vt 0.70135 0.36224
vt 0.85370 0.45557
vt 0.66809 0.76346
vt 0.84697 0.53625
vt 0.73295 0.82771
vt 0.85398 0.35202
vt 0.72329 0.20196
vt 0.72657 0.21821
vt 0.67924 0.80548
vt 0.76552 0.57455
vt 0.55425 0.77449
vt 0.31113 0.22772
vt 0.00954 0.43165
vt 0.31545 0.25167
vt 0.55425 0.77449
vt 0.17708 0.96896
vt 0.53260 0.79305
vt 0.51917 0.18047
vt 0.31113 0.22772
vt 0.31545 0.25167
vt 0.42519 0.48901
vt 0.41782 0.27615
vt 0.74384 0.44568
vt 0.75850 0.31940
vt 0.72329 0.20196
vt 0.83267 0.32381
vt 0.70135 0.36224
vt 0.41017 0.25535
vt 0.41454 0.42005
vt 0.00023 0.31563
vt 0.40258 0.14499
vt 0.29775 0.06837
vt 0.76128 0.97417
vt 0.74330 0.85373
vt 0.77131 1.00000
vt 0.73361 0.04162
vt 0.89564 0.22663
vt 0.75098 0.07010
vt 0.42085 0.51402
vt 0.41395 0.31726
vt 0.73442 0.51361
vt 0.31667 0.15304
vt 0.52486 0.02571
vt 0.51411 0.18450
vt 0.53260 0.79305
vt 0.67924 0.80548
vt 0.55425 0.77449
vt 0.44937 0.74554
vt 0.04265 0.74482
vt 0.14024 0.91178
vt 0.76552 0.57455
vt 0.49830 0.60690
vt 0.55425 0.77449
vt 0.44011 0.28373
vt 0.02346 0.46808
vt 0.03723 0.62408
vt 0.87860 0.59900
vt 1.00000 0.55826
vt 0.99242 0.66161
vt 0.51805 0.16551
vt 0.41395 0.31726
vt 0.31113 0.22772
vt 0.01790 0.61208
vt 0.42085 0.51402
vt 0.12092 0.91865
vt 0.55425 0.77449
vt 0.49830 0.60690
vt 0.17708 0.96896
vt 0.01790 0.61208
vt 0.00023 0.31563
vt 0.00954 0.43165
vt 0.52486 0.02571
vt 0.30270 0.09104
vt 0.49979 0.00000
vt 0.31667 0.15304
vt 0.01185 0.30191
vt 0.30270 0.09104
vt 0.49979 0.00000
vt 0.52864 0.05510
vt 0.73361 0.04162
vt 0.12092 0.91865
vt 0.04265 0.74482
vt 0.01790 0.61208
vt 0.51917 0.18047
vt 0.31545 0.25167
vt 0.44011 0.28373
vt 0.83267 0.32381
vt 0.72329 0.20196
vt 0.85398 0.35202
vt 0.75850 0.31940
vt 0.51805 0.16551
vt 0.72329 0.20196
vt 0.02346 0.46808
vt 0.02107 0.37991
vt 0.03723 0.62408
vt 0.85527 0.29126
vt 0.91064 0.25953
vt 1.00000 0.55826
vt 0.42519 0.48901
vt 0.04273 0.62357
vt 0.41782 0.27615
vt 0.40258 0.14499
vt 0.71765 0.17010
vt 0.52864 0.05510
vt 0.01152 0.50111
vt 0.40258 0.14499
vt 0.00023 0.31563
vt 0.13667 0.97932
vt 0.07117 0.82864
vt 0.04273 0.62357
vt 0.74677 0.50857
vt 0.70135 0.36224
vt 0.41454 0.42005
vt 0.14024 0.91178
vt 0.48496 0.73214
vt 0.44937 0.74554
vt 0.85527 0.29126
vt 0.74384 0.44568
vt 0.73526 0.22218
vt 0.92842 0.55194
vt 0.73295 0.82771
vt 0.84697 0.53625
vt 0.48496 0.73214
vt 0.66809 0.76346
vt 0.60063 0.77257
vt 0.48496 0.73214
vt 0.60063 0.77257
vt 0.44937 0.74554
vt 0.73295 0.82771
vt 0.93329 0.57678
vt 0.74330 0.85373
vt 0.66809 0.76346
vt 0.73442 0.51361
vt 0.84697 0.53625
vt 0.89564 0.22663
vt 0.73361 0.04162
vt 0.85087 0.24250
vt 0.68700 0.63242
vt 0.42519 0.48901
vt 0.74384 0.44568
vt 0.93329 0.57678
vt 0.92842 0.55194
vt 0.85398 0.35202
vt 0.51411 0.18450
vt 0.41782 0.27615
vt 0.31667 0.15304
vt 0.77131 1.00000
vt 0.99242 0.66161
vt 0.98263 0.63907
vt 0.01152 0.50111
vt 0.00023 0.31563
vt 0.01790 0.61208
vt 0.73295 0.82771
vt 0.74330 0.85373
vt 0.76128 0.97417
vt 0.41395 0.31726
vt 0.00954 0.43165
vt 0.31113 0.22772
vt 0.41454 0.42005
vt 0.01152 0.50111
vt 0.04265 0.74482
vt 0.17708 0.96896
vt 0.49830 0.60690
vt 0.07117 0.82864
vt 0.72714 0.91105
vt 0.86272 0.57131
vt 0.60063 0.77257
vt 0.72657 0.21821
vt 0.51805 0.16551
vt 0.51917 0.18047
vt 0.86272 0.57131
vt 0.74677 0.50857
vt 0.60063 0.77257
vt 0.74330 0.85373
vt 0.93329 0.57678
vt 0.87889 0.58095
vt 0.72329 0.20196
vt 0.51805 0.16551
vt 0.72657 0.21821
vt 0.13667 0.97932
vt 0.04273 0.62357
vt 0.68700 0.63242
vt 0.73526 0.22218
vt 0.51411 0.18450
vt 0.52486 0.02571
vt 0.48496 0.73214
vt 0.12092 0.91865
vt 0.42085 0.51402
vt 0.91064 0.25953
vt 0.85527 0.29126
vt 0.75098 0.07010
vt 0.04273 0.62357
vt 0.02107 0.37991
vt 0.41782 0.27615
vt 0.00023 0.31563
vt 0.29775 0.06837
vt 0.00000 0.27270
vt 0.73526 0.22218
vt 0.52486 0.02571
vt 0.75098 0.07010
vt 0.85370 0.45557
vt 0.98376 0.51238
vt 0.85087 0.24250
vt 0.42085 0.51402
vt 0.73442 0.51361
vt 0.48496 0.73214
vt 0.29775 0.06837
vt 0.40258 0.14499
vt 0.52864 0.05510
vt 0.74677 0.50857
vt 0.86272 0.57131
vt 0.85370 0.45557
vt 0.76128 0.97417
vt 0.72714 0.91105
vt 0.73295 0.82771
vt 0.52486 0.02571
vt 0.31667 0.15304
vt 0.30270 0.09104
vt 0.78013 0.34716
vt 0.93329 0.57678
vt 0.85398 0.35202
vt 0.78013 0.34716
vt 0.85398 0.35202
vt 0.72657 0.21821
vt 0.70122 0.90310
vt 0.87860 0.59900
vt 0.77131 1.00000
vt 0.75098 0.07010
vt 0.89564 0.22663
vt 0.91064 0.25953
vt 0.07117 0.82864
vt 0.49830 0.60690
vt 0.03723 0.62408
vt 0.78013 0.34716
vt 0.44165 0.44403
vt 0.76552 0.57455
vt 0.72714 0.91105
vt 0.76128 0.97417
vt 0.98263 0.63907
vt 0.85370 0.45557
vt 0.98263 0.63907
vt 0.98376 0.51238
vt 0.41454 0.42005
vt 0.04265 0.74482
vt 0.74677 0.50857
vt 0.70122 0.90310
vt 0.67924 0.80548
vt 0.53260 0.79305
vt 0.01185 0.30191
vt 0.00954 0.43165
vt 0.00000 0.27270
vt 0.91064 0.25953
vt 0.98376 0.51238
vt 1.00000 0.55826
vt 0.51917 0.18047
vt 0.44011 0.28373
vt 0.72657 0.21821
vt 0.98376 0.51238
vt 0.89564 0.22663
vt 0.85087 0.24250
vt 0.73361 0.04162
vt 0.52486 0.02571
vt 0.49979 0.00000
vt 0.07117 0.82864
vt 0.13667 0.97932
vt 0.17708 0.96896
vt 0.83267 0.32381
vt 0.92842 0.55194
vt 0.84697 0.53625
vt 0.51805 0.16551
vt 0.31113 0.22772
vt 0.51917 0.18047
vt 0.68700 0.63242
vt 0.87860 0.59900
vt 0.53260 0.79305
vt 0.75098 0.07010
vt 0.52486 0.02571
vt 0.73361 0.04162
vt 0.87860 0.59900
vt 0.85527 0.29126
vt 1.00000 0.55826
vt 0.02346 0.46808
vt 0.00954 0.43165
vt 0.01185 0.30191
vt 0.41454 0.42005
vt 0.41017 0.25535
vt 0.01152 0.50111
vt 0.01185 0.30191
vt 0.02107 0.37991
vt 0.02346 0.46808
vt 0.52864 0.05510
vt 0.71765 0.17010
vt 0.73361 0.04162
vt 0.84697 0.53625
vt 0.75850 0.31940
vt 0.83267 0.32381
vt 0.14024 0.91178
vt 0.04265 0.74482
vt 0.12092 0.91865
vt 0.85087 0.24250
vt 0.71765 0.17010
vt 0.85370 0.45557
vt 0.78013 0.34716
vt 0.44011 0.28373
vt 0.44165 0.44403
vt 0.31545 0.25167
vt 0.00954 0.43165
vt 0.02346 0.46808
vt 0.68700 0.63242
vt 0.04273 0.62357
vt 0.42519 0.48901
vt 0.92842 0.55194
vt 0.93329 0.57678
vt 0.73295 0.82771
vt 0.67924 0.80548
vt 0.70122 0.90310
vt 0.74330 0.85373
vt 0.12092 0.91865
vt 0.48496 0.73214
vt 0.14024 0.91178
# 81 vertex normals
vn -0.532674 0.0143971 -0.846198
vn -0.637102 0.539187 0.550798
vn -0.560438 0.500269 0.66003
vn -0.543038 0.0208178 -0.83945
vn -0.0953782 0.21134 -0.972748
vn -0.200448 0.783139 -0.588654
vn -0.325931 0.94151 -0.0855984
vn 0.0651075 0.900088 -0.430817
vn 0.474053 0.160651 -0.865716
vn -0.0434532 -0.996661 0.0691329
vn -0.174327 -0.972551 -0.154125
vn -0.166877 -0.964311 0.205562
vn 0.0887703 -0.138164 0.986423
vn -0.493827 0.264027 0.828507
vn 0.0109666 0.551295 0.834239
vn 0.784266 0.525971 -0.329061
vn 0.90769 -0.296803 -0.29666
vn 0.776069 0.482283 0.40635
vn -0.493648 0.86817 0.0509105
vn 0.0436596 0.987491 -0.151508
vn -0.827629 -0.522183 -0.205806
vn -0.730682 -0.682604 0.0124875
vn -0.0606329 0.873596 0.48286
vn -0.95041 -0.0574741 0.305644
vn -0.339255 0.713728 0.612779
vn -0.225698 0.0683825 0.971794
vn -0.596168 -0.240159 0.766099
vn -0.937248 0.147201 -0.316068
vn -0.504029 0.818191 -0.27662
vn -0.538168 0.833664 0.124018
vn 0.458964 -0.671415 -0.581855
vn 0.184508 -0.418973 -0.889055
vn 0.436416 -0.431949 0.789279
vn 0.40503 0.255774 0.877799
vn 0.297525 -0.923967 -0.24034
vn 0.166746 -0.727837 -0.665169
vn -0.236761 0.950268 0.202325
vn -0.486819 0.254848 -0.8355
vn 0.00176793 -0.594679 -0.803961
vn -0.782114 -0.401515 -0.476533
vn -0.110021 -0.871009 -0.478789
vn -0.300384 0.705792 -0.641582
vn 0.102432 -0.0161641 -0.994609
vn 0.0463108 0.76969 -0.636736
vn 0.0722041 0.713809 -0.696608
vn -0.00399463 0.971356 -0.237595
vn -0.939615 -0.136756 0.313723
vn -0.0464616 0.458664 0.887394
vn -0.0469216 0.0871736 0.995087
vn -0.595243 0.760216 0.260304
vn 0.0197116 0.802202 0.596727
vn 0.172688 0.964399 0.200286
vn -0.186655 0.953374 0.237145
vn -0.0117302 -0.923964 0.382299
vn 0.128454 -0.761977 0.634736
vn -0.0485874 -0.60247 0.796662
vn 0.0741735 -0.549455 0.832224
vn 0.809943 -0.481466 0.334937
vn 0.052318 0.24295 -0.968627
vn -0.666767 0.516629 -0.537138
vn -0.578797 0.781895 -0.23159
vn -0.0967196 -0.797362 0.595701
vn -0.534255 0.218563 0.816579
vn 0.530004 -0.838804 0.124515
vn 0.630011 -0.762825 -0.145549
vn -0.87402 -0.347031 -0.340085
vn -0.0501896 0.75837 0.649889
vn 0.0242263 -0.785789 -0.61802
vn -0.540597 -0.368801 0.756135
vn -0.826517 -0.481186 0.292111
vn 0.195436 -0.963959 0.18052
vn 0.438256 -0.765704 0.470774
vn -0.251405 0.956842 -0.14577
vn -0.0833936 0.437971 0.895113
vn 0.153912 0.971714 -0.179118
vn 0.0348302 0.981518 0.188176
vn 0.0412513 -0.290196 -0.956078
vn -0.0533347 -0.349793 0.935307
vn 0.014846 -0.955058 -0.296045
vn -0.0670985 0.912068 0.404513
vn -0.274177 0.759681 -0.58967
# 158 facets
f 15/3/3 48/2/2 45/1/1
f 69/6/6 81/5/5 41/4/4
f 9/9/9 16/8/8 10/7/7
f 26/12/12 51/11/11 6/10/10
f 39/15/15 50/14/14 54/13/13
f 63/18/18 1/17/17 53/16/16
f 63/21/18 74/20/20 37/19/19
f 7/24/22 55/23/21 51/22/11
f 54/27/13 24/26/23 39/25/15
f 74/30/20 10/29/7 13/28/24
f 19/33/27 3/32/26 59/31/25
f 34/36/30 22/35/29 77/34/28
f 42/39/32 9/38/9 11/37/31
f 63/42/18 57/41/34 65/40/33
f 68/45/36 11/44/31 70/43/35
f 30/48/38 24/47/23 66/46/37
f 52/51/41 64/50/40 38/49/39
f 43/54/43 12/53/42 16/52/8
f 30/57/38 81/56/5 2/55/44
f 69/60/6 71/59/46 31/58/45
f 59/63/25 14/62/47 19/61/27
f 23/66/49 5/65/48 3/64/26
f 57/69/34 63/68/18 66/67/37
f 58/72/52 44/71/51 8/70/50
f 64/75/40 15/74/3 45/73/1
f 59/78/25 44/77/51 40/76/53
f 28/81/54 26/80/12 6/79/10
f 35/84/57 75/83/56 25/82/55
f 78/87/58 1/86/17 63/85/18
f 54/90/13 35/89/57 65/88/33
f 67/93/60 49/92/59 31/91/45
f 67/96/60 31/95/45 60/94/61
f 75/99/56 61/98/62 25/97/55
f 7/102/22 51/101/11 26/100/12
f 5/105/48 23/104/49 15/103/3
f 19/108/27 62/107/63 3/106/26
f 73/111/65 78/110/58 72/109/64
f 30/114/38 66/113/37 79/112/66
f 12/117/42 76/116/67 16/115/8
f 68/120/36 47/119/68 38/118/39
f 13/123/24 62/122/63 19/121/27
f 42/126/32 43/125/43 9/124/9
f 36/129/69 61/128/62 75/127/56
f 60/132/61 7/131/22 21/130/70
f 68/135/36 38/134/39 42/133/32
f 50/138/14 67/137/60 36/136/69
f 81/141/5 69/140/6 31/139/45
f 64/144/40 52/143/41 55/142/21
f 29/147/72 25/146/55 27/145/71
f 15/150/3 44/149/51 5/148/48
f 74/153/20 53/152/16 9/151/9
f 65/156/33 35/155/57 25/154/55
f 79/159/66 41/158/4 30/157/38
f 40/162/53 33/161/73 34/160/30
f 56/165/74 3/164/26 62/163/63
f 58/168/52 60/167/61 46/166/75
f 16/171/8 76/170/67 56/169/74
f 58/174/52 46/173/75 17/172/76
f 42/177/32 38/176/39 32/175/77
f 22/180/29 33/179/73 69/178/6
f 80/183/78 75/182/56 35/181/57
f 26/186/12 61/185/62 21/184/70
f 74/189/20 13/188/24 37/187/19
f 70/192/35 72/191/64 27/190/71
f 81/195/5 31/194/45 49/193/59
f 47/198/68 18/197/79 52/196/41
f 56/201/74 62/200/63 16/199/8
f 4/204/80 50/203/14 39/202/15
f 56/207/74 23/206/49 3/205/26
f 15/210/3 8/209/50 44/208/51
f 53/213/16 1/212/17 9/211/9
f 46/216/75 31/215/45 71/214/46
f 20/219/81 49/218/59 67/217/60
f 76/222/67 23/221/49 56/220/74
f 60/225/61 21/224/70 67/223/60
f 6/228/10 51/227/11 18/226/79
f 51/231/11 55/230/21 52/229/41
f 27/234/71 28/233/54 6/232/10
f 67/237/60 50/236/14 20/235/81
f 44/240/51 58/239/52 17/238/76
f 34/243/30 33/242/73 22/241/29
f 33/246/73 71/245/46 69/244/6
f 15/249/3 64/248/40 8/247/50
f 1/252/17 73/251/65 11/250/31
f 38/255/39 45/254/1 32/253/77
f 28/258/54 25/257/55 61/256/62
f 21/261/70 61/260/62 36/259/69
f 45/264/1 48/263/2 12/262/42
f 80/267/78 35/266/57 54/265/13
f 39/270/15 2/269/44 4/268/80
f 68/273/36 42/272/32 11/271/31
f 41/276/4 79/275/66 77/274/28
f 24/279/23 30/278/38 2/277/44
f 39/282/15 24/281/23 2/280/44
f 13/285/24 14/284/47 79/283/66
f 41/288/4 81/287/5 30/286/38
f 29/291/72 27/290/71 72/289/64
f 42/294/32 32/293/77 43/292/43
f 34/297/30 77/296/28 14/295/47
f 52/300/41 38/299/39 47/298/68
f 63/303/18 53/302/16 74/301/20
f 67/306/60 21/305/70 36/304/69
f 37/309/19 13/308/24 79/307/66
f 46/312/75 60/311/61 31/310/45
f 50/315/14 36/314/69 80/313/78
f 48/318/2 23/317/49 76/316/67
f 24/321/23 57/320/34 66/319/37
f 17/324/76 71/323/46 40/322/53
f 24/327/23 54/326/13 57/325/34
f 19/330/27 14/329/47 13/328/24
f 40/333/53 71/332/46 33/331/73
f 43/336/43 45/335/1 12/334/42
f 18/339/79 47/338/68 68/337/36
f 49/342/59 20/341/81 2/340/44
f 70/345/35 11/344/31 73/343/65
f 38/348/39 64/347/40 45/346/1
f 7/351/22 26/350/12 21/349/70
f 70/354/35 18/353/79 68/352/36
f 29/357/72 78/356/58 65/355/33
f 2/360/44 81/359/5 49/358/59
f 28/363/54 61/362/62 26/361/12
f 65/366/33 57/365/34 54/364/13
f 79/369/66 66/368/37 37/367/19
f 51/372/11 52/371/41 18/370/79
f 34/375/30 14/374/47 59/373/25
f 40/378/53 34/377/30 59/376/25
f 74/381/20 9/380/9 10/379/7
f 73/384/65 72/383/64 70/382/35
f 15/387/3 23/386/49 48/385/2
f 3/390/26 5/389/48 59/388/25
f 63/393/18 37/392/19 66/391/37
f 78/396/58 63/395/18 65/394/33
f 54/399/13 50/398/14 80/397/78
f 16/402/8 62/401/63 10/400/7
f 7/405/22 60/404/61 55/403/21
f 1/408/17 78/407/58 73/406/65
f 40/411/53 44/410/51 17/409/76
f 29/414/72 72/413/64 78/412/58
f 6/417/10 18/416/79 27/415/71
f 76/420/67 12/419/42 48/418/2
f 41/423/4 77/422/28 22/421/29
f 17/426/76 46/425/75 71/424/46
f 16/429/8 9/428/9 43/427/43
f 27/432/71 18/431/79 70/430/35
f 1/435/17 11/434/31 9/433/9
f 55/438/21 60/437/61 8/436/50
f 36/441/69 75/440/56 80/439/78
f 8/444/50 64/443/40 55/442/21
f 27/447/71 25/446/55 28/445/54
f 22/450/29 69/449/6 41/448/4
f 20/453/81 50/452/14 4/451/80
f 65/456/33 25/455/55 29/454/72
f 5/459/48 44/458/51 59/457/25
f 8/462/50 60/461/61 58/460/52
f 32/465/77 45/464/1 43/463/43
f 79/468/66 14/467/47 77/466/28
f 13/471/24 10/470/7 62/469/63
f 4/474/80 2/473/44 20/472/81

