<svg width="205" height="185" viewBox="0 0 205 185" fill="none" xmlns="http://www.w3.org/2000/svg">
<path d="M36.032 158.968L33.474 156.307L31.022 153.548L28.68 150.695L26.452 147.752L24.342 144.724L22.352 141.615L20.485 138.43L18.745 135.175L17.135 131.854L15.655 128.472L14.31 125.035L13.101 121.548L12.029 118.015L11.097 114.444L10.306 110.838L9.657 107.205L9.152 103.549L8.79 99.875L8.572 96.19L8.5 92.5L8.572 88.81L8.79 85.125L9.152 81.451L9.657 77.795L10.306 74.162L11.097 70.556L12.029 66.985L13.101 63.452L14.31 59.965L15.655 56.528L17.135 53.146L18.745 49.825L20.485 46.57L22.352 43.385L24.342 40.276L26.452 37.248L28.68 34.305L31.022 31.452L33.474 28.693L36.032 26.032" stroke="#073D64" stroke-width="16" stroke-linecap="round" stroke-linejoin="round"/>
<path d="M36.032 158.968L33.474 156.307L31.022 153.548L28.68 150.695L26.452 147.752L24.342 144.724L22.352 141.615L20.485 138.43L18.745 135.175L17.135 131.854L15.655 128.472L14.31 125.035L13.101 121.548L12.029 118.015L11.097 114.444L10.306 110.838L9.657 107.205L9.152 103.549L8.79 99.875L8.572 96.19L8.5 92.5L8.572 88.81L8.79 85.125L9.152 81.451L9.657 77.795L10.306 74.162L11.097 70.556L12.029 66.985L13.101 63.452L14.31 59.965L15.655 56.528L17.135 53.146L18.745 49.825L20.485 46.57L22.352 43.385L24.342 40.276L26.452 37.248L28.68 34.305L31.022 31.452L33.474 28.693L36.032 26.032" stroke="#1AC0C8" stroke-width="13.5" stroke-linecap="round" stroke-linejoin="round"/>
<path d="M36.032 158.968L33.474 156.307L31.022 153.548L28.68 150.695L26.452 147.752L24.342 144.724L22.352 141.615L20.485 138.43L18.745 135.175L17.135 131.854L15.655 128.472L14.31 125.035L13.101 121.548L12.029 118.015L11.097 114.444L10.306 110.838L9.657 107.205L9.152 103.549L8.79 99.875L8.572 96.19L8.5 92.5L8.572 88.81L8.79 85.125L9.152 81.451L9.657 77.795L10.306 74.162L11.097 70.556L12.029 66.985L13.101 63.452L14.31 59.965L15.655 56.528L17.135 53.146L18.745 49.825L20.485 46.57L22.352 43.385L24.342 40.276L26.452 37.248L28.68 34.305L31.022 31.452L33.474 28.693L36.032 26.032" stroke="url(#paint0_linear_451_2)" stroke-width="11.5" stroke-linecap="round" stroke-linejoin="round"/>
<path d="M36.032 158.968L33.474 156.307L31.022 153.548L28.68 150.695L26.452 147.752L24.342 144.724L22.352 141.615L20.485 138.43L18.745 135.175L17.135 131.854L15.655 128.472L14.31 125.035L13.101 121.548L12.029 118.015L11.097 114.444L10.306 110.838L9.657 107.205L9.152 103.549L8.79 99.875L8.572 96.19L8.5 92.5L8.572 88.81L8.79 85.125L9.152 81.451L9.657 77.795L10.306 74.162L11.097 70.556L12.029 66.985L13.101 63.452L14.31 59.965L15.655 56.528L17.135 53.146L18.745 49.825L20.485 46.57L22.352 43.385L24.342 40.276L26.452 37.248L28.68 34.305L31.022 31.452L33.474 28.693L36.032 26.032" stroke="#075779" stroke-width="8.2" stroke-linecap="round" stroke-linejoin="round"/>
<path d="M36.032 158.968L33.474 156.307L31.022 153.548L28.68 150.695L26.452 147.752L24.342 144.724L22.352 141.615L20.485 138.43L18.745 135.175L17.135 131.854L15.655 128.472L14.31 125.035L13.101 121.548L12.029 118.015L11.097 114.444L10.306 110.838L9.657 107.205L9.152 103.549L8.79 99.875L8.572 96.19L8.5 92.5L8.572 88.81L8.79 85.125L9.152 81.451L9.657 77.795L10.306 74.162L11.097 70.556L12.029 66.985L13.101 63.452L14.31 59.965L15.655 56.528L17.135 53.146L18.745 49.825L20.485 46.57L22.352 43.385L24.342 40.276L26.452 37.248L28.68 34.305L31.022 31.452L33.474 28.693L36.032 26.032" stroke="#0C1F4C" stroke-width="6.4" stroke-linecap="round" stroke-linejoin="round"/>
<defs>
<linearGradient id="paint0_linear_451_2" x1="8.5" y1="92.5" x2="36.032" y2="92.5" gradientUnits="userSpaceOnUse">
<stop stop-color="#B2FFFF"/>
<stop offset="0.18" stop-color="#27E9F2"/>
<stop offset="0.5" stop-color="#03A9C1"/>
<stop offset="0.85" stop-color="#14CCD5"/>
<stop offset="1" stop-color="#008499"/>
</linearGradient>
</defs>
</svg>
