# 80 vertices
v 73.1403 -17.5429 25.0514
v 61.0912 -19.0384 35.8001
v 63.962 -19.0196 27.7812
v 68.6027 -14.8503 36.4066
v 71.4457 -14.2166 34.4502
v 61.5104 -13.5892 37.5161
v 64.416 -17.697 25.8501
v 71.8355 -20.8 28.4612
v 74.1277 -18.7024 33.1685
v 62.2712 -12.3059 23.5826
v 77.9412 -16.142 29.5144
v 66.7443 -20.1438 26.3981
v 61.557 -19.3206 25.7011
v 65.3471 -18.4956 34.9649
v 62.7298 -12.4599 25.1271
v 57.5966 -18.7933 35.0347
v 64.4365 -16.365 23.6411
v 66.3652 -19.792 32.8462
v 77.977 -17.122 28.776
v 70.8099 -20.1927 35.6695
v 60.3938 -13.6004 24.7734
v 67.6877 -13.3832 24.0002
v 72.8888 -12.404 28.1888
v 59.0601 -14.833 37.1821
v 77.3792 -17.6613 34.6867
v 76.8823 -16.2256 26.706
v 76.3496 -16.818 29.5555
v 64.5763 -18.4203 24.5084
v 73.518 -19.3411 36.0019
v 75.6023 -19.5262 29.6039
v 70.9213 -15.6427 25.6824
v 75.7638 -17.2307 34.2725
v 73.9934 -16.0373 24.9063
v 71.1784 -21.2539 32.994
v 64.6007 -18.5045 36.8025
v 75.8224 -19.3707 33.1524
v 59.0142 -16.887 23.6174
v 66.3489 -14.631 37.9067
v 74.6215 -19.1689 27.3289
v 57.5557 -19.413 32.6261
v 69.0705 -13.8837 25.6785
v 58.0382 -17.961 33.5622
v 70.8291 -18.3886 35.4547
v 58.1377 -17.0531 34.8666
v 60.0346 -13.9303 35.8264
v 70.5729 -15.3132 24.1484
v 62.3953 -20.2335 27.3538
v 58.6906 -17.4107 26.2774
v 58.2104 -18.7708 26.1303
v 71.309 -12.9256 25.5238
v 59.8839 -14.4462 23.147
v 58.2949 -16.4695 35.3771
v 77.4091 -16.488 34.09
v 66.9736 -21.0188 28.8447
v 66.456 -21.3037 32.4201
v 72.0203 -13.6561 28.0968
v 62.6255 -20.8155 32.3179
v 59.4306 -15.3275 24.6226
v 72.5219 -17.6337 26.7636
v 62.2014 -20.4082 34.0003
v 71.0893 -19.7137 33.2811
v 71.7808 -19.3009 26.0396
v 75.7553 -16.8286 36.4549
v 61.8059 -19.1216 32.122
v 72.1991 -13.0678 35.1539
v 62.4297 -13.6494 36.0877
v 65.6655 -20.2993 35.1762
v 70.5626 -18.4948 37.278
v 69.237 -16.5822 37.9802
v 58.232 -16.5998 36.8456
v 73.6586 -17.4741 37.6198
v 73.6366 -17.3307 35.8711
v 69.7652 -14.1356 37.3843
v 74.8943 -16.4872 27.1355
v 74.5221 -18.3157 29.3366
v 70.0462 -16.7026 36.4934
v 67.646 -19.3475 28.0374
v 71.615 -19.3108 28.5399
v 66.5713 -16.8726 25.562
v 74.0356 -20.3687 33.5888
# 468 texture coordinates
vt 0.49615 0.88027
vt 0.25337 0.98288
vt 0.23091 1.00000
vt 0.80700 0.10392
vt 0.78165 0.21812
vt 0.97072 0.40481
vt 0.56386 0.82464
vt 0.65449 0.62915
vt 0.25337 0.98288
vt 0.12139 0.81947
vt 0.03620 0.53727
vt 0.23867 0.85069
vt 0.49615 0.88027
vt 0.80493 0.58529
vt 0.67348 0.93112
vt 0.56386 0.82464
vt 0.70831 0.84994
vt 0.84905 0.53529
vt 0.03620 0.53727
vt 0.61164 0.51136
vt 0.23867 0.85069
vt 0.24826 0.05426
vt 0.22749 0.09952
vt 0.43583 0.00000
vt 0.24826 0.05426
vt 0.23699 0.11895
vt 0.00000 0.21013
vt 0.65449 0.62915
vt 0.84905 0.53529
vt 0.73287 0.40788
vt 0.89449 0.21484
vt 0.80700 0.10392
vt 0.97072 0.40481
vt 0.00000 0.21013
vt 0.02363 0.37150
vt 0.00200 0.27901
vt 0.38153 0.31209
vt 0.66272 0.17671
vt 0.64998 0.32398
vt 0.65449 0.62915
vt 0.09181 0.66419
vt 0.13898 0.85613
vt 0.59788 0.79665
vt 0.78853 0.42562
vt 0.43059 0.74160
vt 0.66708 0.00553
vt 0.43583 0.00000
vt 0.39713 0.11163
vt 0.34498 0.31109
vt 0.39713 0.11163
vt 0.17313 0.25176
vt 0.31371 0.25385
vt 0.33594 0.40085
vt 0.49410 0.21740
vt 0.68017 0.78765
vt 0.70831 0.84994
vt 0.71707 0.91531
vt 0.03620 0.53727
vt 0.38153 0.31209
vt 0.61164 0.51136
vt 0.78853 0.42562
vt 0.63693 0.31218
vt 0.57202 0.52474
vt 0.07367 0.71915
vt 0.03312 0.52278
vt 0.03620 0.53727
vt 0.17313 0.25176
vt 0.22749 0.09952
vt 0.00200 0.27901
vt 0.49615 0.88027
vt 0.63743 0.66577
vt 0.80493 0.58529
vt 0.09181 0.66419
vt 0.33594 0.40085
vt 0.05557 0.43266
vt 0.78746 0.44156
vt 0.66272 0.17671
vt 0.81151 0.28910
vt 0.64904 0.12347
vt 0.63693 0.31218
vt 0.78165 0.21812
vt 0.49410 0.21740
vt 0.43139 0.16801
vt 0.31371 0.25385
vt 0.09181 0.66419
vt 0.65449 0.62915
vt 0.44148 0.49247
vt 0.66708 0.00553
vt 0.64904 0.12347
vt 0.80700 0.10392
vt 0.23699 0.11895
vt 0.19594 0.22040
vt 0.03206 0.28151
vt 0.00200 0.27901
vt 0.02850 0.47241
vt 0.03312 0.52278
vt 0.43583 0.00000
vt 0.23699 0.11895
vt 0.24826 0.05426
vt 0.94639 0.56437
vt 0.80493 0.58529
vt 0.76315 0.41796
vt 0.64998 0.32398
vt 0.66272 0.17671
vt 0.78746 0.44156
vt 0.80700 0.10392
vt 0.64904 0.12347
vt 0.78165 0.21812
vt 0.00200 0.27901
vt 0.22749 0.09952
vt 0.00000 0.21013
vt 0.03206 0.28151
vt 0.02363 0.37150
vt 0.00000 0.21013
vt 0.39713 0.11163
vt 0.43583 0.00000
vt 0.22749 0.09952
vt 0.11401 0.76212
vt 0.63743 0.66577
vt 0.23091 1.00000
vt 0.67348 0.93112
vt 0.94639 0.56437
vt 0.75084 0.98909
vt 1.00000 0.46474
vt 0.99825 0.57366
vt 0.94639 0.56437
vt 0.83568 0.23726
vt 0.88371 0.19755
vt 1.00000 0.46474
vt 0.78165 0.21812
vt 0.63693 0.31218
vt 0.78853 0.42562
vt 0.44995 0.12891
vt 0.23699 0.11895
vt 0.46118 0.03166
vt 0.19366 0.85737
vt 0.23867 0.85069
vt 0.43059 0.74160
vt 0.99825 0.57366
vt 0.75084 0.98909
vt 0.94639 0.56437
vt 0.64904 0.12347
vt 0.66708 0.00553
vt 0.39713 0.11163
vt 0.71707 0.91531
vt 0.97219 0.53521
vt 0.89121 0.49735
vt 0.97072 0.40481
vt 0.88371 0.19755
vt 0.89449 0.21484
vt 0.73287 0.40788
vt 0.44148 0.49247
vt 0.65449 0.62915
vt 0.59788 0.79665
vt 0.54095 0.71722
vt 0.68017 0.78765
vt 0.11401 0.76212
vt 0.07142 0.49087
vt 0.33694 0.54887
vt 0.03312 0.52278
vt 0.57202 0.52474
vt 0.34498 0.31109
vt 0.46118 0.03166
vt 0.23699 0.11895
vt 0.43583 0.00000
vt 0.71707 0.91531
vt 0.59788 0.79665
vt 0.68017 0.78765
vt 0.54095 0.71722
vt 0.59788 0.79665
vt 0.43059 0.74160
vt 0.57202 0.52474
vt 0.43059 0.74160
vt 0.78853 0.42562
vt 0.78853 0.42562
vt 0.59788 0.79665
vt 0.89121 0.49735
vt 0.73287 0.40788
vt 0.84905 0.53529
vt 0.83082 0.33208
vt 0.13898 0.85613
vt 0.23091 1.00000
vt 0.25337 0.98288
vt 0.89449 0.21484
vt 0.88371 0.19755
vt 0.80700 0.10392
vt 0.34498 0.31109
vt 0.57202 0.52474
vt 0.63693 0.31218
vt 0.20813 0.24251
vt 0.02363 0.37150
vt 0.05557 0.43266
vt 0.94639 0.56437
vt 0.83568 0.23726
vt 1.00000 0.46474
vt 0.88371 0.19755
vt 0.83568 0.23726
vt 0.69926 0.05598
vt 0.66708 0.00553
vt 0.46118 0.03166
vt 0.43583 0.00000
vt 0.19594 0.22040
vt 0.23699 0.11895
vt 0.44995 0.12891
vt 0.68846 0.22149
vt 0.83082 0.33208
vt 0.81151 0.28910
vt 0.03620 0.53727
vt 0.02850 0.47241
vt 0.38153 0.31209
vt 0.89162 0.45266
vt 0.92031 0.49853
vt 0.68017 0.78765
vt 0.33594 0.40085
vt 0.44148 0.49247
vt 0.73287 0.40788
vt 0.68017 0.78765
vt 0.78746 0.44156
vt 0.89162 0.45266
vt 0.66272 0.17671
vt 0.43139 0.16801
vt 0.68846 0.22149
vt 0.57202 0.52474
vt 0.03312 0.52278
vt 0.07367 0.71915
vt 0.43059 0.74160
vt 0.57202 0.52474
vt 0.19366 0.85737
vt 0.12139 0.81947
vt 0.07367 0.71915
vt 0.03620 0.53727
vt 0.69926 0.05598
vt 0.83568 0.23726
vt 0.69658 0.22259
vt 0.71707 0.91531
vt 0.75084 0.98909
vt 0.97219 0.53521
vt 0.56386 0.82464
vt 0.25337 0.98288
vt 0.49615 0.88027
vt 0.09181 0.66419
vt 0.44148 0.49247
vt 0.33594 0.40085
vt 0.68017 0.78765
vt 0.92031 0.49853
vt 0.70831 0.84994
vt 0.25337 0.98288
vt 0.65449 0.62915
vt 0.13898 0.85613
vt 0.31371 0.25385
vt 0.20813 0.24251
vt 0.05557 0.43266
vt 0.17313 0.25176
vt 0.03312 0.52278
vt 0.34498 0.31109
vt 0.97072 0.40481
vt 0.99825 0.57366
vt 1.00000 0.46474
vt 0.65449 0.62915
vt 0.56386 0.82464
vt 0.84905 0.53529
vt 0.23091 1.00000
vt 0.63743 0.66577
vt 0.49615 0.88027
vt 0.83082 0.33208
vt 0.84905 0.53529
vt 0.92031 0.49853
vt 0.89162 0.45266
vt 0.81151 0.28910
vt 0.92031 0.49853
vt 0.33594 0.40085
vt 0.31371 0.25385
vt 0.05557 0.43266
vt 0.02363 0.37150
vt 0.02850 0.47241
vt 0.00200 0.27901
vt 0.43139 0.16801
vt 0.20813 0.24251
vt 0.31371 0.25385
vt 0.88371 0.19755
vt 0.69926 0.05598
vt 0.80700 0.10392
vt 0.69926 0.05598
vt 0.44995 0.12891
vt 0.46118 0.03166
vt 0.97072 0.40481
vt 0.97219 0.53521
vt 0.99825 0.57366
vt 0.19594 0.22040
vt 0.07142 0.49087
vt 0.03206 0.28151
vt 0.23867 0.85069
vt 0.19366 0.85737
vt 0.12139 0.81947
vt 0.34379 0.32045
vt 0.33694 0.54887
vt 0.07142 0.49087
vt 0.61164 0.51136
vt 0.78746 0.44156
vt 0.54095 0.71722
vt 0.23867 0.85069
vt 0.61164 0.51136
vt 0.54095 0.71722
vt 0.23699 0.11895
vt 0.03206 0.28151
vt 0.00000 0.21013
vt 0.80493 0.58529
vt 0.94639 0.56437
vt 0.67348 0.93112
vt 1.00000 0.46474
vt 0.88371 0.19755
vt 0.97072 0.40481
vt 0.76315 0.41796
vt 0.34379 0.32045
vt 0.69658 0.22259
vt 0.05557 0.43266
vt 0.02363 0.37150
vt 0.03206 0.28151
vt 0.07142 0.49087
vt 0.11401 0.76212
vt 0.09181 0.66419
vt 0.11401 0.76212
vt 0.13898 0.85613
vt 0.09181 0.66419
vt 0.66272 0.17671
vt 0.68846 0.22149
vt 0.81151 0.28910
vt 0.34379 0.32045
vt 0.07142 0.49087
vt 0.19594 0.22040
vt 0.02850 0.47241
vt 0.03620 0.53727
vt 0.03312 0.52278
vt 0.00200 0.27901
vt 0.03312 0.52278
vt 0.17313 0.25176
vt 0.44995 0.12891
vt 0.69926 0.05598
vt 0.69658 0.22259
vt 0.49615 0.88027
vt 0.67348 0.93112
vt 0.56386 0.82464
vt 0.11401 0.76212
vt 0.23091 1.00000
vt 0.13898 0.85613
vt 0.61164 0.51136
vt 0.38153 0.31209
vt 0.64998 0.32398
vt 0.22749 0.09952
vt 0.24826 0.05426
vt 0.00000 0.21013
vt 0.05557 0.43266
vt 0.07142 0.49087
vt 0.09181 0.66419
vt 0.71707 0.91531
vt 0.70831 0.84994
vt 0.75084 0.98909
vt 0.70831 0.84994
vt 0.56386 0.82464
vt 0.67348 0.93112
vt 0.49410 0.21740
vt 0.33594 0.40085
vt 0.68846 0.22149
vt 0.70831 0.84994
vt 0.92031 0.49853
vt 0.84905 0.53529
vt 0.68846 0.22149
vt 0.43139 0.16801
vt 0.49410 0.21740
vt 0.63743 0.66577
vt 0.33694 0.54887
vt 0.76315 0.41796
vt 0.33694 0.54887
vt 0.34379 0.32045
vt 0.76315 0.41796
vt 0.64998 0.32398
vt 0.78746 0.44156
vt 0.61164 0.51136
vt 0.78853 0.42562
vt 0.89121 0.49735
vt 0.97072 0.40481
vt 0.80700 0.10392
vt 0.69926 0.05598
vt 0.66708 0.00553
vt 0.64904 0.12347
vt 0.34498 0.31109
vt 0.63693 0.31218
vt 0.39713 0.11163
vt 0.22749 0.09952
vt 0.17313 0.25176
vt 0.97219 0.53521
vt 0.75084 0.98909
vt 0.99825 0.57366
vt 0.78165 0.21812
vt 0.78853 0.42562
vt 0.97072 0.40481
vt 0.97219 0.53521
vt 0.97072 0.40481
vt 0.89121 0.49735
vt 0.20813 0.24251
vt 0.43139 0.16801
vt 0.02363 0.37150
vt 0.92031 0.49853
vt 0.81151 0.28910
vt 0.83082 0.33208
vt 0.44995 0.12891
vt 0.34379 0.32045
vt 0.19594 0.22040
vt 0.38153 0.31209
vt 0.43139 0.16801
vt 0.66272 0.17671
vt 0.19366 0.85737
vt 0.07367 0.71915
vt 0.12139 0.81947
vt 0.02850 0.47241
vt 0.02363 0.37150
vt 0.38153 0.31209
vt 0.83568 0.23726
vt 0.94639 0.56437
vt 0.76315 0.41796
vt 0.03206 0.28151
vt 0.07142 0.49087
vt 0.05557 0.43266
vt 0.19366 0.85737
vt 0.57202 0.52474
vt 0.07367 0.71915
vt 0.69926 0.05598
vt 0.46118 0.03166
vt 0.66708 0.00553
vt 0.73287 0.40788
vt 0.83082 0.33208
vt 0.68846 0.22149
vt 0.38153 0.31209
vt 0.02363 0.37150
vt 0.43139 0.16801
vt 0.70831 0.84994
vt 0.67348 0.93112
vt 0.75084 0.98909
vt 0.89162 0.45266
vt 0.78746 0.44156
vt 0.81151 0.28910
vt 0.68017 0.78765
vt 0.54095 0.71722
vt 0.78746 0.44156
vt 0.76315 0.41796
vt 0.80493 0.58529
vt 0.63743 0.66577
vt 0.69658 0.22259
vt 0.34379 0.32045
vt 0.44995 0.12891
vt 0.83568 0.23726
vt 0.76315 0.41796
vt 0.69658 0.22259
vt 0.63743 0.66577
vt 0.11401 0.76212
vt 0.33694 0.54887
vt 0.89121 0.49735
vt 0.59788 0.79665
vt 0.71707 0.91531
vt 0.23867 0.85069
vt 0.54095 0.71722
vt 0.43059 0.74160
vt 0.39713 0.11163
vt 0.34498 0.31109
vt 0.64904 0.12347
vt 0.68846 0.22149
vt 0.33594 0.40085
vt 0.73287 0.40788
# 80 vertex normals
vn 0.17791 0.849962 -0.495896
vn -0.0768146 0.7392 0.669091
vn -0.208358 0.801498 -0.560524
vn 0.377672 -0.900085 0.217282
vn 0.29599 -0.734116 0.611116
vn 0.797996 -0.473649 0.372637
vn -0.355053 0.372895 0.857255
vn -0.177758 0.0318849 0.983558
vn -0.420336 0.837964 -0.348042
vn -0.436191 0.509915 -0.741433
vn 0.121863 0.734144 -0.667968
vn 0.367694 0.166655 -0.914892
vn -0.0361228 0.979102 -0.200134
vn -0.950195 0.0661579 0.304553
vn -0.60862 -0.028078 0.792965
vn 0.00688267 0.253171 -0.967397
vn -0.196638 -0.979642 0.0404269
vn -0.179847 -0.923876 0.337799
vn -0.0815907 -0.991876 0.0975936
vn -0.167919 -0.957805 -0.233266
vn -0.692348 -0.721462 0.0120996
vn -0.248349 0.599423 0.76093
vn 0.599862 -0.791945 0.113968
vn -0.495724 0.828683 -0.259891
vn -0.874381 -0.353107 0.332826
vn 0.0990516 0.741972 -0.663074
vn -0.140456 0.93209 -0.333887
vn -0.0512308 0.703376 -0.708969
vn -0.566637 0.444219 0.693968
vn -0.60663 0.552032 0.572067
vn -0.0928583 0.92527 0.367767
vn 0.279313 -0.191537 0.940903
vn 0.0787935 0.752794 0.653524
vn 0.0887177 -0.98486 0.148928
vn -0.0737341 -0.857392 0.509354
vn -0.0899575 -0.566568 0.81909
vn -0.161194 -0.70804 0.687529
vn 0.119541 0.943617 0.308701
vn -0.0142858 0.678815 0.734171
vn 6.44496e-005 0.924712 0.380666
vn -0.846147 -0.158501 -0.508834
vn -0.197369 0.956306 0.215695
vn 0.0275704 -0.560691 0.827566
vn -0.0491557 -0.174499 0.98343
vn -0.672115 0.464728 0.576445
vn -0.690839 -0.124493 0.71221
vn 0.143759 -0.000527134 -0.989613
vn -0.418773 0.859794 0.292205
vn -0.377466 0.290077 -0.879417
vn -0.459031 0.876139 -0.147208
vn 0.071682 -0.816013 0.573572
vn 0.0796206 0.988159 -0.131155
vn -0.0882673 0.389074 0.916968
vn -0.11987 -0.808343 -0.57638
vn -0.863892 -0.386489 -0.322982
vn -0.683854 0.610165 -0.400053
vn 0.721254 0.15129 -0.675946
vn 0.267395 -0.426557 -0.864031
vn -0.536388 0.33515 -0.774572
vn 0.158888 0.986945 -0.0263324
vn 0.875204 -0.400964 -0.270641
vn 0.908853 0.413134 -0.0574983
vn 0.458199 -0.71003 -0.534706
vn 0.561167 -0.817911 -0.126934
vn 0.00327477 -0.859868 -0.510507
vn -0.0237729 -0.981566 -0.189638
vn -0.163064 0.755713 0.634278
vn 0.754713 0.575232 0.315463
vn 0.574529 0.346005 0.741753
vn -0.230172 0.510052 -0.828775
vn -0.644909 -0.228316 -0.729358
vn 0.0754163 -0.253673 -0.964345
vn -0.49989 0.802609 0.325467
vn 0.227067 0.973778 0.0140093
vn 0.214475 -0.936274 -0.278192
vn -0.192668 0.926392 0.323539
vn -0.851681 0.0472055 -0.52193
vn -0.991103 -0.0472268 0.124436
vn 0.181217 -0.72483 -0.664667
vn 0.0348094 -0.58891 -0.807449
# 156 facets
f 10/3/3 15/2/2 22/1/1
f 25/6/6 29/5/5 80/4/4
f 15/9/2 31/8/8 41/7/7
f 66/12/11 52/11/10 45/10/9
f 50/15/13 33/14/12 22/13/1
f 74/18/15 56/17/14 41/16/7
f 66/21/11 76/20/16 52/19/10
f 55/24/19 60/23/18 57/22/17
f 40/27/21 47/26/20 57/25/17
f 59/30/22 74/29/15 31/28/8
f 25/33/6 80/32/4 36/31/23
f 16/36/25 42/35/24 40/34/21
f 43/39/28 61/38/27 14/37/26
f 21/42/30 58/41/29 31/40/8
f 38/45/33 71/44/32 73/43/31
f 67/48/35 55/47/19 34/46/34
f 2/51/37 67/50/35 35/49/36
f 77/54/40 7/53/39 3/52/38
f 65/57/42 56/56/14 5/55/41
f 76/60/16 14/59/26 52/58/10
f 69/63/44 68/62/43 71/61/32
f 52/66/10 70/65/46 24/64/45
f 16/69/25 60/68/18 2/67/37
f 33/72/12 46/71/47 22/70/1
f 48/75/48 7/74/39 58/73/29
f 9/78/50 61/77/27 72/76/49
f 29/81/5 68/80/43 20/79/51
f 3/84/38 18/83/52 77/82/40
f 79/87/53 31/86/8 58/85/29
f 80/90/4 20/89/51 34/88/34
f 49/93/55 13/92/54 47/91/20
f 70/96/46 44/95/56 16/94/25
f 57/99/17 47/98/20 55/97/19
f 1/102/58 33/101/12 26/100/57
f 72/105/49 61/104/27 43/103/28
f 29/108/5 20/107/51 80/106/4
f 40/111/21 60/110/18 16/109/25
f 40/114/21 42/113/24 49/112/55
f 60/117/18 55/116/19 67/115/35
f 10/120/3 46/119/47 51/118/59
f 23/123/60 26/122/57 50/121/13
f 26/126/57 11/125/62 19/124/61
f 19/129/61 30/128/64 39/127/63
f 71/132/32 68/131/43 29/130/5
f 54/135/66 47/134/20 12/133/65
f 38/138/33 66/137/11 6/136/67
f 26/141/57 23/140/60 11/139/62
f 67/144/35 34/143/34 20/142/51
f 63/147/69 53/146/68 65/145/42
f 36/150/23 30/149/64 25/148/6
f 31/153/8 79/152/53 59/151/22
f 5/156/41 4/155/70 73/154/31
f 17/159/72 37/158/71 51/157/59
f 35/162/36 69/161/44 70/160/46
f 55/165/19 47/164/20 54/163/66
f 5/168/41 73/167/31 65/166/42
f 38/171/33 73/170/31 4/169/70
f 71/174/32 38/173/33 69/172/44
f 63/177/69 73/176/31 71/175/32
f 75/180/73 74/179/15 59/178/22
f 15/183/2 10/182/3 21/181/30
f 80/186/4 30/185/64 36/184/23
f 68/189/43 69/188/44 35/187/36
f 48/192/48 42/191/24 64/190/74
f 19/195/61 39/194/63 26/193/57
f 8/198/75 39/197/63 30/196/64
f 55/201/19 54/200/66 34/199/34
f 12/204/65 47/203/20 13/202/54
f 9/207/50 75/206/73 78/205/76
f 14/210/26 44/209/56 52/208/10
f 5/213/41 27/212/78 32/211/77
f 59/216/22 79/215/53 7/214/39
f 32/219/77 72/218/49 5/217/41
f 78/222/76 18/221/52 61/220/27
f 24/225/45 70/224/46 69/223/44
f 6/228/67 69/227/44 38/226/33
f 52/231/10 24/230/45 45/229/9
f 62/234/79 39/233/63 8/232/75
f 53/237/68 23/236/60 65/235/42
f 22/240/1 15/239/2 41/238/7
f 7/243/39 79/242/53 58/241/29
f 56/246/14 27/245/78 5/244/41
f 21/249/30 31/248/8 15/247/2
f 48/252/48 64/251/74 3/250/38
f 35/255/36 70/254/46 2/253/37
f 19/258/61 11/257/62 25/256/6
f 74/261/15 41/260/7 31/259/8
f 22/264/1 46/263/47 10/262/3
f 27/267/78 74/266/15 75/265/73
f 27/270/78 9/269/50 32/268/77
f 48/273/48 3/272/38 7/271/39
f 16/276/25 44/275/56 42/274/24
f 3/279/38 64/278/74 18/277/52
f 80/282/4 8/281/75 30/280/64
f 54/285/66 12/284/65 8/283/75
f 11/288/62 53/287/68 25/286/6
f 49/291/55 37/290/71 13/289/54
f 45/294/9 6/293/67 66/292/11
f 37/297/71 17/296/72 28/295/80
f 4/300/70 72/299/49 76/298/16
f 4/303/70 76/302/16 66/301/11
f 40/306/21 49/305/55 47/304/20
f 50/309/13 26/308/57 33/307/12
f 25/312/6 30/311/64 19/310/61
f 62/315/79 28/314/80 1/313/58
f 49/318/55 42/317/24 48/316/48
f 58/321/29 51/320/59 37/319/71
f 58/324/29 21/323/30 51/322/59
f 9/327/50 78/326/76 61/325/27
f 13/330/54 37/329/71 28/328/80
f 70/333/46 52/332/10 44/331/56
f 2/336/37 70/335/46 16/334/25
f 62/339/79 8/338/75 12/337/65
f 41/342/7 50/341/13 22/340/1
f 21/345/30 10/344/3 51/343/59
f 43/348/28 14/347/26 76/346/16
f 40/351/21 57/350/17 60/349/18
f 58/354/29 37/353/71 48/352/48
f 23/357/60 56/356/14 65/355/42
f 50/360/13 41/359/7 56/358/14
f 78/363/76 7/362/39 77/361/40
f 74/366/15 27/365/78 56/364/14
f 77/369/40 18/368/52 78/367/76
f 1/372/58 17/371/72 46/370/47
f 1/375/58 28/374/80 17/373/72
f 76/378/16 72/377/49 43/376/28
f 25/381/6 63/380/69 71/379/32
f 34/384/34 8/383/75 80/382/4
f 68/387/43 35/386/36 20/385/51
f 2/390/37 60/389/18 67/388/35
f 11/393/62 23/392/60 53/391/68
f 25/396/6 71/395/32 29/394/5
f 63/399/69 25/398/6 53/397/68
f 42/402/24 18/401/52 64/400/74
f 75/405/73 9/404/50 27/403/78
f 13/408/54 28/407/80 12/406/65
f 61/411/27 18/410/52 14/409/26
f 45/414/9 24/413/45 6/412/67
f 14/417/26 42/416/24 44/415/56
f 1/420/58 26/419/57 39/418/63
f 48/423/48 37/422/71 49/421/55
f 24/426/45 69/425/44 6/424/67
f 34/429/34 54/428/66 8/427/75
f 78/432/76 75/431/73 59/430/22
f 18/435/52 42/434/24 14/433/26
f 23/438/60 50/437/13 56/436/14
f 9/441/50 72/440/49 32/439/77
f 72/444/49 4/443/70 5/442/41
f 46/447/47 33/446/12 1/445/58
f 12/450/65 28/449/80 62/448/79
f 62/453/79 1/452/58 39/451/63
f 17/456/72 51/455/59 46/454/47
f 65/459/42 73/458/31 63/457/69
f 38/462/33 4/461/70 66/460/11
f 20/465/51 35/464/36 67/463/35
f 59/468/22 7/467/39 78/466/76

