# 99 vertices
v -44.6747 -17.1731 -14.7825
v -13.2291 -13.591 20.5262
v -16.4255 -14.4956 10.0526
v -19.5332 -17.1042 20.7434
v -19.5892 -15.61 20.8744
v -44.2335 -17.1717 -16.1704
v -42.2753 -15.5999 -17.8983
v -14.7132 -15.2942 -20.6562
v -11.659 -12.2465 1.60782
v -16.0291 -15.9421 9.99531
v -14.966 -13.7983 -20.4299
v -21.5681 -17.1976 20.4894
v -40.9607 -15.5132 -3.669
v -18.7203 -15.5428 21.0381
v -12.0244 -12.444 -18.1162
v -13.7524 -13.3719 1.49829
v -40.7434 -16.2599 13.8305
v -18.1758 -14.2683 -7.30064
v -44.0477 -15.6689 -16.719
v -14.8124 -14.3536 18.9387
v -44.7118 -15.6797 -15.1852
v -11.4644 -12.0663 -7.22043
v -40.3707 -15.5375 -1.18903
v -40.9417 -16.1777 12.4299
v -11.1226 -12.5376 -15.7663
v -44.685 -15.658 -13.6375
v -14.1702 -13.7588 10.2312
v -13.0581 -14.7056 1.47941
v -18.2862 -15.9411 1.25682
v -19.408 -15.4094 18.4551
v -38.8739 -17.795 15.694
v -39.8274 -15.7416 5.45756
v -12.7978 -12.8796 -19.1912
v -12.0806 -12.6369 10.4213
v -12.8656 -14.5273 -7.25417
v -39.9749 -17.7968 14.8768
v -16.546 -15.1473 21.7669
v -40.7195 -17.7434 13.5103
v -10.6951 -13.4068 1.60396
v -44.5029 -17.1476 -13.3771
v -39.7451 -17.2357 5.34132
v -15.0051 -14.5685 21.7956
v -40.8418 -17.6665 12.2273
v -39.8918 -15.6145 2.17296
v -40.8916 -17.0107 -3.73464
v -10.5006 -13.2266 -7.22145
v -11.5126 -12.1058 -16.3466
v -42.3387 -17.0315 -8.13364
v -18.7763 -14.8245 9.89123
v -43.2654 -17.141 -17.2749
v -40.1354 -15.9072 8.51985
v -40.1975 -16.2989 14.801
v -10.5402 -13.2613 -16.3372
v -39.0691 -16.3024 15.7714
v -11.0163 -13.584 -18.1295
v -26.511 -14.8098 -19.7033
v -12.2431 -14.7475 20.6521
v -11.7789 -14.4089 19.3595
v -18.1209 -15.8837 -20.2657
v -29.1303 -15.9952 18.9885
v -40.3031 -17.034 -1.28583
v -18.3655 -14.4439 1.30248
v -18.6954 -16.3202 9.81196
v -12.9313 -15.1856 21.4299
v -17.0621 -15.0852 18.6847
v -13.7136 -15.6257 21.892
v -15.4255 -15.3831 -7.28489
v -13.4752 -15.0919 10.1984
v -16.664 -16.5301 18.6031
v -11.1166 -13.7971 10.4146
v -27.7295 -16.3721 -19.5311
v -15.6161 -15.5596 1.36242
v -16.0113 -14.112 1.39545
v -15.8202 -13.935 -7.27622
v -12.727 -13.235 19.2179
v -18.1986 -14.3869 -20.3303
v -16.2296 -15.6541 -20.5223
v -36.5685 -17.7264 16.4975
v -42.0245 -17.0876 -17.8566
v -14.1491 -14.1441 21.4579
v -18.0973 -15.7662 -7.31263
v -14.1165 -15.6857 18.8921
v -29.733 -17.511 18.6709
v -25.8023 -15.8756 19.8329
v -16.6047 -14.2085 -20.5117
v -19.3246 -16.9029 18.3423
v -39.8166 -17.1098 2.06718
v -17.6101 -16.9093 21.1692
v -13.3556 -14.8009 -20.3418
v -42.3418 -15.5307 -7.9509
v -21.3031 -15.6897 20.6668
v -14.777 -16.1108 22.0397
v -15.5788 -16.4096 21.9322
v -40.0512 -17.4016 8.42022
v -35.6487 -16.203 16.9563
v -13.5596 -13.1933 -7.24921
v -13.6414 -13.2998 -19.8959
v -12.0337 -14.1743 -19.5465
v -26.1308 -17.3834 19.611
# 582 texture coordinates
vt 0.05665 0.01954
vt 0.04977 0.01940
vt 0.05574 0.03170
vt 0.05574 0.03170
vt 0.04977 0.01940
vt 0.04539 0.03118
vt 0.04977 0.01940
vt 0.04582 0.01934
vt 0.04539 0.03118
vt 0.04539 0.03118
vt 0.04582 0.01934
vt 0.03983 0.01928
vt 0.03503 0.03082
vt 0.03983 0.01928
vt 0.03544 0.01926
vt 0.01761 0.01939
vt 0.02511 0.03063
vt 0.02365 0.01930
vt 0.02365 0.01930
vt 0.02511 0.03063
vt 0.02551 0.01928
vt 0.02511 0.03063
vt 0.03503 0.03082
vt 0.02551 0.01928
vt 0.02551 0.01928
vt 0.03503 0.03082
vt 0.03297 0.01925
vt 0.03503 0.03082
vt 0.03544 0.01926
vt 0.03297 0.01925
vt 0.01606 0.03063
vt 0.00996 0.01961
vt 0.00825 0.03081
vt 0.46196 0.21366
vt 0.47098 0.22445
vt 0.46643 0.21346
vt 0.46643 0.21346
vt 0.47098 0.22445
vt 0.47032 0.21330
vt 0.47098 0.22445
vt 0.47170 0.21325
vt 0.47032 0.21330
vt 0.44234 0.21466
vt 0.45317 0.22533
vt 0.45145 0.21417
vt 0.45145 0.21417
vt 0.45317 0.22533
vt 0.45249 0.21411
vt 0.45317 0.22533
vt 0.46262 0.22481
vt 0.45249 0.21411
vt 0.45249 0.21411
vt 0.46262 0.22481
vt 0.45793 0.21384
vt 0.46262 0.22481
vt 0.46196 0.21366
vt 0.45793 0.21384
vt 0.45348 0.23816
vt 0.45317 0.22533
vt 0.44379 0.23868
vt 0.44379 0.23868
vt 0.45317 0.22533
vt 0.44302 0.22599
vt 0.45317 0.22533
vt 0.44234 0.21466
vt 0.44302 0.22599
vt 0.45348 0.23816
vt 0.45992 0.23784
vt 0.45317 0.22533
vt 0.45317 0.22533
vt 0.45992 0.23784
vt 0.46262 0.22481
vt 0.45992 0.23784
vt 0.46339 0.23767
vt 0.46262 0.22481
vt 0.46196 0.21366
vt 0.46262 0.22481
vt 0.47098 0.22445
vt 0.47098 0.22445
vt 0.46262 0.22481
vt 0.46836 0.23746
vt 0.46262 0.22481
vt 0.46339 0.23767
vt 0.46836 0.23746
vt 0.01731 0.04340
vt 0.01606 0.03063
vt 0.01561 0.04344
vt 0.01561 0.04344
vt 0.01606 0.03063
vt 0.00958 0.04361
vt 0.01606 0.03063
vt 0.00825 0.03081
vt 0.00958 0.04361
vt 0.47357 0.23725
vt 0.47098 0.22445
vt 0.47175 0.23732
vt 0.47098 0.22445
vt 0.46836 0.23746
vt 0.47175 0.23732
vt 0.02339 0.04331
vt 0.02511 0.03063
vt 0.01731 0.04340
vt 0.01731 0.04340
vt 0.02511 0.03063
vt 0.01606 0.03063
vt 0.02511 0.03063
vt 0.01761 0.01939
vt 0.01606 0.03063
vt 0.01606 0.03063
vt 0.01761 0.01939
vt 0.00996 0.01961
vt 0.02339 0.04331
vt 0.03275 0.04328
vt 0.02511 0.03063
vt 0.02511 0.03063
vt 0.03275 0.04328
vt 0.03503 0.03082
vt 0.03275 0.04328
vt 0.03459 0.04328
vt 0.03503 0.03082
vt 0.03983 0.01928
vt 0.03503 0.03082
vt 0.04539 0.03118
vt 0.04539 0.03118
vt 0.03503 0.03082
vt 0.03961 0.04331
vt 0.03503 0.03082
vt 0.03459 0.04328
vt 0.03961 0.04331
vt 0.05641 0.04358
vt 0.05574 0.03170
vt 0.05532 0.04356
vt 0.05532 0.04356
vt 0.05574 0.03170
vt 0.04955 0.04344
vt 0.05574 0.03170
vt 0.04539 0.03118
vt 0.04955 0.04344
vt 0.04955 0.04344
vt 0.04539 0.03118
vt 0.04496 0.04337
vt 0.04539 0.03118
vt 0.03961 0.04331
vt 0.04496 0.04337
vt 0.06522 0.04384
vt 0.06564 0.03237
vt 0.05641 0.04358
vt 0.05641 0.04358
vt 0.06564 0.03237
vt 0.05574 0.03170
vt 0.06564 0.03237
vt 0.06609 0.01982
vt 0.05574 0.03170
vt 0.05574 0.03170
vt 0.06609 0.01982
vt 0.05665 0.01954
vt 0.01869 0.12667
vt 0.02721 0.13628
vt 0.02772 0.12689
vt 0.01804 0.12666
vt 0.01294 0.12663
vt 0.01753 0.13603
vt 0.01753 0.13603
vt 0.01294 0.12663
vt 0.00903 0.13603
vt 0.01294 0.12663
vt 0.00953 0.12665
vt 0.00903 0.13603
vt 0.46935 0.01863
vt 0.46871 0.00925
vt 0.46476 0.00933
vt 0.46122 0.01887
vt 0.46476 0.00933
vt 0.45916 0.00951
vt 0.43381 0.01095
vt 0.44155 0.02003
vt 0.44090 0.01047
vt 0.44090 0.01047
vt 0.44155 0.02003
vt 0.44364 0.01030
vt 0.44155 0.02003
vt 0.45181 0.01934
vt 0.44364 0.01030
vt 0.44364 0.01030
vt 0.45181 0.01934
vt 0.45029 0.00992
vt 0.45181 0.01934
vt 0.45117 0.00988
vt 0.45029 0.00992
vt 0.41970 0.01205
vt 0.43091 0.02089
vt 0.42686 0.01146
vt 0.42686 0.01146
vt 0.43091 0.02089
vt 0.43025 0.01120
vt 0.43091 0.02089
vt 0.43381 0.01095
vt 0.43025 0.01120
vt 0.43091 0.02089
vt 0.43114 0.03523
vt 0.43189 0.03518
vt 0.41970 0.01205
vt 0.42038 0.02190
vt 0.43091 0.02089
vt 0.43091 0.02089
vt 0.42038 0.02190
vt 0.43114 0.03523
vt 0.42038 0.02190
vt 0.42134 0.03602
vt 0.43114 0.03523
vt 0.43381 0.01095
vt 0.43091 0.02089
vt 0.44155 0.02003
vt 0.44155 0.02003
vt 0.43091 0.02089
vt 0.43809 0.03474
vt 0.43091 0.02089
vt 0.43189 0.03518
vt 0.43809 0.03474
vt 0.45438 0.03377
vt 0.45181 0.01934
vt 0.45279 0.03385
vt 0.45279 0.03385
vt 0.45181 0.01934
vt 0.44785 0.03412
vt 0.45181 0.01934
vt 0.44155 0.02003
vt 0.44785 0.03412
vt 0.44785 0.03412
vt 0.44155 0.02003
vt 0.44253 0.03444
vt 0.44155 0.02003
vt 0.43809 0.03474
vt 0.44253 0.03444
vt 0.46300 0.03341
vt 0.46122 0.01887
vt 0.45438 0.03377
vt 0.45438 0.03377
vt 0.46122 0.01887
vt 0.45181 0.01934
vt 0.46122 0.01887
vt 0.45916 0.00951
vt 0.45181 0.01934
vt 0.45181 0.01934
vt 0.45916 0.00951
vt 0.45117 0.00988
vt 0.46476 0.00933
vt 0.46122 0.01887
vt 0.46935 0.01863
vt 0.46935 0.01863
vt 0.46122 0.01887
vt 0.46838 0.03326
vt 0.46122 0.01887
vt 0.46300 0.03341
vt 0.46838 0.03326
vt 0.01976 0.15068
vt 0.01753 0.13603
vt 0.01675 0.15063
vt 0.01675 0.15063
vt 0.01753 0.13603
vt 0.01381 0.15060
vt 0.01753 0.13603
vt 0.00903 0.13603
vt 0.01381 0.15060
vt 0.01381 0.15060
vt 0.00903 0.13603
vt 0.00825 0.15063
vt 0.46935 0.01863
vt 0.46838 0.03326
vt 0.47033 0.03322
vt 0.02641 0.15086
vt 0.02721 0.13628
vt 0.01976 0.15068
vt 0.01976 0.15068
vt 0.02721 0.13628
vt 0.01753 0.13603
vt 0.02721 0.13628
vt 0.01869 0.12667
vt 0.01753 0.13603
vt 0.01753 0.13603
vt 0.01869 0.12667
vt 0.01804 0.12666
vt 0.34431 0.17024
vt 0.35125 0.15950
vt 0.34419 0.17020
vt 0.03510 0.07098
vt 0.02579 0.07540
vt 0.03574 0.07602
vt 0.01650 0.07332
vt 0.02579 0.07540
vt 0.01700 0.06712
vt 0.01700 0.06712
vt 0.02579 0.07540
vt 0.02519 0.06945
vt 0.02579 0.07540
vt 0.03510 0.07098
vt 0.02519 0.06945
vt 0.00825 0.06986
vt 0.01650 0.07332
vt 0.01049 0.06444
vt 0.01049 0.06444
vt 0.01650 0.07332
vt 0.01562 0.06662
vt 0.01650 0.07332
vt 0.01700 0.06712
vt 0.01562 0.06662
vt 0.38919 0.17572
vt 0.39557 0.18042
vt 0.39904 0.17223
vt 0.39904 0.17223
vt 0.39557 0.18042
vt 0.40060 0.17336
vt 0.39557 0.18042
vt 0.40281 0.17500
vt 0.40060 0.17336
vt 0.38196 0.16999
vt 0.38919 0.17572
vt 0.39154 0.16710
vt 0.39154 0.16710
vt 0.38919 0.17572
vt 0.39522 0.16956
vt 0.38919 0.17572
vt 0.39904 0.17223
vt 0.39522 0.16956
vt 0.37418 0.16347
vt 0.38196 0.16999
vt 0.38434 0.16263
vt 0.38434 0.16263
vt 0.38196 0.16999
vt 0.38630 0.16381
vt 0.38196 0.16999
vt 0.39154 0.16710
vt 0.38630 0.16381
vt 0.35969 0.15045
vt 0.36617 0.15642
vt 0.36921 0.15459
vt 0.36921 0.15459
vt 0.36617 0.15642
vt 0.37746 0.15875
vt 0.36617 0.15642
vt 0.37418 0.16347
vt 0.37746 0.15875
vt 0.37746 0.15875
vt 0.37418 0.16347
vt 0.37851 0.15932
vt 0.37418 0.16347
vt 0.38434 0.16263
vt 0.37851 0.15932
vt 0.34787 0.14629
vt 0.34381 0.15231
vt 0.35371 0.14821
vt 0.35371 0.14821
vt 0.34381 0.15231
vt 0.35125 0.15950
vt 0.34381 0.15231
vt 0.33411 0.16720
vt 0.35125 0.15950
vt 0.35125 0.15950
vt 0.33411 0.16720
vt 0.34419 0.17020
vt 0.35912 0.16674
vt 0.36388 0.17845
vt 0.36709 0.17375
vt 0.36388 0.17845
vt 0.35912 0.16674
vt 0.36020 0.17666
vt 0.36020 0.17666
vt 0.35912 0.16674
vt 0.35423 0.17401
vt 0.35912 0.16674
vt 0.35125 0.15950
vt 0.35423 0.17401
vt 0.35423 0.17401
vt 0.35125 0.15950
vt 0.35108 0.17272
vt 0.35125 0.15950
vt 0.34431 0.17024
vt 0.35108 0.17272
vt 0.38089 0.18823
vt 0.37484 0.18022
vt 0.37553 0.18487
vt 0.37553 0.18487
vt 0.37484 0.18022
vt 0.37276 0.18323
vt 0.37484 0.18022
vt 0.36709 0.17375
vt 0.37276 0.18323
vt 0.37276 0.18323
vt 0.36709 0.17375
vt 0.36781 0.18048
vt 0.36709 0.17375
vt 0.36388 0.17845
vt 0.36781 0.18048
vt 0.37484 0.18022
vt 0.38089 0.18823
vt 0.38204 0.18590
vt 0.38204 0.18590
vt 0.38089 0.18823
vt 0.38839 0.19054
vt 0.38089 0.18823
vt 0.38693 0.19234
vt 0.38839 0.19054
vt 0.38693 0.19234
vt 0.39025 0.19475
vt 0.38839 0.19054
vt 0.00965 0.07998
vt 0.01471 0.08419
vt 0.01787 0.08339
vt 0.01471 0.08419
vt 0.01818 0.08557
vt 0.01787 0.08339
vt 0.01818 0.08557
vt 0.02328 0.08723
vt 0.01787 0.08339
vt 0.01787 0.08339
vt 0.02328 0.08723
vt 0.02713 0.08543
vt 0.02328 0.08723
vt 0.02752 0.08829
vt 0.02713 0.08543
vt 0.03704 0.08601
vt 0.02713 0.08543
vt 0.03754 0.08983
vt 0.03754 0.08983
vt 0.02713 0.08543
vt 0.02927 0.08866
vt 0.02713 0.08543
vt 0.02752 0.08829
vt 0.02927 0.08866
vt 0.03574 0.07602
vt 0.02579 0.07540
vt 0.03704 0.08601
vt 0.03704 0.08601
vt 0.02579 0.07540
vt 0.02713 0.08543
vt 0.02579 0.07540
vt 0.01650 0.07332
vt 0.02713 0.08543
vt 0.02713 0.08543
vt 0.01650 0.07332
vt 0.01787 0.08339
vt 0.01650 0.07332
vt 0.00825 0.06986
vt 0.01787 0.08339
vt 0.01787 0.08339
vt 0.00825 0.06986
vt 0.00965 0.07998
vt 0.39557 0.18042
vt 0.38919 0.17572
vt 0.38839 0.19054
vt 0.38839 0.19054
vt 0.38919 0.17572
vt 0.38204 0.18590
vt 0.38919 0.17572
vt 0.38196 0.16999
vt 0.38204 0.18590
vt 0.38204 0.18590
vt 0.38196 0.16999
vt 0.37484 0.18022
vt 0.38196 0.16999
vt 0.37418 0.16347
vt 0.37484 0.18022
vt 0.37484 0.18022
vt 0.37418 0.16347
vt 0.36709 0.17375
vt 0.37418 0.16347
vt 0.36617 0.15642
vt 0.36709 0.17375
vt 0.36709 0.17375
vt 0.36617 0.15642
vt 0.35912 0.16674
vt 0.36617 0.15642
vt 0.35969 0.15045
vt 0.35912 0.16674
vt 0.35912 0.16674
vt 0.35969 0.15045
vt 0.35125 0.15950
vt 0.35969 0.15045
vt 0.35786 0.14974
vt 0.35125 0.15950
vt 0.35125 0.15950
vt 0.35786 0.14974
vt 0.35371 0.14821
vt 0.08022 0.26160
vt 0.09195 0.25936
vt 0.08871 0.25365
vt 0.54680 0.10662
vt 0.56016 0.09814
vt 0.54701 0.10031
vt 0.08871 0.25365
vt 0.07899 0.23732
vt 0.08022 0.26160
vt 0.06416 0.24105
vt 0.05068 0.24559
vt 0.05373 0.25057
vt 0.05373 0.25057
vt 0.05068 0.24559
vt 0.04331 0.25979
vt 0.05068 0.24559
vt 0.03795 0.25094
vt 0.04331 0.25979
vt 0.04331 0.25979
vt 0.03795 0.25094
vt 0.03355 0.26813
vt 0.03795 0.25094
vt 0.02630 0.25680
vt 0.03355 0.26813
vt 0.03355 0.26813
vt 0.02630 0.25680
vt 0.02480 0.27527
vt 0.02630 0.25680
vt 0.01633 0.26258
vt 0.02480 0.27527
vt 0.02480 0.27527
vt 0.01633 0.26258
vt 0.01741 0.28094
vt 0.01633 0.26258
vt 0.00825 0.26782
vt 0.01741 0.28094
vt 0.57225 0.09415
vt 0.57402 0.08103
vt 0.56016 0.09814
vt 0.57402 0.08103
vt 0.56178 0.08521
vt 0.56016 0.09814
vt 0.56016 0.09814
vt 0.56178 0.08521
vt 0.54701 0.10031
vt 0.56178 0.08521
vt 0.54842 0.08796
vt 0.54701 0.10031
vt 0.53436 0.08907
vt 0.53329 0.10056
vt 0.54842 0.08796
vt 0.54842 0.08796
vt 0.53329 0.10056
vt 0.54701 0.10031
vt 0.53329 0.10056
vt 0.53265 0.10773
vt 0.54701 0.10031
vt 0.54701 0.10031
vt 0.53265 0.10773
vt 0.54680 0.10662
vt 0.02474 0.28497
vt 0.01741 0.28094
vt 0.02170 0.28693
vt 0.57157 0.10014
vt 0.57225 0.09415
vt 0.56841 0.10133
vt 0.57225 0.09415
vt 0.56016 0.09814
vt 0.56841 0.10133
vt 0.56841 0.10133
vt 0.56016 0.09814
vt 0.55873 0.10428
vt 0.56016 0.09814
vt 0.54680 0.10662
vt 0.55873 0.10428
vt 0.02474 0.28497
vt 0.02978 0.28189
vt 0.01741 0.28094
vt 0.01741 0.28094
vt 0.02978 0.28189
vt 0.02480 0.27527
vt 0.02978 0.28189
vt 0.03474 0.27906
vt 0.02480 0.27527
vt 0.02480 0.27527
vt 0.03474 0.27906
vt 0.03355 0.26813
vt 0.03474 0.27906
vt 0.03933 0.27661
vt 0.03355 0.26813
vt 0.03933 0.27661
vt 0.04466 0.27398
vt 0.03355 0.26813
vt 0.03355 0.26813
vt 0.04466 0.27398
vt 0.04331 0.25979
vt 0.04466 0.27398
vt 0.05084 0.27120
vt 0.04331 0.25979
# 99 vertex normals
vn -0.833371 -0.5031 0.228873
vn -0.79181 -0.60964 -0.037089
vn -0.892008 0.404685 0.201374
vn 0.225035 0.880856 -0.416475
vn -0.437334 0.899299 -0.00077729
vn 0.025323 0.888251 -0.45866
vn 0.0975779 -0.995182 -0.00958967
vn 0.00446998 -0.793869 -0.608073
vn -0.641223 -0.74201 0.195587
vn -0.0137914 0.832772 -0.553444
vn 0.091156 -0.995331 -0.0317142
vn -0.654235 -0.745727 0.125966
vn 0.997993 -0.0185977 0.0605339
vn 0.268056 0.940683 0.207996
vn 0.0281747 0.997998 0.0566182
vn 0.999738 0.00345188 0.0226326
vn 0.401387 -0.915784 -0.0151044
vn -0.329262 -0.93273 0.146976
vn -0.691707 -0.623303 -0.364741
vn -0.605645 0.770476 0.198896
vn -0.268035 0.456185 0.848559
vn -0.0925179 -0.623982 0.775942
vn -0.166704 0.631196 0.757497
vn -0.0888822 0.844654 -0.527883
vn -0.111543 0.815692 -0.567632
vn -0.793236 -0.5918 -0.143351
vn -0.631235 0.773586 -0.0557399
vn -0.658128 -0.743308 -0.119834
vn -0.357074 0.750182 0.55653
vn -0.85674 0.514048 0.0418444
vn 0.22785 -0.973696 -0.00053906
vn 0.408025 -0.912971 0.000139618
vn 0.243783 -0.636431 -0.731796
vn 0.0793239 -0.994144 -0.073383
vn -0.154057 -0.768158 0.62145
vn -0.165204 -0.529149 0.832291
vn -0.847832 0.506552 0.156801
vn -0.741824 0.66713 0.0680766
vn -0.797154 -0.600336 0.0643551
vn -0.0854293 -0.625953 0.775168
vn -0.395532 0.91726 0.0467844
vn -0.228054 0.972808 0.0404465
vn -0.395193 0.918197 0.0271477
vn 0.0921748 -0.994388 -0.0519177
vn 0.466374 -0.308796 -0.828939
vn -0.0436399 0.660977 -0.749136
vn -0.787026 0.228527 0.573031
vn -0.705044 0.654775 0.272366
vn -0.233202 0.745189 0.624748
vn -0.159099 0.594741 -0.788017
vn -0.0984707 0.995126 0.0051954
vn -0.151172 -0.742618 -0.652431
vn -0.310273 0.211443 -0.926835
vn -0.447777 -0.610939 -0.652878
vn 0.401954 -0.915274 -0.0265775
vn -0.19385 0.978681 0.067867
vn 0.895646 -0.427085 0.124164
vn -0.657258 0.521259 -0.544335
vn -0.054183 -0.58034 -0.81257
vn 0.135373 -0.850812 0.507734
vn -0.0713133 -0.776795 0.625703
vn -0.326939 0.533562 0.780015
vn -0.258872 0.965911 0.000790678
vn -0.719537 0.666644 0.194556
vn -0.314967 -0.634748 0.705613
vn 0.926783 -0.37551 0.00809881
vn -0.832758 0.516583 -0.199137
vn -0.621238 -0.766843 0.16129
vn -0.177011 -0.766889 0.616886
vn -0.0902871 0.995485 0.0292879
vn -0.8586 0.511917 -0.0273189
vn -0.668116 -0.742652 -0.0457114
vn 0.0490181 -0.712996 -0.699453
vn -0.0804979 0.994142 0.0721216
vn -0.0866533 0.994923 0.0511745
vn 0.222472 -0.973024 -0.0610771
vn 0.407135 -0.912158 -0.0469923
vn 0.231671 -0.971964 -0.0401686
vn -0.164033 0.475338 0.864377
vn 0.18556 -0.457883 0.869431
vn -0.151683 0.631734 0.760201
vn 0.0156945 0.74757 0.663998
vn -0.227236 0.973566 0.0231063
vn -0.394559 0.918741 0.0154504
vn 0.743627 0.668589 -0.00276346
vn 0.411133 0.900113 -0.144107
vn 0.367984 0.929789 0.00896116
vn 0.164503 0.849822 0.500741
vn 0.190067 0.980906 0.0411975
vn 0.230859 -0.972717 -0.022942
vn -0.267566 0.360627 0.893508
vn -0.661785 -0.409852 0.627743
vn -0.188388 0.637992 0.746644
vn 0.699444 -0.126169 0.703462
vn 0.891674 -0.00861834 0.452596
vn 0.756006 -0.333632 -0.563156
vn 0.994582 0.044344 -0.0940272
vn 0.855015 0.301393 -0.422033
vn 0.454886 -0.2943 0.840516
# 194 facets
f 26/3/3 1/2/2 40/1/1
f 33/6/6 96/5/5 15/4/4
f 45/9/9 59/8/8 81/7/7
f 97/12/10 96/11/5 33/10/6
f 61/15/12 81/14/7 29/13/11
f 34/18/15 75/17/14 70/16/13
f 70/21/13 28/20/17 39/19/16
f 6/24/19 48/23/18 1/22/2
f 48/27/18 90/26/20 26/25/3
f 5/30/23 4/29/22 14/28/21
f 90/33/20 76/32/25 56/31/24
f 43/36/28 51/35/27 94/34/26
f 24/39/30 54/38/29 51/37/27
f 8/42/33 35/41/32 67/40/31
f 99/45/36 83/44/35 86/43/34
f 87/48/39 44/47/38 23/46/37
f 99/51/36 86/50/34 12/49/40
f 27/54/43 3/53/42 20/52/41
f 43/57/28 63/56/44 86/55/34
f 11/60/46 89/59/45 8/58/33
f 54/63/29 17/62/48 52/61/47
f 51/66/27 54/65/29 95/64/49
f 18/69/51 85/68/50 76/67/25
f 50/72/54 7/71/53 79/70/52
f 70/75/13 68/74/55 28/73/17
f 20/78/41 3/77/42 65/76/56
f 58/81/57 70/80/13 75/79/14
f 19/84/58 7/83/53 50/82/54
f 7/87/53 71/86/59 79/85/52
f 5/90/23 12/89/40 4/88/22
f 19/93/58 50/92/54 6/91/19
f 37/96/62 88/95/61 93/94/60
f 50/99/54 79/98/52 48/97/18
f 11/102/46 74/101/63 97/100/10
f 13/105/64 18/104/51 90/103/20
f 54/108/29 31/107/65 95/106/49
f 39/111/16 35/110/32 46/109/66
f 6/114/19 21/113/67 19/112/58
f 1/117/2 21/116/67 6/115/19
f 40/120/1 48/119/18 26/118/3
f 78/123/69 38/122/68 86/121/34
f 19/126/58 21/125/67 56/124/24
f 13/129/64 62/128/70 18/127/51
f 41/132/72 32/131/71 44/130/38
f 59/135/8 67/134/31 81/133/7
f 85/138/50 77/137/73 59/136/8
f 49/141/75 95/140/49 30/139/74
f 26/144/3 21/143/67 1/142/2
f 10/147/78 82/146/77 69/145/76
f 65/150/56 30/149/74 5/148/23
f 94/153/26 32/152/71 41/151/72
f 91/156/79 12/155/40 5/154/23
f 92/159/80 93/158/60 82/157/77
f 65/162/56 49/161/75 30/160/74
f 80/165/82 20/164/41 42/163/81
f 31/168/65 38/167/68 78/166/69
f 20/171/41 65/170/56 37/169/62
f 21/174/67 26/173/3 56/172/24
f 16/177/84 73/176/83 27/175/43
f 61/180/12 13/179/64 45/178/9
f 27/183/43 73/182/83 3/181/42
f 50/186/54 48/185/18 6/184/19
f 39/189/16 46/188/66 25/187/85
f 22/192/87 47/191/86 96/190/5
f 2/195/88 20/194/41 80/193/82
f 85/198/50 8/197/33 77/196/73
f 43/201/28 24/200/30 51/199/27
f 39/204/16 9/203/89 70/202/13
f 81/207/7 67/206/31 72/205/90
f 60/210/91 83/209/35 99/208/36
f 22/213/87 96/212/5 9/211/89
f 24/216/30 43/215/28 38/214/68
f 73/219/83 18/218/51 62/217/70
f 59/222/8 77/221/73 67/220/31
f 37/225/62 65/224/56 14/223/21
f 59/228/8 71/227/59 56/226/24
f 87/231/39 61/230/12 29/229/11
f 17/234/48 24/233/30 38/232/68
f 9/237/89 16/236/84 34/235/15
f 38/240/68 52/239/47 17/238/48
f 38/243/68 36/242/92 52/241/47
f 1/246/2 48/245/18 40/244/1
f 32/249/71 51/248/27 49/247/75
f 54/252/29 24/251/30 17/250/48
f 9/255/89 96/254/5 16/253/84
f 32/258/71 49/257/75 44/256/38
f 45/261/9 81/260/7 61/259/12
f 54/264/29 36/263/92 31/262/65
f 52/267/47 36/266/92 54/265/29
f 60/270/91 78/269/69 83/268/35
f 75/273/14 20/272/41 2/271/88
f 8/276/33 89/275/45 35/274/32
f 3/279/42 49/278/75 65/277/56
f 61/282/12 23/281/37 13/280/64
f 81/285/7 72/284/90 29/283/11
f 56/288/24 71/287/59 7/286/53
f 91/291/79 30/290/74 84/289/93
f 85/294/50 59/293/8 76/292/25
f 39/297/16 28/296/17 35/295/32
f 3/300/42 62/299/70 49/298/75
f 86/303/34 88/302/61 4/301/22
f 60/306/91 99/305/36 84/304/93
f 73/309/83 62/308/70 3/307/42
f 63/312/44 10/311/78 69/310/76
f 12/315/40 86/314/34 4/313/22
f 79/318/52 71/317/59 48/316/18
f 57/321/95 64/320/94 82/319/77
f 45/324/9 90/323/20 48/322/18
f 94/327/26 63/326/44 43/325/28
f 46/330/66 35/329/32 98/328/96
f 41/333/72 63/332/44 94/331/26
f 58/336/57 57/335/95 82/334/77
f 69/339/76 82/338/77 93/337/60
f 67/342/31 28/341/17 72/340/90
f 91/345/79 5/344/23 30/343/74
f 67/348/31 35/347/32 28/346/17
f 89/351/45 98/350/96 35/349/32
f 34/354/15 27/353/43 75/352/14
f 55/357/98 53/356/97 98/355/96
f 14/360/21 88/359/61 37/358/62
f 96/363/5 97/362/10 74/361/63
f 48/366/18 59/365/8 45/364/9
f 37/369/62 92/368/80 42/367/81
f 37/372/62 93/371/60 92/370/80
f 42/375/81 20/374/41 37/373/62
f 25/378/85 46/377/66 53/376/97
f 88/381/61 69/380/76 93/379/60
f 23/384/37 62/383/70 13/382/64
f 87/387/39 23/386/37 61/385/12
f 70/390/13 9/389/89 34/388/15
f 84/393/93 30/392/74 60/391/91
f 25/396/85 22/395/87 39/394/16
f 25/399/85 47/398/86 22/397/87
f 86/402/34 69/401/76 88/400/61
f 63/405/44 69/404/76 86/403/34
f 41/408/72 29/407/11 63/406/44
f 58/411/57 82/410/77 68/409/55
f 87/414/39 29/413/11 41/412/72
f 36/417/92 38/416/68 31/415/65
f 92/420/80 82/419/77 66/418/99
f 59/423/8 56/422/24 76/421/25
f 4/426/22 88/425/61 14/424/21
f 10/429/78 68/428/55 82/427/77
f 39/432/16 22/431/87 9/430/89
f 66/435/99 82/434/77 64/433/94
f 75/438/14 57/437/95 58/436/57
f 2/441/88 57/440/95 75/439/14
f 44/444/38 62/443/70 23/442/37
f 51/447/27 95/446/49 49/445/75
f 2/450/88 64/449/94 57/448/95
f 80/453/82 64/452/94 2/451/88
f 80/456/82 66/455/99 64/454/94
f 95/459/49 60/458/91 30/457/74
f 74/462/63 18/461/51 73/460/83
f 42/465/81 66/464/99 80/463/82
f 42/468/81 92/467/80 66/466/99
f 46/471/66 98/470/96 53/469/97
f 75/474/14 27/473/43 20/472/41
f 34/477/15 16/476/84 27/475/43
f 45/480/9 13/479/64 90/478/20
f 48/483/18 71/482/59 59/481/8
f 29/486/11 72/485/90 10/484/78
f 95/489/49 78/488/69 60/487/91
f 41/492/72 44/491/38 87/490/39
f 72/495/90 68/494/55 10/493/78
f 72/498/90 28/497/17 68/496/55
f 74/501/63 85/500/50 18/499/51
f 19/504/58 56/503/24 7/502/53
f 97/507/10 98/506/96 89/505/45
f 33/510/6 98/509/96 97/508/10
f 58/513/57 68/512/55 70/511/13
f 15/516/4 98/515/96 33/514/6
f 15/519/4 55/518/98 98/517/96
f 11/522/46 8/521/33 85/520/50
f 8/525/33 67/524/31 77/523/73
f 47/528/86 55/527/98 15/526/4
f 47/531/86 53/530/97 55/529/98
f 44/534/38 49/533/75 62/532/70
f 47/537/86 25/536/85 53/535/97
f 90/540/20 56/539/24 26/538/3
f 95/543/49 31/542/65 78/541/69
f 16/546/84 74/545/63 73/544/83
f 91/549/79 99/548/36 12/547/40
f 94/552/26 51/551/27 32/550/71
f 90/555/20 18/554/51 76/553/25
f 43/558/28 86/557/34 38/556/68
f 96/561/5 47/560/86 15/559/4
f 74/564/63 11/563/46 85/562/50
f 29/567/11 10/566/78 63/565/44
f 84/570/93 99/569/36 91/568/79
f 78/573/69 86/572/34 83/571/35
f 96/576/5 74/575/63 16/574/84
f 14/579/21 65/578/56 5/577/23
f 89/582/45 11/581/46 97/580/10

