# 54 vertices
v 41.0256 1.73515 -15.4664
v 41.2141 1.73515 -8.719
v 34.2256 -3.57921 -8.52379
v 34.0371 -3.57921 -15.2712
v 33.4897 -2.99 -8.50324
v 32.0237 -0.512123 -15.2149
v 32.3363 -0.967077 -8.47102
v 32.3039 1.36146 -8.47012
v 33.1514 3.03493 -8.49379
v 33.6278 3.70292 -15.2597
v 39.8875 -8.81546 -15.4346
v 34.4186 4.21748 -15.2818
v 36.418 4.70366 -8.58504
v 38.081 4.40896 -15.3841
v 39.1089 3.97957 -8.6602
v 39.8403 3.3846 -8.68063
v 31.9706 0.429494 -15.2134
v 40.6036 2.16638 -15.4546
v 37.0077 -5.70275 -15.3541
v 35.9138 -4.57594 -15.3236
v 37.1962 -5.70275 -8.60677
v 39.6518 3.3846 -15.428
v 44.8252 -8.67807 -15.5725
v 36.2295 4.70366 -15.3324
v 39.2677 -8.61764 -15.4173
v 38.4571 -8.08129 -15.3946
v 32.707 2.63889 -15.234
v 37.8246 -7.34427 -15.377
v 38.0131 -7.34427 -8.62959
v 44.4814 -8.8385 -15.5629
v 43.6413 -3.14599 -8.7868
v 38.4017 -7.866 -8.64045
v 39.1727 -8.45712 -8.66198
v 37.3591 4.6539 -8.61132
v 32.1591 0.429494 -8.46607
v 32.6395 2.24284 -8.47949
v 33.8162 3.70292 -8.51236
v 38.2695 4.40896 -8.63675
v 44.63 -8.85866 -8.81442
v 33.3012 -2.99 -15.2506
v 32.4879 -1.84115 -15.2279
v 38.9204 3.97957 -15.4076
v 40.3994 -8.84853 -8.69625
v 32.8923 -2.26027 -8.48655
v 32.1155 1.36146 -15.2175
v 45.1035 -8.58663 -8.82764
v 35.7811 -4.34473 -8.56724
v 45.0893 -8.34655 -15.5799
v 35.047 4.38675 -8.54674
v 40.7921 2.16638 -8.70721
v 35.2984 4.55602 -15.3064
v 45.2778 -8.34655 -8.83251
v 43.4528 -3.14599 -15.5342
v 37.1706 4.6539 -15.3587
# 59 texture coordinates
vt 0.13496 0.38580
vt 0.21829 0.35451
vt 0.21119 0.64362
vt 0.82219 0.69714
vt 0.82219 0.30286
vt 0.84205 0.29742
vt 0.84205 0.70258
vt 0.03365 0.31209
vt 0.31347 0.27380
vt 0.27124 0.31957
vt 0.44905 0.69711
vt 0.39580 0.73520
vt 0.37906 0.26072
vt 0.47285 0.68028
vt 0.44905 0.30289
vt 0.49532 0.66702
vt 0.47285 0.31972
vt 0.52768 0.65280
vt 0.50652 0.33802
vt 1.03365 0.31209
vt 1.31347 0.27380
vt 0.55832 0.64250
vt 0.53783 0.35141
vt 0.57852 0.63808
vt 0.55832 0.35750
vt 0.59851 0.63513
vt 0.57852 0.36192
vt 0.61838 0.63353
vt 0.60851 0.36544
vt 0.63818 0.63320
vt 0.66789 0.63548
vt 0.63818 0.36680
vt 0.69801 0.64001
vt 0.67794 0.36363
vt 0.71833 0.64519
vt 0.69801 0.35999
vt 0.73902 0.65217
vt 0.71833 0.35481
vt 0.76023 0.66128
vt 0.73902 0.34783
vt 0.78219 0.67296
vt 0.76023 0.33872
vt 0.78219 0.32704
vt 0.65802 0.36586
vt 0.12860 0.38712
vt 0.12122 0.38658
vt 0.23209 0.34895
vt 0.27124 0.68043
vt 0.31347 0.72620
vt 0.25194 0.33674
vt 0.13572 0.61433
vt 0.12636 0.61292
vt 0.23866 0.65479
vt 0.25872 0.66809
vt 0.03365 0.68791
vt 0.12122 0.61342
vt 1.31347 0.72620
vt 1.03365 0.68791
vt 1.39580 0.73520
# 52 vertex normals
vn -0.141283 0.989947 0.00662506
vn 0.206131 0.978464 -0.010844
vn 0.104752 0.994492 -0.00365633
vn -0.75214 -0.658669 0.0210004
vn -0.714365 -0.699489 0.0199381
vn 0.0279067 -0 0.999611
vn 0.513814 0.857721 -0.0175938
vn 0.573353 0.819138 -0.0167503
vn 0.586857 0.809518 -0.0167504
vn 0.677515 0.735266 -0.0189067
vn 0.574885 0.818077 -0.0160315
vn 0.841796 0.539353 -0.0218441
vn 0.743238 0.668799 -0.0174692
vn 0.95786 0.285661 -0.0300318
vn 0.899012 0.437381 -0.0218128
vn 0.999467 0.00959404 -0.0311884
vn 0.984682 0.171911 -0.0291258
vn 0.974638 -0.222128 -0.0272191
vn 0.996072 -0.0840633 -0.0278128
vn 0.897041 -0.441411 -0.0217815
vn 0.949744 -0.312164 -0.0232506
vn 0.778352 -0.627663 -0.0144376
vn 0.810086 -0.586079 -0.0165005
vn 0.65746 -0.75337 -0.013438
vn 0.407042 -0.913242 -0.0174692
vn 0.602111 -0.798117 -0.0217194
vn 0.110251 -0.993884 -0.0063438
vn 0.24763 -0.968801 -0.0101565
vn -0.122284 -0.992489 0.00340632
vn 0.0170627 -0.999854 -0.000468755
vn -0.32635 -0.945205 0.00909392
vn -0.191568 -0.981465 0.0053439
vn -0.516133 -0.856388 0.0144065
vn -0.391854 -0.919962 0.0109378
vn -0.68679 -0.726603 0.0191565
vn -0.574942 -0.818037 0.0160314
vn -0.739395 -0.672956 0.0206256
vn 0.454198 -0.890677 -0.0199692
vn 0.842516 0.53826 -0.0210317
vn 0.83303 0.552739 -0.0232508
vn 0.844517 0.535011 -0.023563
vn 0.777309 0.628835 -0.0189069
vn -0.314192 0.949325 0.00809386
vn -0.708762 0.705199 0.0187191
vn -0.578979 0.815202 0.0151565
vn 0.447133 0.894296 -0.0175003
vn 0.711667 0.702323 -0.0165315
vn 0.686918 0.726544 -0.0166565
vn -0.795452 0.605573 0.0231879
vn 0.431631 0.90192 -0.015344
vn -0.0279067 -0 -0.999611
vn -0.80878 0.587678 0.0225633
# 150 facets
f 30/1/1 11/2/2 43/3/3
f 50/4/4 18/5/4 1/6/5
f 1/6/5 2/7/5 50/4/4
f 53/8/6 19/9/6 28/10/6
f 3/11/7 47/12/8 20/13/9
f 5/14/10 3/11/7 4/15/11
f 44/16/12 5/14/10 40/17/13
f 7/18/14 44/16/12 41/19/15
f 53/20/6 1/6/6 19/21/6
f 35/22/16 7/18/14 6/23/17
f 8/24/18 35/22/16 17/25/19
f 36/26/20 8/24/18 45/27/21
f 9/28/22 36/26/20 27/29/23
f 37/30/24 9/28/22 27/29/23
f 49/31/25 37/30/24 10/32/26
f 11/2/6 30/1/6 53/8/6
f 13/33/27 49/31/25 51/34/28
f 34/35/29 13/33/27 24/36/30
f 38/37/31 34/35/29 54/38/32
f 15/39/33 38/37/31 14/40/34
f 16/41/35 15/39/33 42/42/36
f 50/4/4 16/41/35 22/43/37
f 22/43/37 18/5/4 50/4/4
f 42/42/36 22/43/37 16/41/35
f 14/40/34 42/42/36 15/39/33
f 54/38/32 14/40/34 38/37/31
f 24/36/30 54/38/32 34/35/29
f 51/34/28 24/36/30 13/33/27
f 12/44/38 51/34/28 49/31/25
f 10/32/26 12/44/38 49/31/25
f 27/29/23 10/32/26 37/30/24
f 23/45/6 48/46/6 53/8/6
f 45/27/21 27/29/23 36/26/20
f 17/25/19 45/27/21 8/24/18
f 6/23/17 17/25/19 35/22/16
f 41/19/15 6/23/17 7/18/14
f 53/8/6 25/47/6 11/2/6
f 40/17/13 41/19/15 44/16/12
f 4/15/11 40/17/13 5/14/10
f 20/13/9 4/15/11 3/11/7
f 29/48/39 28/10/40 19/9/41
f 4/15/6 20/13/6 42/42/6
f 21/49/42 19/9/41 20/13/9
f 53/8/6 28/10/6 26/50/6
f 39/51/43 46/52/44 23/45/45
f 54/38/6 24/36/6 51/34/6
f 10/32/6 27/29/6 42/42/6
f 20/13/9 47/12/8 21/49/42
f 17/25/6 6/23/6 42/42/6
f 19/9/41 21/49/42 29/48/39
f 42/42/6 40/17/6 4/15/6
f 33/53/46 43/3/3 11/2/2
f 53/8/6 30/1/6 23/45/6
f 32/54/47 33/53/46 26/50/48
f 29/48/39 32/54/47 26/50/48
f 18/5/6 22/43/6 20/13/6
f 48/46/49 23/45/45 46/52/44
f 26/50/48 28/10/40 29/48/39
f 42/42/6 41/19/6 40/17/6
f 25/47/50 26/50/48 33/53/46
f 11/2/2 25/47/50 33/53/46
f 42/42/6 12/44/6 10/32/6
f 33/53/51 32/54/51 31/55/51
f 13/33/51 34/35/51 49/31/51
f 32/54/51 29/48/51 31/55/51
f 3/11/51 5/14/51 15/39/51
f 43/3/3 39/51/43 30/1/1
f 35/22/51 8/24/51 15/39/51
f 36/26/51 9/28/51 15/39/51
f 37/30/51 49/31/51 15/39/51
f 34/35/51 38/37/51 49/31/51
f 46/52/51 39/51/51 31/55/51
f 42/42/6 45/27/6 17/25/6
f 43/3/51 33/53/51 31/55/51
f 46/52/44 52/56/52 48/46/49
f 5/14/51 44/16/51 15/39/51
f 15/39/51 7/18/51 35/22/51
f 15/39/51 9/28/51 37/30/51
f 38/37/51 15/39/51 49/31/51
f 1/6/6 18/5/6 20/13/6
f 22/43/6 42/42/6 20/13/6
f 51/34/6 14/40/6 54/38/6
f 23/45/45 30/1/1 39/51/43
f 15/39/51 44/16/51 7/18/51
f 26/50/6 25/47/6 53/8/6
f 12/44/6 42/42/6 14/40/6
f 42/42/6 6/23/6 41/19/6
f 51/34/6 12/44/6 14/40/6
f 47/12/51 16/41/51 50/4/51
f 15/39/51 8/24/51 36/26/51
f 31/55/51 39/51/51 43/3/51
f 47/12/51 50/4/51 2/7/51
f 15/39/51 47/12/51 3/11/51
f 29/48/51 21/49/51 31/55/51
f 21/57/51 2/7/51 31/58/51
f 47/12/51 15/39/51 16/41/51
f 27/29/6 45/27/6 42/42/6
f 20/13/6 19/9/6 1/6/6
f 2/7/51 21/57/51 47/59/51
f 31/55/51 52/56/51 46/52/51
f 30/1/1 11/2/2 43/3/3
f 50/4/4 18/5/4 1/6/5
f 1/6/5 2/7/5 50/4/4
f 53/8/6 19/9/6 28/10/6
f 3/11/7 47/12/8 20/13/9
f 5/14/10 3/11/7 4/15/11
f 44/16/12 5/14/10 40/17/13
f 7/18/14 44/16/12 41/19/15
f 53/20/6 1/6/6 19/21/6
f 35/22/16 7/18/14 6/23/17
f 8/24/18 35/22/16 17/25/19
f 36/26/20 8/24/18 45/27/21
f 9/28/22 36/26/20 27/29/23
f 37/30/24 9/28/22 27/29/23
f 49/31/25 37/30/24 10/32/26
f 11/2/6 30/1/6 53/8/6
f 13/33/27 49/31/25 51/34/28
f 34/35/29 13/33/27 24/36/30
f 38/37/31 34/35/29 54/38/32
f 15/39/33 38/37/31 14/40/34
f 16/41/35 15/39/33 42/42/36
f 50/4/4 16/41/35 22/43/37
f 22/43/37 18/5/4 50/4/4
f 42/42/36 22/43/37 16/41/35
f 14/40/34 42/42/36 15/39/33
f 54/38/32 14/40/34 38/37/31
f 24/36/30 54/38/32 34/35/29
f 51/34/28 24/36/30 13/33/27
f 12/44/38 51/34/28 49/31/25
f 10/32/26 12/44/38 49/31/25
f 27/29/23 10/32/26 37/30/24
f 23/45/6 48/46/6 53/8/6
f 45/27/21 27/29/23 36/26/20
f 17/25/19 45/27/21 8/24/18
f 6/23/17 17/25/19 35/22/16
f 41/19/15 6/23/17 7/18/14
f 53/8/6 25/47/6 11/2/6
f 40/17/13 41/19/15 44/16/12
f 4/15/11 40/17/13 5/14/10
f 20/13/9 4/15/11 3/11/7
f 29/48/39 28/10/40 19/9/41
f 4/15/6 20/13/6 42/42/6
f 21/49/42 19/9/41 20/13/9
f 53/8/6 28/10/6 26/50/6
f 39/51/43 46/52/44 23/45/45
f 54/38/6 24/36/6 51/34/6
f 10/32/6 27/29/6 42/42/6
f 20/13/9 47/12/8 21/49/42
f 17/25/6 6/23/6 42/42/6
f 19/9/41 21/49/42 29/48/39
