# 54 vertices
v 40.1082 1.10827 -32.3729
v 36.0925 -6.31259 -31.8474
v 34.9782 -4.63815 -25.1121
v 33.4238 -3.87 -25.0788
v 33.1242 -4.18475 -31.8148
v 32.6876 -3.2798 -25.0737
v 32.3879 -3.59457 -31.8097
v 32.0909 -2.54953 -25.0812
v 44.4686 -8.6567 -25.3464
v 32.6832 3.0722 -25.3703
v 32.7166 3.09033 -32.1366
v 33.8057 3.91734 -25.4597
v 33.5061 3.60259 -32.1957
v 34.6852 4.25356 -25.5145
v 35.6151 4.39896 -25.5627
v 35.3154 4.0842 -32.2987
v 36.5566 4.34718 -25.6021
v 37.4657 4.10047 -25.6311
v 39.687 1.53998 -32.3742
v 36.257 4.03241 -32.3382
v 34.9994 -5.18458 -31.8515
v 42.5342 -3.77295 -32.2527
v 38.0049 3.35492 -32.3842
v 44.0276 -9.18446 -32.0662
v 38.9697 -9.42836 -31.8299
v 34.3856 3.93879 -32.2505
v 38.3505 -9.22937 -31.8116
v 37.5962 -8.1614 -25.0639
v 37.166 3.78571 -32.3671
v 36.9086 -7.95413 -31.8071
v 37.2074 -7.63938 -25.071
v 43.5991 -9.44193 -32.0351
v 42.8339 -3.45819 -25.5166
v 31.5757 -2.44515 -31.8272
v 43.9413 -9.12313 -25.3012
v 31.204 0.754793 -31.9603
v 31.1119 -1.11654 -31.8687
v 38.3671 -8.75358 -25.0705
v 44.169 -8.97143 -32.0825
v 38.3046 3.66968 -25.6483
v 36.3921 -5.99783 -25.1114
v 37.5409 -8.69176 -31.8007
v 31.5357 -1.25652 -25.117
v 31.8387 1.94922 -25.2803
v 38.7366 2.75897 -32.3889
v 31.4316 0.604237 -25.1993
v 31.5399 1.63447 -32.0163
v 39.593 -9.14734 -25.1066
v 31.0599 -0.175836 -31.9104
v 44.3273 -8.86969 -25.3302
v 40.4078 1.42303 -25.6368
v 39.0354 3.07373 -25.6529
v 39.9867 1.85473 -25.6383
v 32.0513 2.42455 -32.0759
# 60 texture coordinates
vt 0.13834 0.38750
vt 0.22262 0.36665
vt 0.20671 0.65447
vt 0.82465 0.67750
vt 0.81957 0.28331
vt 0.84033 0.27710
vt 0.84372 0.68226
vt 0.63363 0.36588
vt 0.61386 0.36819
vt 0.75616 0.32346
vt 0.45288 0.71644
vt 0.39730 0.75666
vt 0.37912 0.28239
vt 0.47721 0.69792
vt 0.44618 0.32246
vt 0.50000 0.68273
vt 0.46950 0.33773
vt 0.53263 0.66521
vt 0.50268 0.35312
vt 0.04006 0.30112
vt 0.25605 0.35234
vt 0.23631 0.36259
vt 0.57365 0.64807
vt 0.53371 0.36324
vt 0.12981 0.61476
vt 0.12187 0.61278
vt 0.12973 0.38755
vt 0.60349 0.63883
vt 0.57415 0.36884
vt 0.63319 0.63334
vt 0.59406 0.36921
vt 0.73472 0.33461
vt 0.71390 0.34382
vt 0.69347 0.35139
vt 0.66276 0.62996
vt 0.68255 0.62966
vt 0.65344 0.36232
vt 0.70246 0.63084
vt 0.67336 0.35751
vt 0.72263 0.63371
vt 0.74309 0.63853
vt 0.76404 0.64566
vt 0.78564 0.65561
vt 0.77848 0.30995
vt 0.55408 0.36692
vt 0.26699 0.69739
vt 0.27528 0.33687
vt 0.31690 0.29390
vt 0.30982 0.74611
vt 0.12535 0.38642
vt 0.23429 0.66868
vt 0.25444 0.68395
vt 1.37912 0.28239
vt 1.31690 0.29390
vt 0.02818 0.67632
vt 0.11746 0.61275
vt 1.30982 0.74611
vt 1.02818 0.67632
vt 1.04006 0.30112
vt 1.39730 0.75666
# 76 vertex normals
vn -0.179878 0.983048 -0.0355006
vn 0.204724 0.976992 -0.0597827
vn 0.0999716 0.993591 -0.0527515
vn -0.751992 -0.656052 0.0640645
vn -0.752049 -0.655984 0.0640952
vn -0.714385 -0.696791 0.0643134
vn 0.0443758 0.0466571 0.997925
vn 0.044376 0.0465948 0.997928
vn 0.513445 0.855576 -0.0660635
vn 0.573159 0.816909 -0.0644065
vn 0.586639 0.807301 -0.064189
vn 0.676986 0.733175 -0.0643766
vn 0.574362 0.81612 -0.0636895
vn 0.841518 0.536792 -0.060845
vn 0.742919 0.666605 -0.0609073
vn 0.963575 0.260628 -0.0599695
vn 0.898649 0.434949 -0.0570015
vn 0.0443759 0.0466259 0.997926
vn 0.0444071 0.0465947 0.997926
vn 0.99502 -0.0861892 -0.0500635
vn 0.98758 0.145659 -0.0589073
vn -0.370261 0.928559 -0.026157
vn -0.7519 0.659272 0.00262509
vn -0.645576 0.763672 -0.00603138
vn 0.906383 -0.421785 -0.0238127
vn 0.962506 -0.269189 -0.0334689
vn 0.743265 -0.668951 -0.00787516
vn 0.862962 -0.504889 -0.0195943
vn 0.044407 0.0466882 0.997922
vn 0.0443451 0.0464389 0.997936
vn 0.0444069 0.0467194 0.99792
vn 0.505229 -0.862862 0.0145628
vn 0.620357 -0.784298 0.00578137
vn 0.292507 -0.95574 0.0316257
vn 0.4227 -0.905965 0.0235007
vn 0.0870633 -0.99529 0.0426254
vn 0.224814 -0.973755 0.0355002
vn -0.122407 -0.99113 0.0517503
vn 0.0169691 -0.998802 0.0459072
vn -0.326445 -0.943398 0.0585952
vn -0.19172 -0.979946 0.0543129
vn -0.515977 -0.854294 0.0628447
vn -0.391814 -0.918066 0.0603127
vn -0.686355 -0.724418 0.0643135
vn -0.574583 -0.815967 0.0636585
vn -0.739011 -0.670635 0.0641259
vn 0.77717 -0.629168 -0.0124377
vn 0.997458 -0.051501 -0.049251
vn 0.842094 0.535989 -0.0599398
vn 0.832555 0.550391 -0.0626268
vn 0.844179 0.53242 -0.0623767
vn 0.044376 0.0465636 0.997929
vn 0.7771 0.626411 -0.0610317
vn 0.0443446 0.0466572 0.997926
vn 0.0443447 0.046626 0.997928
vn 0.446947 0.892081 -0.0665639
vn 0.711115 0.700427 -0.0609706
vn 0.686514 0.724484 -0.0618138
vn -0.832781 0.55349 0.0111567
vn 0.0444071 0.0466259 0.997925
vn 0.431633 0.899736 -0.0645637
vn -0.0444698 -0.0464386 -0.997931
vn -0.0444698 -0.0464698 -0.997929
vn -0.0444072 -0.0465635 -0.997928
vn 0.0444384 0.0465634 0.997926
vn -0.0443448 -0.0465948 -0.997929
vn -0.0443759 -0.0466259 -0.997926
vn -0.044376 -0.0465948 -0.997928
vn -0.0443447 -0.046626 -0.997928
vn -0.0444071 -0.0465947 -0.997926
vn -0.0443758 -0.0466571 -0.997925
vn -0.0443446 -0.0466884 -0.997925
vn -0.044376 -0.0465636 -0.997929
vn -0.0442201 -0.0465639 -0.997936
vn -0.832767 0.553511 0.0111565
vn -0.0441563 -0.0465626 -0.997939
# 150 facets
f 32/1/1 25/2/2 48/3/3
f 53/4/4 19/5/5 1/6/6
f 1/6/6 51/7/6 53/4/4
f 11/8/7 54/9/8 23/10/7
f 4/11/9 3/12/10 21/13/11
f 6/14/12 4/11/9 5/15/13
f 8/16/14 6/14/12 7/17/15
f 43/18/16 8/16/14 34/19/17
f 22/20/18 42/21/18 27/22/19
f 46/23/20 43/18/16 37/24/21
f 35/25/22 50/26/23 24/27/24
f 44/28/25 46/23/20 36/29/26
f 10/30/27 44/28/25 47/31/28
f 29/32/29 20/33/30 16/34/31
f 12/35/32 10/30/27 11/8/33
f 14/36/34 12/35/32 13/37/35
f 15/38/36 14/36/34 26/39/37
f 17/40/38 15/38/36 16/34/39
f 18/41/40 17/40/38 20/33/41
f 40/42/42 18/41/40 29/32/43
f 52/43/44 40/42/42 23/10/45
f 53/4/4 52/43/44 45/44/46
f 45/44/46 19/5/5 53/4/4
f 23/10/45 45/44/46 52/43/44
f 29/32/43 23/10/45 40/42/42
f 20/33/41 29/32/43 18/41/40
f 16/34/39 20/33/41 17/40/38
f 26/39/37 16/34/39 15/38/36
f 13/37/35 26/39/37 14/36/34
f 11/8/33 13/37/35 12/35/32
f 54/9/47 11/8/33 10/30/27
f 47/31/28 54/9/47 10/30/27
f 36/29/26 47/31/28 44/28/25
f 49/45/48 36/29/26 46/23/20
f 37/24/21 49/45/48 46/23/20
f 34/19/17 37/24/21 43/18/16
f 16/34/31 26/39/7 23/10/7
f 7/17/15 34/19/17 8/16/14
f 5/15/13 7/17/15 6/14/12
f 21/13/11 5/15/13 4/11/9
f 31/46/49 30/47/50 2/48/51
f 47/31/52 36/29/8 23/10/7
f 41/49/53 2/48/51 21/13/11
f 37/24/18 34/19/8 23/10/7
f 23/10/7 36/29/8 49/45/54
f 23/10/7 13/37/18 11/8/7
f 22/20/18 30/47/18 42/21/18
f 21/13/11 3/12/10 41/49/53
f 24/27/18 39/50/55 22/20/18
f 2/48/51 41/49/53 31/46/49
f 23/10/7 34/19/8 7/17/55
f 38/51/56 48/3/3 25/2/2
f 23/10/7 26/39/7 13/37/18
f 28/52/57 38/51/56 42/21/58
f 31/46/49 28/52/57 42/21/58
f 24/27/24 32/1/1 35/25/22
f 39/50/59 24/27/24 50/26/23
f 42/21/58 30/47/50 31/46/49
f 22/20/18 32/1/60 24/27/18
f 27/22/61 42/21/58 38/51/56
f 25/2/2 27/22/61 38/51/56
f 48/3/3 35/25/22 32/1/1
f 45/44/18 23/10/7 21/13/19
f 1/6/19 21/53/19 2/54/18
f 12/35/62 14/36/63 15/38/64
f 5/15/55 21/13/19 23/10/7
f 1/6/19 19/5/65 21/13/19
f 33/55/66 28/52/67 31/46/68
f 4/11/69 6/14/68 40/42/67
f 8/16/70 43/18/67 40/42/67
f 43/18/67 46/23/71 40/42/67
f 44/28/67 10/30/68 40/42/67
f 15/38/64 17/40/72 10/30/68
f 18/41/73 40/42/67 10/30/68
f 22/20/18 2/48/18 30/47/18
f 33/55/66 38/51/67 28/52/67
f 40/42/67 6/14/68 8/16/70
f 19/5/65 45/44/18 21/13/19
f 25/2/18 32/1/60 22/20/18
f 10/30/68 17/40/72 18/41/73
f 33/55/66 50/26/74 35/25/66
f 33/55/66 48/3/67 38/51/67
f 50/26/23 9/56/75 39/50/59
f 27/22/19 25/2/18 22/20/18
f 15/38/64 10/30/68 12/35/62
f 16/34/31 23/10/7 29/32/29
f 23/10/7 54/9/8 47/31/52
f 7/17/55 5/15/55 23/10/7
f 3/12/67 52/43/67 53/4/67
f 40/42/67 46/23/71 44/28/67
f 33/55/66 35/25/66 48/3/67
f 3/12/67 53/4/67 51/7/67
f 40/42/67 3/12/67 4/11/69
f 31/46/68 41/49/67 33/55/66
f 41/57/67 51/7/67 33/58/66
f 3/12/67 40/42/67 52/43/67
f 23/10/7 49/45/54 37/24/18
f 22/59/18 1/6/19 2/54/18
f 51/7/67 41/57/67 3/60/67
f 33/55/66 9/56/76 50/26/74
f 32/1/1 25/2/2 48/3/3
f 53/4/4 19/5/5 1/6/6
f 1/6/6 51/7/6 53/4/4
f 11/8/7 54/9/8 23/10/7
f 4/11/9 3/12/10 21/13/11
f 6/14/12 4/11/9 5/15/13
f 8/16/14 6/14/12 7/17/15
f 43/18/16 8/16/14 34/19/17
f 22/20/18 42/21/18 27/22/19
f 46/23/20 43/18/16 37/24/21
f 35/25/22 50/26/23 24/27/24
f 44/28/25 46/23/20 36/29/26
f 10/30/27 44/28/25 47/31/28
f 29/32/29 20/33/30 16/34/31
f 12/35/32 10/30/27 11/8/33
f 14/36/34 12/35/32 13/37/35
f 15/38/36 14/36/34 26/39/37
f 17/40/38 15/38/36 16/34/39
f 18/41/40 17/40/38 20/33/41
f 40/42/42 18/41/40 29/32/43
f 52/43/44 40/42/42 23/10/45
f 53/4/4 52/43/44 45/44/46
f 45/44/46 19/5/5 53/4/4
f 23/10/45 45/44/46 52/43/44
f 29/32/43 23/10/45 40/42/42
f 20/33/41 29/32/43 18/41/40
f 16/34/39 20/33/41 17/40/38
f 26/39/37 16/34/39 15/38/36
f 13/37/35 26/39/37 14/36/34
f 11/8/33 13/37/35 12/35/32
f 54/9/47 11/8/33 10/30/27
f 47/31/28 54/9/47 10/30/27
f 36/29/26 47/31/28 44/28/25
f 49/45/48 36/29/26 46/23/20
f 37/24/21 49/45/48 46/23/20
f 34/19/17 37/24/21 43/18/16
f 16/34/31 26/39/7 23/10/7
f 7/17/15 34/19/17 8/16/14
f 5/15/13 7/17/15 6/14/12
f 21/13/11 5/15/13 4/11/9
f 31/46/49 30/47/50 2/48/51
f 47/31/52 36/29/8 23/10/7
f 41/49/53 2/48/51 21/13/11
f 37/24/18 34/19/8 23/10/7
f 23/10/7 36/29/8 49/45/54
f 23/10/7 13/37/18 11/8/7
f 22/20/18 30/47/18 42/21/18
f 21/13/11 3/12/10 41/49/53
f 24/27/18 39/50/55 22/20/18
f 2/48/51 41/49/53 31/46/49
