# 160 vertices
v 44.7979 -9.25743 6.24396
v 32.6869 1.94922 2.5837
v 41.1281 1.10827 9.47109
v 45.0604 -9.00335 5.13457
v 33.3963 -3.59457 9.09763
v 33.5305 -3.2798 2.35634
v 32.719 -2.13039 2.39378
v 37.0794 -2.88393 2.44538
v 32.2836 0.912171 5.90656
v 33.7329 3.09033 9.41637
v 37.9823 -7.79675 5.61332
v 35.4713 4.09618 6.11861
v 34.6578 3.91734 2.7147
v 39.9766 -9.42836 8.9562
v 36.3349 4.0842 9.51463
v 39.4913 -8.91455 2.21177
v 39.8073 2.877 6.9928
v 37.4114 4.34718 2.78957
v 38.1867 3.78571 9.53757
v 37.7275 -2.67996 9.2265
v 39.7573 2.75897 9.52078
v 39.8906 3.07373 2.77951
v 36.1423 -4.86982 2.334
v 37.1007 -6.31259 9.0444
v 45.1805 -8.97143 9.08106
v 32.3507 1.06955 2.53587
v 40.1108 -9.11354 2.21482
v 45.3147 -8.6567 2.33967
v 35.6872 -4.9529 9.07975
v 32.2563 -0.801788 2.44665
v 39.1599 3.66968 2.79278
v 44.3654 -6.37219 9.18621
v 38.6813 -8.37701 2.2208
v 38.2538 3.94309 6.16688
v 37.9156 -7.95413 8.984
v 32.2053 0.138923 2.48948
v 43.5504 -3.77295 9.29136
v 39.074 -9.06836 8.95503
v 35.5384 4.25356 2.74796
v 37.2349 -5.99783 2.30307
v 38.3041 -8.47616 8.96727
v 44.9157 -9.30209 9.06032
v 44.7864 -9.12313 2.30746
v 44.5321 -9.48155 9.04432
v 36.4691 4.39896 2.77334
v 39.0257 3.35492 9.53407
v 34.1325 -4.18475 9.08466
v 32.1222 -1.11654 9.18794
v 39.8668 -9.16972 5.02348
v 32.2165 0.754793 9.27725
v 32.0711 -0.175836 9.23087
v 38.4055 1.53481 2.67808
v 41.2623 1.42303 2.72971
v 32.8 -2.86429 9.11987
v 37.9366 1.78476 2.68043
v 45.0023 -9.01033 4.11226
v 36.8967 -2.73495 2.4487
v 32.7595 -2.49734 5.75682
v 42.1417 -4.81824 9.21452
v 36.1828 -0.6301 2.53279
v 33.7555 2.10352 2.61211
v 39.8516 -9.10224 3.89987
v 45.054 -9.09875 7.66451
v 34.2667 -3.87 2.34337
v 33.1334 2.58193 6.00139
v 38.3209 4.10047 2.79619
v 45.2812 -8.73538 4.02502
v 34.9378 -1.54243 2.46545
v 34.5236 3.60259 9.45609
v 33.7995 3.24771 6.04574
v 39.3423 -0.936789 2.58132
v 38.4927 -8.42659 5.59404
v 39.4207 -9.0118 5.02197
v 45.1923 -8.8954 6.26869
v 38.485 0.0948986 2.61244
v 33.2005 2.73931 2.63075
v 35.9147 -4.91136 5.70687
v 44.8088 -9.30219 7.65014
v 39.3769 -9.04573 6.14597
v 41.8242 -6.63438 9.12338
v 37.1678 -6.15521 5.67374
v 44.7604 -9.23508 5.11782
v 39.5924 -9.09095 5.58493
v 44.9283 -9.11996 5.12652
v 41.2835 -5.62387 9.15981
v 38.4432 -8.30957 5.03532
v 37.087 -1.14506 2.52672
v 33.0663 2.42455 9.37204
v 32.1893 -0.959164 5.8173
v 44.8834 -9.25735 7.37211
v 41.7688 -9.25154 4.77588
v 43.8917 -5.15523 9.2336
v 41.2797 -9.11594 2.23798
v 40.733 -5.86354 9.13768
v 39.0844 3.49263 6.58476
v 35.9988 -0.48255 2.53603
v 43.6846 -3.45819 2.54998
v 32.5443 -2.0782 5.77207
v 39.3348 -8.97223 4.74049
v 41.7565 -5.32062 2.42466
v 45.1261 -8.97807 6.26351
v 38.0243 0.0122299 2.59941
v 36.917 2.19478 9.43795
v 33.4802 -3.39784 4.88432
v 45.137 -8.97674 6.82702
v 44.702 -9.3023 6.23996
v 45.2476 -8.81406 5.71037
v 44.5957 -9.39194 7.36011
v 32.155 0.0208884 5.0175
v 44.7447 -9.30226 6.80403
v 37.6511 -0.60007 2.56339
v 44.7228 -9.21273 3.99168
v 44.8187 -9.16787 3.99568
v 34.6242 3.83865 4.40005
v 39.5587 -9.03215 4.46054
v 35.6524 -1.16004 2.4975
v 36.402 4.24158 6.14399
v 35.4042 3.93879 9.48925
v 32.3696 -2.02601 9.15037
v 39.1783 -9.02991 7.26922
v 32.5536 1.63447 9.32497
v 45.0175 -8.91907 2.32155
v 45.0154 -9.14074 7.38016
v 44.6592 -9.30234 5.67589
v 37.3443 4.1898 6.16026
v 41.1318 -4.72531 9.19875
v 44.9719 -9.13035 6.25334
v 33.4999 2.99351 4.33824
v 40.0269 -9.3103 6.42818
v 38.3976 0.62453 2.63543
v 44.1744 -6.00787 9.19942
v 34.3292 -0.680372 2.49353
v 42.2388 -4.94875 9.21034
v 36.3452 0.19494 2.57456
v 37.2772 4.03241 9.53096
v 34.1996 -4.02738 5.71402
v 38.6835 1.76646 2.69444
v 38.2132 -3.14821 2.45559
v 32.6203 1.79184 5.95434
v 35.7408 -0.192615 2.54443
v 38.587 -8.4018 3.90742
v 37.5118 0.319851 2.60357
v 45.215 -8.81805 4.01983
v 36.9677 0.651105 2.60823
v 41.1952 1.26565 6.1004
v 45.2141 -8.89275 7.39571
v 37.5519 -1.43585 2.52239
v 36.1017 -1.04262 2.5119
v 37.7526 1.93231 2.68367
v 37.9899 -1.9039 2.50925
v 42.3392 -1.33234 9.38123
v 38.7398 0.831002 9.41052
v 45.2036 -8.85673 5.14426
v 35.3558 -2.29983 9.19701
v 38.0489 -7.63938 2.24264
v 38.207 -0.136757 2.59609
v 40.0773 -9.19224 3.90016
v 44.8511 -9.21261 5.68389
v 37.4223 -3.29661 2.43293
v 45.1152 -8.97939 5.7
# 172 texture coordinates
vt 0.84372 0.68226
vt 0.78564 0.65561
vt 0.84203 0.47968
vt 0.71025 0.69822
vt 0.66962 0.71175
vt 0.66789 0.67447
vt 0.60739 0.69534
vt 0.57174 0.70328
vt 0.63946 0.67129
vt 0.58659 0.68386
vt 0.56471 0.68667
vt 0.13232 0.55793
vt 0.13482 0.50110
vt 0.18610 0.55602
vt 0.22172 0.53463
vt 0.21933 0.47559
vt 0.22835 0.50834
vt 0.49552 0.74125
vt 0.51100 0.72976
vt 0.54892 0.68485
vt 0.62063 0.67179
vt 0.59267 0.67923
vt 0.48100 0.73458
vt 0.54420 0.71496
vt 0.61279 0.69783
vt 0.64304 0.68739
vt 0.52367 0.32271
vt 0.69163 0.33622
vt 0.59406 0.36921
vt 0.12535 0.38642
vt 0.08270 0.34377
vt 0.14244 0.33565
vt 0.13269 0.38794
vt 0.13197 0.44464
vt 0.12892 0.48203
vt 0.13125 0.50135
vt 0.12895 0.51992
vt 0.12633 0.55382
vt 0.12888 0.44414
vt 0.12586 0.51941
vt 0.12981 0.61476
vt 0.12441 0.61388
vt 0.30982 0.74611
vt 0.23941 0.72866
vt 0.26699 0.69739
vt 0.02818 0.67632
vt 0.13053 0.55805
vt 0.11746 0.61275
vt 0.12127 0.55655
vt 0.12507 0.50034
vt 0.51215 0.51704
vt 0.53825 0.51155
vt 0.51133 0.67663
vt 0.70246 0.63084
vt 0.62322 0.64051
vt 0.66276 0.62996
vt 0.69233 0.65872
vt 0.12228 0.51876
vt 0.12517 0.46237
vt 0.12512 0.48136
vt 0.62330 0.63460
vt 0.75616 0.32346
vt 0.71390 0.34382
vt 0.13733 0.44428
vt 0.13447 0.48224
vt 0.71827 0.48877
vt 0.72263 0.63371
vt 0.26278 0.34813
vt 0.22262 0.36665
vt 0.31690 0.29390
vt 0.55193 0.70548
vt 0.61909 0.68442
vt 0.13984 0.38745
vt 0.65344 0.36232
vt 0.61386 0.36819
vt 0.68842 0.67174
vt 0.23339 0.54997
vt 0.22814 0.56031
vt 0.23171 0.53610
vt 0.73472 0.33461
vt 0.10927 0.29931
vt 0.24769 0.29571
vt 0.24762 0.67848
vt 0.13230 0.67339
vt 0.60349 0.63883
vt 0.58354 0.64438
vt 0.21605 0.58454
vt 0.57451 0.66889
vt 0.63332 0.69510
vt 0.59878 0.50402
vt 0.61858 0.50139
vt 0.68255 0.62966
vt 0.67796 0.49358
vt 0.69797 0.49111
vt 0.55408 0.36692
vt 0.53371 0.36324
vt 0.45288 0.71644
vt 0.38719 0.52361
vt 0.44953 0.51945
vt 0.39494 0.28632
vt 0.44618 0.32246
vt 0.09886 0.31006
vt 0.15767 0.31899
vt 0.13546 0.31836
vt 0.47432 0.56285
vt 0.50148 0.51288
vt 0.84033 0.27710
vt 0.78117 0.43957
vt 0.56956 0.68990
vt 0.22111 0.58276
vt 0.13250 0.52015
vt 0.51003 0.72217
vt 0.22771 0.66424
vt 0.46950 0.33773
vt 0.60241 0.67260
vt 0.04006 0.30112
vt 1.04006 0.30112
vt 0.94019 0.28911
vt 1.17848 0.29751
vt 0.27528 0.33687
vt 0.27113 0.51713
vt 0.25520 0.51330
vt 0.11943 0.55617
vt 0.06322 0.32282
vt 0.12799 0.43446
vt 0.37945 0.76091
vt 0.12329 0.48098
vt 0.13358 0.43509
vt 0.13411 0.46338
vt 0.56080 0.72259
vt 0.74309 0.63853
vt 0.73890 0.48657
vt 0.75961 0.46442
vt 0.68625 0.66335
vt 0.55987 0.54469
vt 0.57885 0.50661
vt 0.09574 0.31287
vt 0.23366 0.48501
vt 0.68260 0.30404
vt 0.77848 0.30995
vt 0.31336 0.52000
vt 0.49163 0.34913
vt 0.51296 0.35744
vt 0.44330 0.73015
vt 0.76404 0.64566
vt 0.54280 0.65986
vt 1.39494 0.28632
vt 1.37543 0.28821
vt 1.25629 0.28401
vt 0.13268 0.48237
vt 0.63081 0.56659
vt 0.50629 0.28401
vt 0.69347 0.35139
vt 0.67336 0.35751
vt 0.23906 0.43570
vt 0.97898 0.27940
vt 0.24285 0.35952
vt 0.47560 0.73210
vt 0.12338 0.44300
vt 0.12140 0.49958
vt 0.21386 0.65717
vt 0.07713 0.33698
vt 0.63832 0.49875
vt 0.66043 0.56305
vt 0.19285 0.64657
vt 0.57415 0.36884
vt 0.47721 0.69792
vt 0.63363 0.36588
vt 0.56335 0.65135
vt 0.25654 0.53849
vt 0.25141 0.59589
vt 0.37543 0.28821
# 218 vertex normals
vn -0.768997 -0.637661 -0.0450813
vn -0.726325 -0.685783 -0.0464162
vn -0.769074 -0.63757 -0.0450441
vn -0.0198684 -0.0466363 0.998714
vn -0.0198238 -0.0466163 0.998716
vn -0.0198685 -0.0466356 0.998714
vn -0.019881 -0.04663 0.998714
vn -0.0198913 -0.0466264 0.998714
vn -0.0198808 -0.04663 0.998714
vn -0.0198179 -0.0466676 0.998714
vn -0.0198175 -0.0466681 0.998714
vn -0.0198175 -0.0466684 0.998714
vn 0.00099474 0.998585 0.053165
vn 0.00099482 0.998585 0.0531653
vn 0.00440177 0.998713 0.0505347
vn 0.369935 0.927674 0.0506867
vn 0.166638 0.984752 0.0499615
vn 0.34369 0.937851 0.0480879
vn -0.019869 -0.0466358 0.998714
vn -0.0198724 -0.0466331 0.998714
vn -0.0198535 -0.046639 0.998714
vn -0.0198659 -0.0466288 0.998715
vn -0.019818 -0.0466676 0.998714
vn -0.0198807 -0.0466313 0.998714
vn -0.0198909 -0.0466265 0.998714
vn -0.0198906 -0.0466266 0.998714
vn -0.0198907 -0.0466266 0.998714
vn 0.0198704 0.0466288 -0.998715
vn 0.0198688 0.0466402 -0.998714
vn 0.019762 0.0466516 -0.998716
vn 0.0199011 0.046664 -0.998712
vn 0.0199059 0.046639 -0.998713
vn 0.0198761 0.0466363 -0.998714
vn -0.633968 0.772904 0.0265493
vn -0.549223 0.835038 0.0326454
vn -0.662619 0.748251 0.0325161
vn -0.54921 0.835046 0.0326468
vn -0.662606 0.748262 0.032518
vn -0.66261 0.748258 0.0325174
vn -0.724446 0.688942 0.0231498
vn -0.662617 0.748252 0.0325164
vn -0.549219 0.835041 0.0326457
vn -0.662609 0.748259 0.0325172
vn -0.0198731 -0.046629 0.998715
vn -0.019872 -0.0466296 0.998715
vn -0.0198767 -0.0466171 0.998715
vn -0.0198373 -0.0466151 0.998716
vn -0.0197506 -0.0465972 0.998718
vn -0.549222 0.835039 0.0326468
vn -0.724447 0.688941 0.0231497
vn -0.724446 0.688943 0.0231498
vn -0.72445 0.688939 0.0231491
vn 0.927011 0.37287 0.0402333
vn 0.982653 0.183002 0.0300522
vn 0.889878 0.454119 0.0435202
vn -0.0198715 -0.0465035 0.99872
vn -0.0198887 -0.0466212 0.998715
vn -0.0199256 -0.0465544 0.998717
vn -0.0198472 -0.0466451 0.998714
vn -0.780889 0.624521 0.013612
vn -0.78089 0.62452 0.0136112
vn -0.780897 0.624512 0.0136112
vn -0.0196781 -0.0467234 0.998714
vn 0.0199044 0.0467747 -0.998707
vn 0.019919 0.0467588 -0.998708
vn -0.424615 0.904804 0.0321095
vn -0.424592 0.904815 0.0321114
vn -0.424615 0.904805 0.0321097
vn 0.0158702 -0.998801 -0.0463197
vn -0.143537 -0.988431 -0.0490089
vn -0.193026 -0.979939 -0.0495976
vn 0.0196354 0.0464441 -0.998728
vn 0.0198784 0.0465813 -0.998717
vn 0.0197881 0.0465916 -0.998718
vn -0.0198699 -0.0466339 0.998714
vn -0.0198696 -0.0466341 0.998714
vn 0.0198852 0.0466508 -0.998713
vn 0.0198568 0.0466166 -0.998715
vn 0.0199625 0.0464834 -0.99872
vn 0.0199759 0.0465224 -0.998717
vn -0.0198914 -0.0466264 0.998714
vn 0.461981 0.885702 0.0458849
vn 0.305387 0.951362 0.0405983
vn 0.305385 0.951363 0.0405981
vn -0.360715 -0.931299 -0.0506643
vn -0.15843 -0.986144 -0.049199
vn 0.00555891 0.998712 0.0504274
vn 0.00885499 0.998704 0.0501244
vn 0.0198813 0.0466272 -0.998714
vn 0.0198842 0.0466261 -0.998714
vn -0.0198554 -0.0466371 0.998715
vn -0.0193046 -0.0469244 0.998712
vn -0.0196735 -0.0467474 0.998713
vn 0.193617 0.979822 0.0496118
vn -0.0198998 -0.0466132 0.998715
vn -0.0198798 -0.0466317 0.998714
vn 0.891298 -0.453405 -0.00348587
vn 0.754882 -0.655674 -0.0156107
vn 0.760453 -0.649347 -0.00778732
vn 0.257924 -0.965339 -0.0399386
vn 0.278199 -0.95972 -0.0392734
vn 0.0859981 -0.995289 -0.04476
vn 0.998537 -0.0511657 0.0174856
vn 0.977928 0.206168 0.033944
vn 0.547159 0.835656 0.0479143
vn 0.567731 0.821717 0.0496271
vn 0.560937 0.826363 0.0497499
vn 0.5746 0.816977 0.0488271
vn 0.511042 0.858271 0.0469847
vn 0.0198416 0.046676 -0.998713
vn 0.0198587 0.046653 -0.998714
vn 0.01982 0.0466948 -0.998713
vn 0.722629 0.689536 0.0484607
vn 0.835016 0.548181 0.0473967
vn -0.769164 -0.637463 -0.045024
vn -0.693715 -0.718694 -0.0473128
vn -0.0198464 -0.0466494 0.998714
vn 0.337865 0.940086 0.0456702
vn -0.424637 0.904794 0.0321094
vn 0.391081 0.919247 0.0451692
vn 0.711079 0.70129 0.0505774
vn -0.0198997 -0.0466092 0.998715
vn 0.0198782 0.0466651 -0.998713
vn 0.0198881 0.0466352 -0.998714
vn 0.828557 0.558032 0.0457663
vn 0.829598 0.556488 0.0457032
vn 0.695018 0.717095 0.0521906
vn -0.780906 0.624501 0.0136108
vn 0.0199041 0.0466444 -0.998713
vn -0.780897 0.624512 0.0136114
vn -0.0198746 -0.046633 0.998714
vn -0.0198351 -0.0466564 0.998714
vn -0.780898 0.624511 0.0136108
vn -0.424631 0.904797 0.032109
vn -0.424629 0.904798 0.0321085
vn -0.0198659 -0.0466383 0.998714
vn -0.393191 -0.918058 -0.0506924
vn -0.341011 -0.938696 -0.0506172
vn -0.517261 -0.854355 -0.050188
vn -0.0198385 -0.0466543 0.998714
vn 0.998536 -0.0511894 0.0174853
vn 0.971417 -0.237236 0.00826151
vn 0.01985 0.0466698 -0.998713
vn 0.322135 0.945663 0.0441663
vn 0.0198827 0.046628 -0.998714
vn 0.0198829 0.0466212 -0.998715
vn 0.808572 0.586632 0.0455462
vn 0.812854 0.58074 0.0448225
vn 0.855256 0.516159 0.0460198
vn 0.932043 0.35983 0.0426399
vn -0.0198542 -0.046625 0.998715
vn 0.0191302 0.0462453 -0.998747
vn 0.988951 0.145856 0.0264874
vn -0.575879 -0.816032 -0.0495376
vn -0.0197258 -0.0459201 0.99875
vn -0.0197729 -0.0462136 0.998736
vn 0.0198857 0.0466288 -0.998714
vn -0.424636 0.904795 0.0321094
vn 0.534565 -0.844916 -0.0189058
vn 0.650498 -0.759457 -0.00879072
vn -0.703596 -0.709043 -0.047019
vn 0.0158721 -0.998801 -0.0463197
vn 0.223881 -0.973753 -0.0410102
vn 0.420603 0.906042 0.0466948
vn 0.0195342 0.0463668 -0.998733
vn 0.0197408 0.0465406 -0.998721
vn 0.0197698 0.0465586 -0.99872
vn 0.0199141 0.0466286 -0.998714
vn 0.471791 0.880426 0.0475729
vn 0.698961 0.713427 0.0497471
vn -0.0198804 -0.0466302 0.998714
vn -0.780904 0.624503 0.0136096
vn -0.780926 0.624475 0.0136086
vn -0.0198705 -0.0466242 0.998715
vn 0.230083 0.972 0.0477251
vn -0.0197508 -0.0465973 0.998718
vn 0.0199178 0.0466435 -0.998713
vn 0.623681 -0.78151 -0.0162639
vn 0.47392 -0.88021 -0.0250923
vn 0.0198501 0.0466468 -0.998714
vn 0.966239 -0.257548 0.00717852
vn -0.0198675 -0.0466274 0.998715
vn -0.0198848 -0.046616 0.998715
vn 0.956537 -0.291562 0.00538706
vn 0.891289 -0.453423 -0.00354611
vn -0.0198814 -0.0466162 0.998715
vn 0.637289 0.769065 0.0490025
vn 0.728197 0.683794 0.0464242
vn 0.453514 -0.890654 -0.0325759
vn 0.020052 0.0471669 -0.998686
vn 0.656243 -0.754223 -0.0222085
vn -0.424603 0.90481 0.0321108
vn 0.998535 -0.0512046 0.0174863
vn 0.0198906 0.0470047 -0.998697
vn 0.0199081 0.0466604 -0.998712
vn 0.787787 0.613493 0.0549322
vn -0.0199141 -0.0466012 0.998715
vn -0.019921 -0.0466199 0.998714
vn 0.00099474 0.998585 0.0531648
vn 0.85605 0.515263 0.0410249
vn 0.697024 0.715338 0.0494846
vn 0.0195747 0.0466962 -0.998717
vn 0.0197718 0.0466465 -0.998716
vn 0.81672 0.575421 0.0431256
vn -0.0198782 -0.0466325 0.998714
vn 0.71247 0.69991 0.0501207
vn -0.0199721 -0.0464876 0.998719
vn -0.7809 0.624508 0.0136098
vn -0.0198836 -0.0465955 0.998716
vn 0.0194042 0.0467417 -0.998719
vn 0.276133 0.959785 0.0506221
vn -0.576043 -0.815917 -0.0495354
vn 0.0201714 0.0463033 -0.998724
vn 0.798937 -0.601291 -0.0122077
vn 0.00099482 0.998585 0.0531649
vn 0.89131 -0.453381 -0.00354374
vn -0.424628 0.904799 0.0321089
vn 0.0197863 0.0463651 -0.998729
# 306 facets
f 145/3/3 22/2/2 53/1/1
f 71/5/6 97/4/5 53/1/4
f 111/8/9 102/7/8 52/6/7
f 116/11/12 60/10/11 144/9/10
f 91/14/15 124/13/14 112/12/13
f 83/17/18 129/16/17 49/15/16
f 138/19/20 71/5/6 159/18/19
f 96/22/23 134/21/22 68/20/21
f 156/25/26 147/24/25 8/23/24
f 156/25/26 130/26/27 147/24/25
f 121/29/30 103/28/29 154/27/28
f 80/32/33 32/31/32 25/30/31
f 127/35/36 90/34/35 42/33/34
f 84/37/38 158/36/37 90/34/35
f 56/38/39 84/37/38 127/35/36
f 4/40/41 127/35/36 123/39/40
f 56/38/39 122/42/43 43/41/42
f 155/45/46 100/44/45 40/43/44
f 122/42/48 97/46/5 43/41/47
f 84/37/38 56/38/39 113/47/49
f 56/38/39 143/49/51 28/48/50
f 4/40/41 160/50/52 143/49/51
f 7/53/55 89/52/54 98/51/53
f 13/56/58 61/55/57 45/54/56
f 134/21/22 96/22/23 149/57/59
f 101/60/62 105/59/61 153/58/60
f 13/56/58 76/61/63 61/55/57
f 103/28/29 135/63/65 46/62/64
f 106/65/68 124/13/67 108/64/66
f 18/67/71 125/66/70 45/54/69
f 143/49/51 153/58/60 28/48/50
f 24/70/74 14/69/73 41/68/72
f 142/72/76 87/71/75 52/6/7
f 44/73/78 80/32/33 42/33/77
f 88/75/80 69/74/79 103/28/29
f 102/7/8 137/76/81 52/6/7
f 73/79/84 115/78/83 99/77/82
f 135/63/86 125/66/70 19/80/85
f 129/16/17 44/73/88 108/64/87
f 20/82/90 126/81/89 24/70/74
f 96/22/23 116/11/12 144/9/10
f 100/84/45 155/45/46 33/83/91
f 26/86/93 76/61/63 2/85/92
f 49/15/16 129/16/17 157/87/94
f 61/55/57 132/88/95 45/54/56
f 130/26/27 156/25/26 75/89/96
f 76/61/99 65/91/98 139/90/97
f 129/16/17 91/14/15 157/87/94
f 117/94/102 12/93/101 39/92/100
f 48/96/104 89/52/54 51/95/103
f 130/26/27 75/89/96 137/76/81
f 136/99/107 77/98/106 64/97/105
f 77/98/106 47/101/109 29/100/108
f 85/104/112 94/103/111 59/102/110
f 58/106/114 104/105/113 7/53/55
f 17/108/116 145/3/3 3/107/115
f 148/109/117 87/71/75 142/72/76
f 115/78/83 83/17/18 62/110/118
f 82/111/119 113/47/49 43/41/42
f 138/19/20 100/112/45 71/5/6
f 99/77/82 115/78/83 16/113/120
f 98/51/53 58/106/114 7/53/55
f 5/114/121 136/99/107 104/105/113
f 140/115/122 132/88/95 68/20/21
f 85/104/112 59/102/110 37/116/123
f 126/119/89 151/118/124 37/117/123
f 72/122/127 11/121/126 35/120/125
f 136/99/107 5/114/121 47/101/109
f 153/58/60 67/123/128 28/48/50
f 92/124/129 80/32/33 37/116/123
f 103/28/29 69/74/79 135/63/65
f 116/11/12 96/22/23 68/20/21
f 63/125/130 123/39/40 42/33/34
f 148/109/117 64/97/132 23/126/131
f 153/58/60 74/127/133 67/123/128
f 110/129/135 108/64/66 78/128/134
f 159/18/19 150/130/136 23/126/131
f 106/65/68 110/129/135 82/111/119
f 95/133/139 34/132/138 66/131/137
f 148/109/117 142/72/76 55/134/140
f 101/60/62 160/50/52 123/39/40
f 9/136/142 51/95/103 109/135/141
f 102/7/8 130/26/27 137/76/81
f 80/32/33 133/137/143 37/116/123
f 83/17/18 115/78/83 79/138/144
f 21/140/146 152/139/145 46/62/64
f 81/141/148 77/98/106 24/70/147
f 116/11/12 68/20/21 148/109/117
f 98/51/53 119/143/150 54/142/149
f 100/144/45 138/19/20 40/43/44
f 24/70/74 80/32/33 14/69/73
f 52/6/7 137/76/81 31/145/151
f 80/32/33 44/73/78 14/69/73
f 83/17/18 49/15/16 62/110/118
f 24/70/74 41/68/72 35/120/152
f 89/52/54 7/53/55 30/146/153
f 150/130/136 75/89/96 8/23/24
f 19/80/85 95/133/139 46/62/154
f 45/54/56 66/131/156 18/67/155
f 20/149/90 24/148/74 29/147/157
f 1/150/158 110/129/135 78/128/134
f 148/109/117 68/20/21 64/97/132
f 128/151/160 76/61/99 13/56/159
f 94/103/111 80/32/33 24/70/74
f 21/140/161 17/108/116 3/107/115
f 152/139/145 20/152/90 154/27/28
f 118/154/163 117/94/102 15/153/162
f 79/138/144 73/79/84 120/155/164
f 119/143/167 5/114/166 54/142/165
f 115/78/83 73/79/84 79/138/144
f 151/118/124 152/156/145 3/107/168
f 79/138/144 120/155/164 38/157/169
f 99/77/82 16/113/120 33/83/170
f 102/7/8 111/8/9 57/158/171
f 107/160/173 74/127/133 146/159/172
f 132/88/95 61/55/57 7/53/174
f 122/42/43 56/38/39 28/48/50
f 115/78/83 62/110/118 27/161/175
f 147/24/25 102/7/8 57/158/171
f 88/75/80 103/28/29 121/29/30
f 133/137/143 85/104/112 37/116/123
f 126/119/89 20/149/90 151/118/124
f 154/27/28 20/152/90 29/100/157
f 110/129/135 106/65/68 108/64/66
f 97/46/5 122/42/48 28/48/176
f 49/15/16 157/87/94 27/161/175
f 11/121/126 24/70/147 35/120/125
f 144/9/10 55/134/140 31/145/151
f 131/162/177 80/32/33 92/124/129
f 58/106/114 98/51/53 54/142/149
f 55/134/140 142/72/76 31/145/151
f 114/164/179 70/163/178 128/151/160
f 4/40/41 56/38/39 127/35/36
f 47/101/180 154/27/28 29/100/157
f 139/90/97 9/136/142 26/86/181
f 93/165/183 100/84/45 16/113/182
f 139/90/97 121/29/185 50/166/184
f 6/167/186 132/88/95 7/53/174
f 1/150/158 158/36/37 113/47/49
f 9/136/142 139/90/97 50/166/184
f 94/103/111 126/81/89 59/102/110
f 64/97/105 77/98/106 23/126/187
f 80/32/33 94/103/111 85/104/112
f 138/19/20 159/18/19 23/126/131
f 104/105/113 64/97/105 6/167/188
f 45/54/56 149/57/59 31/145/151
f 124/13/14 91/14/15 108/64/87
f 77/98/106 136/99/107 47/101/109
f 69/74/189 12/93/101 118/154/163
f 135/63/65 19/80/190 46/62/64
f 114/164/179 13/56/159 39/92/100
f 77/98/106 81/141/148 23/126/187
f 128/151/160 70/163/178 65/91/98
f 70/163/178 69/74/189 10/168/191
f 134/21/22 140/115/122 68/20/21
f 120/155/164 72/122/127 38/157/169
f 112/12/192 82/111/119 43/41/42
f 65/91/98 76/61/99 128/151/160
f 61/55/57 76/61/63 26/86/93
f 36/169/193 109/135/141 30/146/153
f 104/105/113 6/167/188 7/53/55
f 135/63/65 118/154/195 15/153/194
f 75/89/96 156/25/26 8/23/24
f 113/47/49 56/38/39 43/41/42
f 66/131/156 45/54/56 31/145/151
f 144/9/10 60/10/11 55/134/140
f 149/57/59 144/9/10 31/145/151
f 126/81/89 94/103/111 24/70/74
f 114/164/179 128/151/160 13/56/159
f 66/131/137 34/132/138 18/67/71
f 11/121/126 86/170/196 33/83/170
f 61/55/57 36/169/198 30/146/197
f 91/14/15 112/12/13 43/41/199
f 119/143/167 154/27/28 5/114/166
f 16/113/120 115/78/83 27/161/175
f 51/95/103 9/136/142 50/166/184
f 81/141/148 11/121/126 155/45/200
f 86/170/196 72/122/127 141/171/201
f 70/163/178 114/164/179 69/74/189
f 121/29/30 48/96/203 51/95/202
f 146/159/172 105/59/61 63/125/130
f 96/22/23 144/9/10 149/57/59
f 32/31/32 131/162/177 37/116/123
f 127/35/36 84/37/38 90/34/35
f 81/141/148 155/45/200 40/43/204
f 98/51/53 89/52/54 48/96/104
f 11/121/126 72/122/127 86/170/196
f 91/14/15 129/16/17 108/64/87
f 137/76/81 22/2/205 31/145/151
f 41/68/206 72/122/127 35/120/125
f 100/84/45 93/165/183 43/41/47
f 82/111/119 1/150/158 113/47/49
f 12/93/101 114/164/179 39/92/100
f 13/56/58 45/54/56 39/92/207
f 25/30/208 63/125/130 42/33/34
f 32/31/32 80/32/33 131/162/177
f 131/162/177 92/124/129 37/116/123
f 118/154/195 135/63/65 69/74/79
f 93/165/183 16/113/182 27/161/209
f 147/24/25 57/158/171 23/126/131
f 103/28/29 152/139/145 154/27/28
f 152/139/145 103/28/29 46/62/64
f 12/93/101 117/94/102 118/154/163
f 119/143/167 121/29/30 154/27/28
f 125/66/70 117/94/102 45/54/69
f 50/166/210 121/29/30 51/95/202
f 60/10/11 116/11/12 148/109/117
f 109/135/141 89/52/54 30/146/153
f 125/66/70 135/63/86 15/153/162
f 105/59/61 74/127/133 153/58/60
f 160/50/52 101/60/62 143/49/51
f 117/94/102 125/66/70 15/153/162
f 72/122/127 41/68/206 38/157/169
f 24/172/147 77/98/106 29/100/108
f 104/105/113 58/106/114 5/114/121
f 14/69/211 79/138/144 38/157/169
f 34/132/138 125/66/70 18/67/71
f 63/125/130 101/60/62 123/39/40
f 123/39/40 127/35/36 42/33/34
f 121/29/30 119/143/167 48/96/203
f 59/102/110 126/81/89 37/116/123
f 129/16/17 83/17/18 14/69/211
f 152/139/145 21/140/146 3/107/168
f 60/10/11 148/109/117 55/134/140
f 16/113/182 100/84/45 33/83/91
f 158/36/37 84/37/38 113/47/49
f 62/110/118 49/15/16 27/161/175
f 101/60/62 153/58/60 143/49/51
f 73/79/84 99/77/82 120/155/164
f 36/169/198 61/55/57 26/86/93
f 157/87/94 91/14/15 27/161/175
f 80/32/33 85/104/112 133/137/143
f 22/2/2 17/108/116 31/145/212
f 69/74/79 88/75/80 10/168/213
f 8/23/24 147/24/25 23/126/131
f 34/132/138 95/133/139 19/80/85
f 64/97/132 68/20/21 6/167/186
f 132/88/95 140/115/122 45/54/56
f 45/54/69 117/94/102 39/92/100
f 88/75/214 65/91/98 10/168/191
f 17/108/116 95/133/139 31/145/212
f 44/73/88 129/16/17 14/69/211
f 125/66/70 34/132/138 19/80/85
f 83/17/18 79/138/144 14/69/211
f 17/108/116 21/140/161 46/62/154
f 106/65/68 82/111/119 112/12/192
f 105/59/61 101/60/62 63/125/130
f 93/165/215 91/14/15 43/41/199
f 56/38/39 4/40/41 143/49/51
f 121/29/185 139/90/97 88/75/214
f 137/76/81 75/89/96 22/2/205
f 7/53/174 61/55/57 30/146/197
f 145/3/3 17/108/116 22/2/2
f 76/61/99 139/90/97 2/85/216
f 151/118/124 20/149/90 152/156/145
f 5/114/166 154/27/28 47/101/180
f 9/136/142 109/135/141 26/86/181
f 45/54/56 140/115/122 149/57/59
f 22/2/205 71/5/6 53/1/4
f 110/129/135 1/150/158 82/111/119
f 130/26/27 102/7/8 147/24/25
f 11/121/126 81/141/148 24/70/147
f 78/128/134 44/73/217 42/33/34
f 146/159/172 63/125/130 25/30/208
f 150/130/136 8/23/24 23/126/131
f 87/71/75 148/109/117 57/158/171
f 71/5/6 75/89/96 150/130/136
f 71/5/6 150/130/136 159/18/19
f 71/5/6 100/112/45 97/4/5
f 81/141/148 40/43/204 23/126/187
f 68/20/21 132/88/95 6/167/186
f 142/72/76 52/6/7 31/145/151
f 87/71/75 111/8/9 52/6/7
f 72/122/127 99/77/82 141/171/201
f 139/90/97 26/86/181 2/85/216
f 95/133/139 17/108/116 46/62/154
f 90/34/35 78/128/134 42/33/34
f 104/105/113 136/99/107 64/97/105
f 111/8/9 87/71/75 57/158/171
f 40/43/44 138/19/20 23/126/131
f 99/77/82 72/122/127 120/155/164
f 119/143/150 98/51/53 48/96/104
f 124/13/67 106/65/68 112/12/192
f 75/89/96 71/5/6 22/2/205
f 114/164/179 12/93/101 69/74/189
f 91/14/15 93/165/215 27/161/175
f 158/36/37 1/150/158 90/34/35
f 160/50/52 4/40/41 123/39/40
f 89/52/54 109/135/141 51/95/103
f 86/170/196 141/171/201 33/83/170
f 97/46/5 100/84/45 43/41/47
f 140/115/122 134/21/22 149/57/59
f 95/133/139 66/131/137 31/145/212
f 109/135/141 36/169/193 26/86/181
f 139/90/97 65/91/98 88/75/214
f 80/32/33 25/30/31 42/33/77
f 74/127/133 105/59/61 146/159/172
f 5/114/121 58/106/114 54/142/149
f 74/127/133 107/160/173 67/123/128
f 65/91/98 70/163/178 10/168/191
f 155/45/200 11/121/126 33/83/170
f 78/128/134 108/64/66 44/73/217
f 41/68/72 14/69/73 38/157/218
f 141/171/201 99/77/82 33/83/170
f 1/150/158 78/128/134 90/34/35
f 57/158/171 148/109/117 23/126/131

