# 132 vertices
v -21.3104 -13.3056 24.456
v -54.3765 -18.4475 12.7593
v -19.4876 -12.5052 -8.59438
v -18.4655 -12.4754 -4.95203
v -18.8229 -13.8416 21.9117
v -39.4845 -16.2421 18.8267
v -18.7405 -13.8581 21.6931
v -53.9075 -18.3933 12.6577
v -55.8137 -18.5679 13.5423
v -56.7286 -18.5249 14.7342
v -54.502 -18.462 12.7865
v -50.8565 -16.1062 21.2295
v -18.8439 -13.8374 21.9676
v -35.8045 -15.281 6.39378
v -53.7762 -18.3781 12.6293
v -56.9442 -17.8592 17.8348
v -16.8296 -12.6448 4.66206
v -33.5448 -14.7516 22.4158
v -54.1159 -18.4174 12.7029
v -19.3492 -13.7167 22.9469
v -51.089 -17.4319 17.981
v -39.8259 -15.5984 21.2174
v -18.6888 -13.8685 21.5558
v -44.5066 -16.875 10.509
v -26.7129 -14.6641 19.4008
v -19.4648 -13.6871 23.133
v -55.2576 -16.994 19.9045
v -44.798 -16.9277 10.6265
v -55.4118 -17.0418 19.8131
v -26.9309 -14.5329 21.2805
v -16.9402 -13.0849 12.1865
v -39.8163 -16.38 14.0381
v -27.2638 -13.9049 23.6142
v -45.6722 -17.0857 10.9788
v -40.0164 -15.0733 22.3757
v -55.4475 -17.0529 19.7919
v -57.1248 -18.0954 17.0436
v -35.924 -14.0477 23.9158
v -22.2069 -13.2576 24.6017
v -55.3021 -17.0078 19.8781
v -52.6209 -18.2111 12.4514
v -36.6976 -15.9804 15.1857
v -55.37 -17.0289 19.8379
v -20.7112 -13.3963 24.2037
v -56.3101 -18.5688 14.0708
v -24.8783 -14.4342 19.2002
v -55.5047 -18.5487 13.3195
v -44.0952 -16.8007 10.3432
v -19.5205 -12.5078 -8.66411
v -23.6171 -14.2337 18.5261
v -21.3653 -13.2113 7.76216
v -26.0613 -13.8276 7.57848
v -55.5788 -18.5284 13.5061
v -26.5605 -14.5967 17.8236
v -51.9408 -16.8809 19.7473
v -39.2104 -16.4136 16.5221
v -55.5929 -17.098 19.7058
v -21.769 -14.0968 19.6622
v -21.8653 -12.7513 -9.10886
v -42.5583 -16.5229 9.72362
v -18.7917 -13.8479 21.829
v -45.3808 -17.0331 10.8614
v -19.6195 -12.5156 -8.87331
v -27.0752 -14.3099 22.345
v -21.1434 -12.6675 -9.52097
v -20.5613 -12.6054 -9.52922
v -30.4521 -14.264 2.25418
v -20.0211 -12.5518 -9.29999
v -27.4268 -13.4284 24.5625
v -18.1871 -13.7663 19.6075
v -19.1478 -13.7679 22.6133
v -39.141 -15.9039 8.30802
v -19.7984 -12.5312 -9.10742
v -39.3644 -15.9455 8.43617
v -55.1956 -18.5295 13.0968
v -57.1296 -18.1438 16.8425
v -55.1467 -16.9596 19.9703
v -17.7195 -13.5107 16.8247
v -18.996 -13.8069 22.3711
v -42.8497 -16.5755 9.84109
v -22.0446 -12.7739 -8.87437
v -57.0117 -18.4305 15.4729
v -54.1699 -18.4236 12.7146
v -20.2789 -12.5768 -9.44272
v -48.9585 -17.7247 14.1128
v -43.2211 -16.6427 9.99078
v -45.2742 -15.1464 22.4943
v -17.8523 -12.4576 -2.76661
v -31.6291 -15.2886 16.5046
v -39.2666 -15.9273 8.38011
v -43.1811 -16.6354 9.97467
v -54.5098 -16.8086 20.2388
v -41.9355 -16.4103 9.47258
v -17.341 -12.5512 0.947725
v -42.5183 -16.5156 9.70751
v -20.848 -12.6353 -9.55497
v -18.7606 -13.8541 21.7464
v -55.1568 -16.9627 19.9642
v -47.3675 -15.5063 22.02
v -55.5234 -17.0764 19.747
v -20.038 -13.5411 23.7398
v -44.1352 -16.8079 10.3593
v -45.0894 -16.9804 10.7439
v -49.9863 -17.83 12.0455
v -40.9413 -16.2306 9.07184
v -56.186 -18.5686 13.9386
v -40.6499 -16.1779 8.95437
v -26.7738 -14.691 20.0301
v -33.819 -13.8503 24.165
v -55.3141 -17.0115 19.871
v -21.4226 -12.6989 -9.42667
v -54.7606 -16.8631 20.1446
v -55.6592 -18.5583 13.4309
v -55.9453 -18.5128 13.9873
v -55.0173 -16.9195 20.0469
v -38.6263 -15.8078 8.01276
v -39.4325 -14.3766 23.5006
v -53.9577 -18.3991 12.6686
v -56.5908 -17.5833 18.6051
v -43.6782 -16.7253 10.175
v -41.7498 -16.3767 9.39773
v -54.0368 -18.4083 12.6857
v -38.1117 -15.7117 7.7175
v -56.1977 -17.3585 19.1484
v -21.8814 -13.2615 24.5793
v -18.8535 -13.8355 21.993
v -25.9144 -13.4026 -2.69772
v -23.7386 -13.023 -5.85852
v -55.3501 -18.5391 13.2082
v -21.641 -12.7242 -9.30215
v -57.1442 -18.2889 16.2393
v -55.1181 -16.9508 19.9871
# 162 texture coordinates
vt 0.45832 0.59385
vt 0.45379 0.58727
vt 0.45219 0.58500
vt 0.99266 0.72063
vt 0.99498 0.74831
vt 0.99219 0.71716
vt 0.48132 0.67284
vt 0.48139 0.67349
vt 0.48125 0.67221
vt 0.97940 0.26218
vt 0.97950 0.26889
vt 0.97946 0.26601
vt 0.98540 0.49795
vt 1.11095 0.84922
vt 0.99620 0.74872
vt 0.97895 0.24253
vt 0.97891 0.24200
vt 0.97889 0.24231
vt 1.40688 0.89713
vt 1.22570 0.94971
vt 1.36158 0.91027
vt 0.45199 0.58461
vt 0.33280 0.82923
vt 0.44426 0.57349
vt 0.48126 0.67231
vt 0.48142 0.67372
vt 0.48158 0.67523
vt 0.98066 0.34787
vt 0.98355 0.50491
vt 0.98176 0.40282
vt 0.99141 0.71137
vt 0.99037 0.72315
vt 0.99124 0.71406
vt 0.99120 0.81533
vt 0.98415 0.83001
vt 0.98558 0.75709
vt 0.98933 0.73494
vt 0.98968 0.73174
vt 0.61276 0.90267
vt 0.78854 0.94251
vt 0.94591 0.94256
vt 0.48176 0.67694
vt 0.48181 0.67737
vt 0.48157 0.67513
vt 0.99014 0.72763
vt 0.99021 0.72693
vt 0.98257 0.77587
vt 0.47077 0.59527
vt 0.46960 0.58749
vt 0.46987 0.58837
vt 0.98287 0.45777
vt 0.98607 0.57451
vt 0.46890 0.58200
vt 0.46881 0.58075
vt 0.99117 0.71523
vt 0.99129 0.71331
vt 1.24631 0.21813
vt 1.24116 0.40103
vt 0.98902 0.64330
vt 0.98012 0.26750
vt 0.47875 0.70318
vt 0.48896 0.92688
vt 0.47145 0.68637
vt 0.99093 0.71914
vt 0.99103 0.71754
vt 0.99105 0.71715
vt 0.45972 0.59573
vt 0.46409 0.58658
vt 0.46262 0.63980
vt 0.46763 0.57563
vt 0.99760 0.78402
vt 1.42411 0.91230
vt 0.99498 0.80167
vt 0.46827 0.57758
vt 0.98649 0.28316
vt 0.97951 0.26985
vt 0.46724 0.57608
vt 0.46731 0.57600
vt 0.46702 0.57633
vt 0.46717 0.57615
vt 0.46622 0.57915
vt 1.22313 0.87697
vt 0.48198 0.67901
vt 0.48188 0.67851
vt 0.48174 0.67678
vt 0.42411 0.91230
vt 0.41980 0.90851
vt 0.44652 0.57678
vt 0.45289 0.58594
vt 0.49435 0.82755
vt 0.52624 0.94243
vt 0.48171 0.67650
vt 0.48148 0.67436
vt 0.48150 0.67454
vt 0.97911 0.24814
vt 0.97918 0.25115
vt 0.98023 0.31862
vt 0.46752 0.57574
vt 0.97903 0.25465
vt 0.43653 0.56237
vt 0.43606 0.56174
vt 0.44606 0.57615
vt 0.44129 0.56926
vt 0.46747 0.57580
vt 0.48102 0.67007
vt 0.48113 0.67113
vt 0.46899 0.58180
vt 0.47632 0.63662
vt 0.47949 0.65854
vt 0.48580 0.73449
vt 0.49115 0.79265
vt 0.46845 0.57863
vt 0.97899 0.24361
vt 0.44879 0.58007
vt 0.46444 0.86454
vt 1.46210 0.92393
vt 0.99720 0.77464
vt 0.46713 0.57620
vt 0.48194 0.67864
vt 0.45059 0.58272
vt 0.44332 0.57223
vt 0.42466 0.53977
vt 0.42699 0.54623
vt 0.23858 0.49247
vt 0.97926 0.25462
vt 0.97933 0.25834
vt 0.47470 0.62511
vt 0.47321 0.61419
vt 0.47432 0.62238
vt 0.48178 0.67707
vt 0.98299 0.77227
vt 0.98408 0.76534
vt 0.86035 0.85423
vt 0.97570 0.83978
vt 0.48144 0.67393
vt 0.48160 0.67543
vt 0.24631 0.21813
vt 0.33548 0.37895
vt 0.47193 0.60433
vt 0.99110 0.71640
vt 0.48166 0.67638
vt 0.48182 0.67821
vt 0.48191 0.67975
vt 0.48245 0.68556
vt 0.99079 0.68457
vt 0.48197 0.67892
vt 0.47791 0.64758
vt 0.48222 0.68229
vt 0.45785 0.59322
vt 0.46863 0.57969
vt 0.38007 0.45936
vt 0.98755 0.74624
vt 0.45925 0.59510
vt 0.42880 0.55125
vt 0.22570 0.94971
vt 0.45878 0.59447
vt 0.40688 0.89713
vt 0.46959 0.58611
vt 0.99025 0.72673
vt 1.46881 0.92467
vt 0.99074 0.72213
vt 0.97905 0.24554
# 195 vertex normals
vn -0.081305 0.96918 0.23255
vn -0.0973886 0.975806 0.195748
vn -0.0606643 0.958399 0.278912
vn -0.112345 0.991657 0.0632084
vn -0.11872 0.992054 0.0416377
vn -0.105692 0.992773 0.056847
vn -0.516092 0.687218 0.511254
vn -0.522222 0.6659 0.532787
vn -0.524388 0.657873 0.540573
vn -0.10064 0.994867 0.0105579
vn -0.104382 0.994444 0.0136452
vn -0.0994534 0.994994 0.00980767
vn -0.145817 0.987767 0.0552507
vn -0.147926 0.98781 0.048462
vn -0.129944 0.990261 0.0499714
vn -0.108758 0.993986 0.0128107
vn -0.109907 0.993873 0.0117143
vn -0.107288 0.994111 0.0152294
vn -0.135703 0.990749 0.000535822
vn -0.148897 0.987049 0.0597002
vn -0.149014 0.987062 0.0591892
vn -0.145677 0.986059 0.0804047
vn -0.110569 0.980114 0.164775
vn -0.532814 0.622257 0.573503
vn -0.113313 0.993002 0.0332816
vn -0.11113 0.992541 0.0501315
vn -0.0978771 0.994452 0.0385355
vn 0.256161 0.966348 0.0235122
vn 0.32389 0.944735 0.0507092
vn 0.255921 0.966415 0.0233991
vn -0.0608778 0.958332 -0.279093
vn -0.0410096 0.918662 -0.392911
vn -0.0325517 0.935421 -0.352035
vn 0.324293 0.944584 0.050946
vn 0.324668 0.944442 0.0511972
vn -0.0446042 0.908802 -0.414837
vn -0.0292967 0.873448 -0.486036
vn -0.0291778 0.886686 -0.461451
vn -0.533149 0.620829 0.574738
vn -0.533146 0.620834 0.574735
vn 0.324606 0.944465 0.0511568
vn -0.0202981 0.911535 -0.410722
vn -0.190321 0.964345 -0.183892
vn -0.181373 0.968242 -0.17208
vn -0.188111 0.966119 -0.176713
vn -0.0916149 0.99465 0.0477338
vn -0.0937977 0.99344 0.0654207
vn -0.185095 0.967103 -0.174505
vn -0.187858 0.966261 -0.176207
vn -0.355164 0.912551 -0.202754
vn -0.248293 0.95442 -0.165632
vn -0.287382 0.940878 -0.179334
vn -0.0636774 0.977266 -0.202226
vn -0.151766 0.986766 0.0570944
vn -0.11131 0.991972 0.0600125
vn -0.116888 0.992205 0.0432132
vn -0.0539002 0.926525 -0.372353
vn -0.0346178 0.883773 -0.466633
vn -0.0783231 0.96724 -0.24148
vn 0.0847122 -0.990673 0.106725
vn -0.15851 0.986625 0.0380292
vn -0.1514 0.988157 0.0249763
vn -0.128956 0.991355 -0.0242134
vn -0.131174 0.986316 -0.0998735
vn 0.11653 0.992701 -0.0310828
vn -0.104762 0.993847 -0.0359623
vn -0.101922 0.985456 -0.135972
vn -0.0802763 0.977685 -0.194131
vn -0.175765 0.966878 -0.185075
vn -0.165126 0.973645 -0.157319
vn -0.149035 0.987943 0.0419255
vn -0.106438 0.993818 0.0315769
vn -0.0847122 0.990673 -0.106725
vn -0.048259 -0.771497 -0.6344
vn -0.0519878 -0.761298 -0.646315
vn -0.175486 0.933787 -0.311844
vn -0.181409 0.920372 -0.346418
vn -0.192354 0.890168 -0.413039
vn -0.0926263 0.995524 -0.0187463
vn 0.522816 -0.663848 -0.53476
vn 0.522842 -0.663796 -0.5348
vn 0.51354 -0.695534 -0.502503
vn -0.21516 0.971889 -0.0955957
vn -0.199124 0.978443 -0.054754
vn -0.0236881 0.849821 -0.526538
vn -0.0210898 0.854827 -0.518485
vn -0.539173 0.58949 0.601493
vn -0.466511 0.805288 0.365894
vn -0.466593 0.805252 0.365869
vn -0.105766 0.994274 0.0152651
vn -0.104967 0.994375 0.0141436
vn -0.582918 -0.793761 0.173635
vn -0.0557032 -0.750901 -0.658062
vn -0.0932118 0.994699 0.0434156
vn -0.533299 0.620078 0.575409
vn -0.53473 0.613274 0.581343
vn 0.549119 -0.241973 -0.799949
vn -0.102975 0.97784 0.182277
vn -0.0773441 0.967361 0.241312
vn -0.0705714 0.962951 0.260279
vn -0.0659076 0.961076 0.268309
vn -0.059463 0.9571 0.28359
vn -0.192219 0.890764 -0.411814
vn -0.192304 0.890389 -0.412584
vn -0.52944 0.637569 0.559642
vn -0.526483 0.649779 0.548273
vn -0.181925 0.968672 -0.169048
vn -0.177612 0.969482 -0.168993
vn -0.153383 0.953373 -0.25991
vn -0.0863235 0.93373 -0.347414
vn -0.0479492 0.897136 -0.439144
vn -0.023812 0.844203 -0.535494
vn -0.190033 0.965022 -0.180608
vn -0.106704 0.994174 0.0152419
vn -0.0390915 0.944297 0.326766
vn -0.0627157 0.946025 -0.317967
vn 0.486663 -0.765869 -0.420244
vn -0.136152 0.990636 0.0101586
vn -0.129005 0.991578 0.0114188
vn 0.164279 0.324829 0.931396
vn 0.143605 0.429089 0.891774
vn 0.522894 -0.663691 -0.53488
vn -0.0864928 0.97158 0.220346
vn -0.0922891 0.973944 0.207159
vn -0.147756 0.986984 0.0634823
vn -0.148257 0.986865 0.0641706
vn -0.104107 0.994478 0.0132295
vn -0.102681 0.994642 0.0119878
vn 0.436416 0.872302 -0.220525
vn -0.52083 0.671047 0.527667
vn -0.466675 0.805215 0.365845
vn -0.0166873 0.914672 -0.403853
vn -0.0120881 0.925297 -0.379051
vn -0.0297302 0.889622 -0.455729
vn 0.555617 -0.359404 -0.749746
vn -0.147823 0.986973 0.0635046
vn -0.515662 0.0278736 0.856339
vn -0.254819 0.94208 -0.218067
vn -0.261315 0.940035 -0.219199
vn -0.098414 0.993044 0.0646414
vn -0.192405 0.889934 -0.413518
vn -0.126499 0.984436 -0.122002
vn -0.138973 0.982178 -0.126544
vn -0.166298 0.976595 -0.136411
vn 0.466675 -0.805215 -0.365845
vn 0.495978 -0.74423 -0.447355
vn -0.171894 -0.281637 -0.943998
vn 0.0909075 0.641327 0.761864
vn 0.0735264 0.698213 0.712104
vn -0.0864561 0.935199 -0.343408
vn -0.068214 0.927459 -0.36765
vn -0.160188 0.977918 -0.134222
vn 0.316068 -0.929664 0.189276
vn 0.233674 -0.958981 0.160471
vn -0.0757384 0.932531 -0.353058
vn -0.530311 0.633505 0.56342
vn -0.537317 0.600015 0.592683
vn -0.265753 0.938712 -0.219535
vn -0.0909629 0.994477 0.0523523
vn 0.529412 -0.637612 -0.559619
vn -0.533144 0.620839 0.574732
vn 0.538077 -0.596134 -0.5959
vn -0.19938 0.948014 -0.248027
vn -0.0518884 0.918015 -0.393137
vn -0.0600055 0.924301 -0.376919
vn -0.0686885 0.962889 0.261011
vn -0.584929 -0 -0.811084
vn 0.0563468 -0.973672 -0.220879
vn 0.139192 0.984642 -0.105383
vn 0.470432 -0.798381 -0.375875
vn 0.323607 0.94484 0.0505485
vn -0.222525 0.968178 -0.114516
vn -0.233952 0.961246 -0.145854
vn -0.00697155 0.918917 0.39439
vn -0.0580072 0.956183 0.286966
vn -0.149697 0.98663 0.0644445
vn 0.519715 -0.674894 -0.523846
vn -0.0866712 0.935265 -0.343172
vn -0.156393 0.96587 -0.206487
vn 0.0788375 -0.986171 -0.145778
vn -0.158116 0.986102 0.0510053
vn -0.143378 0.98583 0.0870726
vn 0.0557032 0.750901 0.658062
vn -0.724252 0.114163 -0.680019
vn -0.324606 -0.944465 -0.0511568
vn -0.5209 0.670795 0.527917
vn -0.499398 0.735564 0.457763
vn -0.517597 0.682323 0.516263
vn -0.525439 0.653939 0.544314
vn 0.149299 -0.980169 0.130305
vn 0.324058 0.944673 0.0507787
vn -0.510592 0.704701 0.492638
vn 0.121083 0.527828 0.840676
vn 0.16511 -0.97365 0.157303
vn -0.106325 0.994201 0.0161285
# 195 facets
f 28/1/1 102/2/2 120/3/3
f 50/4/4 46/5/5 58/6/6
f 29/7/7 43/8/8 36/9/9
f 73/10/10 49/11/11 63/12/12
f 52/13/13 89/14/14 54/15/15
f 130/16/16 59/17/17 81/18/18
f 56/19/19 42/20/20 32/21/21
f 48/22/22 32/23/21 95/24/23
f 36/25/9 43/26/8 27/27/24
f 88/28/25 51/29/26 94/30/27
f 23/31/28 71/32/29 97/33/30
f 64/34/31 33/35/32 44/36/33
f 26/37/34 20/38/35 71/32/29
f 18/39/36 38/40/37 109/41/38
f 77/42/39 132/43/40 27/44/40
f 20/38/35 79/45/41 71/46/41
f 39/47/42 44/36/33 33/35/32
f 10/48/43 114/49/44 45/50/45
f 17/51/46 51/29/26 31/52/47
f 17/51/46 94/30/27 51/29/26
f 53/53/48 113/54/49 45/50/45
f 23/31/50 61/55/51 7/56/52
f 64/34/31 44/36/33 26/37/53
f 14/57/54 42/58/20 52/13/13
f 54/15/15 46/5/5 78/59/55
f 127/60/56 52/13/13 51/29/26
f 55/61/57 35/62/58 21/63/59
f 79/64/60 126/65/60 13/66/60
f 34/67/61 104/68/62 85/69/63
f 21/63/59 85/69/63 11/70/64
f 23/31/28 97/33/30 61/55/65
f 108/71/66 6/72/67 30/73/68
f 10/48/69 11/70/64 75/74/70
f 67/75/71 52/13/13 127/60/56
f 51/29/26 54/15/15 78/59/55
f 3/76/72 51/29/26 88/28/25
f 79/64/73 13/66/73 126/65/73
f 122/77/74 19/78/75 83/78/75
f 15/79/76 118/80/77 41/81/78
f 23/31/79 58/6/6 108/71/66
f 33/35/32 64/34/31 18/82/36
f 115/83/80 132/84/81 98/85/82
f 6/86/67 56/87/19 85/69/63
f 48/22/22 80/88/83 102/89/84
f 35/62/58 87/90/85 117/91/86
f 98/92/87 27/44/24 110/93/87
f 98/85/88 40/94/89 27/27/89
f 96/95/90 49/11/11 66/96/91
f 3/76/92 88/28/92 4/97/92
f 2/98/93 83/78/75 19/78/75
f 3/76/72 81/18/18 128/99/94
f 36/9/95 110/93/96 27/44/24
f 29/7/97 110/93/97 43/8/97
f 105/100/98 80/88/99 95/24/23
f 107/101/100 60/102/101 121/103/102
f 21/63/59 6/86/67 85/69/63
f 11/70/103 41/81/78 2/104/104
f 57/105/105 100/106/106 36/9/9
f 9/107/107 45/50/45 113/54/49
f 114/49/44 75/74/108 53/53/48
f 30/73/68 64/34/31 26/37/53
f 55/61/57 16/108/109 124/109/110
f 3/76/72 49/11/11 81/18/18
f 12/110/111 99/111/112 35/62/58
f 34/67/61 85/69/63 32/23/21
f 75/74/108 129/112/113 53/53/48
f 49/11/11 111/113/114 81/18/18
f 120/3/3 91/114/115 60/102/101
f 35/62/58 22/115/116 21/63/59
f 57/105/117 36/25/117 27/44/117
f 41/81/118 11/70/64 85/69/63
f 22/116/116 30/73/68 6/72/67
f 56/19/19 89/14/14 42/20/20
f 45/50/45 114/49/44 53/53/48
f 64/34/31 22/116/116 18/82/36
f 25/117/119 108/71/66 46/5/5
f 15/79/120 8/118/121 122/77/121
f 132/119/81 77/42/122 98/92/82
f 86/120/123 60/102/101 93/121/124
f 72/122/125 90/123/126 42/124/20
f 34/67/61 32/23/21 48/22/22
f 84/125/127 49/11/11 68/126/128
f 37/127/129 131/128/129 76/129/129
f 115/83/130 98/85/130 77/130/130
f 36/25/131 27/27/89 40/94/89
f 125/131/132 1/132/133 39/47/42
f 18/133/36 109/41/38 69/134/134
f 98/92/135 43/135/135 27/136/135
f 52/13/13 54/15/15 51/29/26
f 14/137/54 123/138/136 42/124/20
f 129/112/113 113/54/49 53/53/48
f 100/106/137 43/8/137 29/7/137
f 30/73/68 26/37/53 108/71/66
f 82/139/138 131/128/139 10/48/69
f 52/13/13 67/75/71 14/57/54
f 10/48/69 21/63/59 11/70/64
f 50/4/4 58/6/6 78/59/140
f 25/117/119 54/15/15 89/14/14
f 118/80/77 19/78/141 41/81/78
f 61/55/142 126/65/143 5/140/144
f 36/25/145 98/141/146 27/44/146
f 3/76/72 128/99/94 127/60/56
f 118/80/147 122/77/147 83/78/147
f 118/80/148 83/78/149 19/78/149
f 2/104/104 41/81/78 19/78/141
f 27/44/150 132/142/151 124/143/110
f 13/66/152 61/55/51 5/140/144
f 97/33/153 13/66/154 61/55/154
f 130/16/16 81/18/18 111/113/114
f 12/110/111 124/109/110 92/144/155
f 57/105/156 43/26/157 36/25/95
f 16/108/109 131/128/139 37/127/158
f 23/31/79 70/145/159 58/6/6
f 33/35/32 18/133/36 69/134/134
f 55/61/57 124/109/110 12/110/111
f 73/10/10 68/126/128 49/11/11
f 77/42/160 110/93/160 27/27/160
f 132/119/40 27/136/40 77/42/161
f 115/146/80 77/130/162 132/43/81
f 124/109/110 16/108/109 119/147/163
f 6/72/67 108/71/66 25/117/119
f 42/20/20 89/14/14 52/13/13
f 115/83/164 112/148/165 132/84/151
f 24/149/166 120/3/3 86/120/123
f 100/106/106 29/7/7 36/9/9
f 129/112/167 47/150/167 113/54/167
f 36/9/95 43/135/157 110/93/96
f 10/48/69 16/108/109 21/63/59
f 25/117/119 89/14/14 56/19/19
f 6/72/67 25/117/119 56/19/19
f 72/122/168 123/138/168 116/151/168
f 101/152/169 26/37/169 44/36/169
f 87/90/85 35/62/58 99/111/112
f 98/92/170 110/93/170 43/135/170
f 104/68/62 41/81/118 85/69/63
f 124/143/110 132/142/151 112/148/165
f 97/33/30 71/32/29 13/66/171
f 121/103/172 91/114/173 80/88/83
f 7/56/52 61/55/51 5/140/144
f 23/31/79 108/71/66 26/37/53
f 34/67/174 102/89/174 62/153/174
f 74/154/175 121/103/102 105/100/98
f 64/34/31 30/73/68 22/116/116
f 74/154/176 32/23/21 90/123/126
f 23/31/28 26/37/34 71/32/29
f 98/92/146 77/42/177 27/44/146
f 57/105/178 27/44/150 124/143/110
f 46/5/5 108/71/66 58/6/6
f 15/79/76 122/77/179 118/80/77
f 42/155/20 90/123/126 32/23/21
f 70/145/159 78/59/140 58/6/6
f 50/4/180 78/59/180 46/5/180
f 74/154/176 105/100/98 32/23/21
f 105/100/98 95/24/23 32/23/21
f 1/132/133 44/36/33 39/47/42
f 25/117/119 46/5/5 54/15/15
f 62/153/181 102/2/2 103/156/182
f 56/157/19 32/23/21 85/69/63
f 2/104/183 19/78/149 83/78/149
f 9/107/184 106/158/184 45/50/184
f 55/61/57 12/110/111 35/62/58
f 20/38/185 71/159/185 79/45/185
f 92/144/155 124/143/110 112/148/165
f 132/119/186 98/92/187 27/136/188
f 22/116/116 35/160/58 18/82/36
f 43/26/189 132/43/186 27/27/188
f 61/55/154 13/66/154 126/65/190
f 35/62/58 38/40/37 18/39/36
f 21/63/59 16/108/109 55/61/57
f 33/35/32 69/134/134 39/47/42
f 79/161/191 13/66/171 71/32/29
f 27/136/188 43/8/189 110/93/192
f 78/59/55 31/52/47 51/29/26
f 66/96/91 49/11/11 84/125/127
f 3/76/72 127/60/56 51/29/26
f 72/122/125 42/124/20 123/138/136
f 8/118/121 19/78/193 122/77/121
f 13/66/152 5/140/144 126/65/143
f 10/48/194 75/74/194 114/49/194
f 65/162/195 111/113/114 49/11/11
f 74/154/175 107/101/100 121/103/102
f 107/101/100 93/121/124 60/102/101
f 121/103/102 60/102/101 91/114/115
f 105/100/98 121/103/102 80/88/99
f 24/149/166 28/1/1 120/3/3
f 28/1/1 103/156/182 102/2/2
f 120/3/3 102/2/2 91/114/115
f 86/120/123 120/3/3 60/102/101
f 34/67/61 48/22/22 102/89/84
f 48/22/22 95/24/23 80/88/99
f 102/89/84 80/88/83 91/114/173
f 96/95/90 65/162/195 49/11/11
f 16/108/109 10/48/69 131/128/139
f 35/62/58 117/91/86 38/40/37
f 22/115/116 6/86/67 21/63/59

