# 138 vertices
v -31.419 -62.7763 -21.8043
v -30.4495 -75.4823 -34.7847
v -16.8714 -90.7701 -18.8146
v -25.0413 -85.5878 -35.3942
v -12.2665 -94.7588 -30.1045
v -14.0944 -99.0726 -21.2304
v -31.8054 -69.1506 -19.7158
v -27.4484 -71.2062 -22.2753
v -28.1689 -79.9099 -34.7599
v -32.0461 -67.3006 -19.8921
v -31.9762 -67.838 -19.8409
v -15.1864 -97.752 -33.6104
v -18.9591 -87.5094 -19.0561
v -13.0241 -91.9491 -31.2319
v -32.0663 -64.1477 -33.9603
v -14.8721 -89.1093 -32.5998
v -21.7349 -99.5796 -24.4424
v -30.6745 -72.9653 -19.5802
v -24.9415 -77.8567 -21.2142
v -31.5256 -62.6543 -32.8206
v -12.8742 -90.0342 -27.8738
v -30.73 -61.2334 -24.8333
v -12.9101 -100.533 -26.6706
v -28.302 -78.4118 -19.4749
v -25.7906 -82.792 -18.9035
v -21.719 -97.7786 -33.4019
v -16.4113 -102.317 -26.0926
v -31.9729 -70.8557 -34.9088
v -14.873 -100.096 -31.923
v -13.5476 -96.0836 -32.8539
v -21.1126 -81.5868 -31.6513
v -13.3113 -100.897 -28.349
v -16.2293 -99.2511 -20.4552
v -31.889 -63.5843 -33.6234
v -31.2221 -62.031 -31.9447
v -12.519 -91.4458 -24.3109
v -32.0224 -65.4904 -20.2685
v -17.0297 -102.174 -28.0295
v -26.2516 -83.3622 -35.0809
v -13.2108 -95.6523 -20.9181
v -17.3308 -91.3583 -35.0945
v -17.8489 -97.3512 -19.259
v -23.9059 -81.4971 -33.6559
v -21.7334 -98.0229 -33.1636
v -17.3286 -85.5698 -32.3919
v -26.5135 -69.6999 -27.4609
v -14.11 -101.755 -27.8171
v -15.4537 -102.092 -24.7951
v -14.8874 -92.9522 -33.9643
v -21.2729 -96.4906 -19.2172
v -21.299 -96.8598 -19.4666
v -21.2512 -96.1834 -19.0097
v -14.3444 -101.95 -26.3189
v -12.459 -99.2303 -25.1095
v -21.3303 -97.3037 -19.7665
v -31.831 -63.4004 -33.5133
v -21.4407 -98.1391 -20.6302
v -23.4898 -75.9505 -25.2134
v -32.1303 -64.3509 -34.0819
v -14.1006 -101.111 -29.9926
v -17.0332 -85.1916 -21.9234
v -30.898 -61.449 -30.5615
v -14.506 -87.7027 -30.4208
v -21.2732 -94.803 -18.4359
v -31.6146 -63.3431 -21.2848
v -23.6059 -88.6731 -35.7356
v -24.0183 -87.7639 -35.639
v -30.6446 -61.0722 -25.5398
v -16.2669 -94.149 -18.8126
v -21.5516 -98.7756 -21.6133
v -26.3168 -70.9697 -24.3068
v -16.6949 -101.938 -24.5253
v -24.8246 -85.9863 -35.4503
v -25.7475 -84.2891 -35.2114
v -15.5388 -102.096 -28.8238
v -31.8474 -64.2708 -20.7289
v -31.9592 -63.8074 -33.7568
v -27.7135 -77.3237 -19.8847
v -20.3352 -81.1632 -29.6522
v -16.0173 -88.3972 -20.1396
v -31.079 -61.9329 -22.8733
v -13.3601 -100.906 -24.9567
v -11.973 -95.4956 -26.9663
v -30.8246 -61.4121 -24.0503
v -16.4525 -98.8837 -33.455
v -16.1674 -100.704 -22.0179
v -16.7205 -94.7298 -34.8869
v -21.6931 -97.335 -33.8347
v -21.6911 -96.1923 -34.5737
v -12.3739 -95.9879 -22.8904
v -16.9064 -100.731 -31.8336
v -14.8009 -97.2585 -19.9522
v -23.1804 -77.9776 -23.1428
v -30.4899 -71.9588 -19.8217
v -13.0191 -99.1571 -22.7734
v -13.2446 -99.4459 -30.7644
v -17.5685 -88.1153 -34.2637
v -22.6332 -91.2724 -35.7314
v -22.9187 -88.4652 -17.9697
v -24.7552 -77.3177 -32.2399
v -31.5178 -63.0628 -21.5417
v -23.5797 -88.7306 -35.7417
v -17.7898 -100.858 -31.3571
v -14.7519 -86.5923 -24.2259
v -16.1555 -84.5678 -26.6533
v -21.5684 -81.232 -22.0072
v -20.4248 -80.6602 -25.8984
v -27.2103 -78.2664 -34.1383
v -18.6992 -98.1051 -33.9773
v -14.4923 -92.4463 -19.9628
v -18.5639 -98.9546 -20.3678
v -14.2617 -101.065 -23.3251
v -31.5473 -63.1481 -21.4636
v -21.8531 -99.3908 -30.778
v -31.3563 -73.0852 -34.865
v -23.47 -81.7375 -20.1382
v -22.7088 -77.1377 -27.5795
v -14.5617 -88.7118 -21.5995
v -19.5033 -99.1525 -32.9664
v -25.9873 -71.0142 -28.5403
v -21.7429 -98.1848 -33.0057
v -23.7338 -76.0119 -24.2614
v -21.8027 -98.8533 -32.0304
v -30.7247 -61.163 -29.4183
v -31.3393 -62.5454 -22.0159
v -23.6085 -76.1024 -29.4185
v -12.9983 -91.6833 -22.1713
v -21.6993 -97.4418 -33.7305
v -25.9247 -70.934 -26.3208
v -32.4833 -67.3847 -34.8203
v -28.6854 -70.3727 -32.8604
v -14.7468 -101.711 -29.3224
v -23.9055 -76.2318 -30.3484
v -32.3776 -65.5903 -34.5191
v -26.4922 -71.1942 -30.5212
v -20.0878 -88.836 -35.4099
v -31.5372 -72.6069 -34.881
v -12.699 -97.5214 -30.9708
# 146 texture coordinates
vt 0.17700 0.44101
vt 0.15360 0.45302
vt 0.17532 0.42019
vt 0.62557 0.56613
vt 0.63186 0.51977
vt 0.62581 0.58178
vt 0.11971 0.20235
vt 0.08779 0.23605
vt 0.10766 0.18402
vt 0.67088 0.43046
vt 0.81600 0.31983
vt 0.67693 0.53546
vt 0.14592 0.25906
vt 0.10721 0.28553
vt 0.13778 0.23728
vt 0.64237 0.57519
vt 0.14972 0.48589
vt 0.18226 0.50942
vt 0.13288 0.53428
vt 0.71479 0.23234
vt 0.64320 0.14946
vt 0.71637 0.06997
vt 0.16899 0.36812
vt 0.12307 0.36624
vt 0.11984 0.33635
vt 0.69103 0.67841
vt 0.84836 0.45078
vt 0.08769 0.33390
vt 0.07920 0.30413
vt 0.09701 0.33633
vt 0.17825 0.86976
vt 0.07926 0.65720
vt 0.27384 0.80527
vt 0.11771 0.46157
vt 0.11578 0.42055
vt 0.13252 0.43003
vt 0.03858 0.24491
vt 1.00419 0.23379
vt 0.97098 0.16876
vt 1.05204 0.11078
vt 0.13580 0.46066
vt 0.63453 0.34451
vt 0.10570 0.33628
vt 0.96682 0.25317
vt 0.10738 0.37725
vt 0.09010 0.47185
vt 0.10500 0.44579
vt 0.10360 0.49932
vt 0.57740 0.70962
vt 0.57835 0.70900
vt 0.58400 0.70518
vt 0.91917 0.04990
vt 0.98204 0.06497
vt 0.12335 0.49054
vt 0.13071 0.58263
vt 0.21264 0.61539
vt 0.62413 0.54888
vt 0.62261 0.53693
vt 0.61081 0.46475
vt 1.00065 0.53897
vt 0.91350 0.78162
vt 0.59204 0.69743
vt 0.60063 0.68556
vt 0.60324 0.72650
vt 0.04290 0.56574
vt 0.00065 0.53897
vt 0.17903 0.47100
vt 0.17955 0.47861
vt 0.17999 0.48508
vt 0.63811 0.62907
vt 0.62446 0.60333
vt 0.67748 0.58069
vt 1.01848 0.28849
vt 1.02114 0.36206
vt 0.99029 0.33126
vt 0.12497 0.21126
vt 0.12765 0.21612
vt 0.12103 0.20451
vt 0.09221 0.41726
vt 0.12991 0.38707
vt 0.12068 0.38994
vt 0.74473 0.06025
vt 0.10354 0.40518
vt 0.09273 0.38735
vt 0.10734 0.54620
vt 0.10427 0.60886
vt 0.08028 0.57886
vt 0.09719 0.28668
vt 0.63765 0.77704
vt 0.55286 0.89970
vt 0.60693 0.39821
vt 0.04328 0.31273
vt 0.05932 0.28102
vt 0.02957 0.44199
vt 0.06196 0.49533
vt 0.14750 0.64273
vt 0.08928 0.36149
vt 0.09936 0.36012
vt 0.10761 0.24465
vt 0.52945 0.72264
vt 0.51239 0.73513
vt 0.49855 0.73192
vt 1.02957 0.44199
vt 0.99296 0.39524
vt 0.62892 0.65443
vt 0.60889 0.66896
vt 0.62232 0.61967
vt 0.60847 0.44291
vt 0.60825 0.43652
vt 0.56832 0.74996
vt 0.44499 0.77039
vt 0.42057 0.74681
vt 0.12934 0.21932
vt 0.06501 0.41724
vt 0.07600 0.26896
vt 0.94548 0.32001
vt 0.07978 0.52676
vt 0.61417 0.28483
vt 0.04467 0.37146
vt 0.05798 0.34276
vt 0.07175 0.33486
vt 0.30737 0.72404
vt 0.17843 0.46210
vt 0.61994 0.52110
vt 0.02114 0.36206
vt 0.01848 0.28849
vt 0.62470 0.68488
vt 0.57519 0.71102
vt 0.56636 0.71491
vt 0.45485 0.84626
vt 0.05204 0.11078
vt 0.61621 0.50139
vt 0.60505 0.67687
vt 0.53902 0.72098
vt 0.54260 0.72021
vt 1.07926 0.65720
vt 0.55618 0.71776
vt 0.00419 0.23379
vt 0.97934 0.06392
vt 0.62449 0.55167
vt 1.17825 0.86976
vt 0.61274 0.80856
vt 0.58151 0.70689
vt 0.66250 0.11310
vt 0.62369 0.54545
vt 0.62302 0.54014
# 139 vertex normals
vn 0.265926 0.738815 -0.619221
vn 0.166617 0.663028 -0.729817
vn 0.337735 0.857082 -0.389033
vn -0.776789 -0.288736 0.55967
vn -0.645376 -0.233388 0.727338
vn -0.808861 -0.328015 0.488006
vn 0.215118 0.601935 0.769025
vn 0.0625428 0.517411 0.853449
vn 0.0515143 0.349696 0.935446
vn -0.628337 -0.369498 0.68459
vn -0.690842 -0.541547 0.479025
vn -0.728752 -0.403873 0.552998
vn 0.410684 0.883463 0.22546
vn 0.245423 0.873848 0.419712
vn 0.333871 0.809909 0.482264
vn -0.723639 -0.32944 0.606479
vn -0.0531264 0.387054 -0.920525
vn -0.0388721 0.209432 -0.97705
vn -0.315075 0.0636087 -0.946933
vn -0.387443 -0.367704 0.845388
vn -0.323298 -0.28327 0.902905
vn -0.221165 -0.280283 0.934092
vn 0.437502 0.892216 -0.111992
vn 0.180912 0.977731 -0.10636
vn 0.208775 0.971392 0.113181
vn -0.860176 -0.499583 0.102543
vn -0.716444 -0.653417 0.244447
vn -0.576446 0.723946 0.378961
vn -0.394117 0.656084 0.643604
vn -0.28058 0.907289 0.313212
vn -0.646272 -0.561639 -0.516618
vn -0.613119 -0.622675 -0.48617
vn -0.420535 -0.405893 -0.811419
vn -0.532876 0.507191 -0.677349
vn -0.492904 0.745301 -0.448969
vn -0.0233937 0.820612 -0.571007
vn -0.239979 0.171985 0.955422
vn -0.316338 -0.100959 0.943259
vn -0.176512 -0.189618 0.965862
vn -0.0853039 0.0578184 0.994676
vn -0.152942 0.579293 -0.800642
vn -0.401053 -0.205404 0.892729
vn -0.0948844 0.943435 0.317691
vn -0.47021 -0.352538 0.809086
vn -0.418509 0.908198 -0.00508663
vn -0.969087 0.0340965 -0.244353
vn -0.840133 0.378047 -0.388917
vn -0.766869 0.0761044 -0.637276
vn -0.945569 0.325421 -0.00109934
vn -0.684175 0.606762 0.404653
vn -0.973117 0.155367 -0.170011
vn -0.0391185 -0.123033 0.991631
vn -0.0382868 -0.0837873 0.995748
vn -0.411356 0.279554 -0.867546
vn -0.36965 -0.18202 -0.911168
vn -0.161581 -0.110449 -0.980659
vn -0.65274 -0.226808 0.722833
vn -0.615622 -0.197455 0.762903
vn -0.308942 -0.0843794 0.94733
vn -0.752039 -0.659117 0.00120711
vn -0.771584 -0.617849 -0.151396
vn -0.819192 -0.361302 -0.445405
vn -0.871161 -0.403399 -0.279907
vn -0.803796 -0.392804 -0.446786
vn -0.835653 -0.514024 -0.193553
vn 0.241319 0.531474 -0.811973
vn 0.423276 0.486474 -0.764317
vn 0.191083 0.492784 -0.848912
vn -0.889542 -0.433191 0.145123
vn -0.82953 -0.384506 0.405013
vn -0.864689 -0.450259 0.222665
vn -0.618497 -0.136377 0.773862
vn -0.882058 -0.226992 0.412854
vn -0.714881 -0.372422 0.591817
vn -0.259207 -0.666677 -0.698823
vn -0.953638 0.279187 -0.112377
vn 0.217548 0.920799 -0.32373
vn -0.214219 0.934071 -0.285696
vn -0.116158 -0.17921 0.976929
vn -0.717465 0.665105 -0.207072
vn -0.905459 0.420909 0.0545837
vn -0.65444 -0.173911 -0.735842
vn -0.564423 -0.391623 -0.726676
vn -0.759222 -0.417229 -0.499502
vn -0.0013217 0.774639 0.632402
vn -0.8742 -0.458796 -0.159
vn -0.788209 -0.449558 -0.420266
vn -0.234326 -0.0780538 0.96902
vn -0.741245 0.133705 0.657783
vn -0.441044 0.337009 0.831808
vn -0.937449 -0.339148 0.0785402
vn -0.96454 -0.232434 -0.125047
vn -0.341224 -0.376969 -0.861081
vn -0.781345 0.609114 0.135939
vn -0.537359 0.83213 0.137135
vn 0.244519 0.705992 0.66467
vn 0.274398 0.66324 0.696289
vn 0.274376 0.663237 0.696301
vn -0.452465 -0.144562 -0.879987
vn -0.0986384 -0.0236299 -0.994843
vn -0.353439 -0.158223 -0.921979
vn -0.801657 -0.525511 0.284929
vn -0.896468 -0.44136 0.0393213
vn -0.901713 -0.428407 -0.058152
vn -0.898283 -0.424111 0.114967
vn -0.133971 -0.0176196 0.990829
vn -0.134508 -0.0177471 0.990754
vn -0.711828 -0.330373 -0.619802
vn -0.25204 -0.160535 -0.954308
vn -0.315626 -0.227328 -0.92125
vn 0.300334 0.720428 0.625126
vn -0.999028 0.0294187 0.032815
vn -0.156807 0.506442 0.847896
vn -0.607944 -0.576119 0.546344
vn -0.887178 -0.239927 -0.394145
vn -0.322738 -0.202497 0.924573
vn -0.967986 -0.0583149 0.244135
vn -0.944331 0.180875 0.274814
vn -0.812527 0.407268 0.417052
vn -0.27446 -0.318818 -0.907208
vn 0.202257 0.616185 -0.761189
vn -0.550243 -0.139305 0.823303
vn -0.896469 -0.438188 -0.0658412
vn -0.956247 0.0696496 -0.284148
vn -0.818017 -0.0980668 -0.566772
vn -0.579778 -0.377937 -0.721818
vn -0.519644 -0.104317 0.84799
vn -0.859511 -0.414583 -0.298936
vn 0.961193 0.100822 -0.256794
vn -0.610835 -0.153533 -0.776729
vn -0.676522 -0.149047 -0.721181
vn 0.0791016 -0.0697289 0.994425
vn -0.695909 -0.250968 0.672849
vn -0.81789 -0.399642 -0.413936
vn -0.847201 0.486774 0.21284
vn -0.333066 -0.0485567 -0.941652
vn 0.589096 0.26985 -0.761674
vn 0.964846 -0.240903 -0.105063
vn -0.277451 0.555768 -0.783673
# 216 facets
f 57/1/1 111/2/2 70/3/3
f 20/4/4 131/5/5 35/6/6
f 88/7/7 109/8/8 89/9/9
f 100/10/10 31/11/11 133/12/12
f 114/13/13 103/14/14 123/15/15
f 35/6/6 131/5/5 135/16/16
f 42/17/17 64/18/18 69/19/19
f 43/20/20 39/21/21 4/22/22
f 17/23/23 27/24/24 38/25/25
f 117/26/26 31/11/11 79/27/27
f 60/28/28 29/29/29 132/30/30
f 106/31/31 61/32/32 116/33/33
f 6/34/34 112/35/35 86/36/36
f 87/37/37 89/9/9 109/8/8
f 41/38/38 136/39/39 98/40/40
f 86/36/36 111/2/2 33/41/41
f 108/42/42 100/10/10 131/5/5
f 132/30/30 29/29/29 75/43/43
f 136/39/39 97/44/44 43/20/20
f 103/14/14 114/13/13 38/25/25
f 132/30/30 75/43/43 53/45/45
f 108/42/42 43/20/20 100/10/10
f 90/46/46 95/47/47 40/48/48
f 38/25/25 114/13/13 17/23/23
f 113/49/49 101/50/50 125/51/51
f 67/52/52 102/53/53 136/39/39
f 92/54/54 6/34/34 33/41/41
f 3/55/55 69/19/19 99/56/56
f 34/57/57 59/58/58 131/5/5
f 6/34/34 40/48/48 95/47/47
f 131/5/5 28/59/59 108/42/42
f 105/60/60 107/61/61 79/27/27
f 81/62/62 84/63/63 71/64/64
f 104/65/65 61/32/32 105/66/60
f 33/41/41 42/17/17 92/54/54
f 51/67/66 50/68/67 52/69/68
f 120/70/69 62/71/70 126/72/71
f 64/18/18 99/56/56 69/19/19
f 49/73/72 14/74/73 16/75/74
f 26/76/75 44/77/75 128/78/75
f 95/47/47 90/46/46 54/79/76
f 72/80/77 48/81/78 27/24/24
f 73/82/79 136/39/39 4/22/22
f 33/41/41 111/2/2 42/17/17
f 82/83/80 54/79/76 23/84/81
f 110/85/82 80/86/83 118/87/84
f 29/29/29 91/88/85 75/43/43
f 58/89/86 107/61/61 93/90/87
f 2/91/88 108/42/42 28/59/59
f 30/92/89 87/37/37 12/93/90
f 21/94/91 36/95/92 104/65/65
f 80/86/83 13/96/93 61/32/32
f 32/97/94 60/28/28 47/98/95
f 119/99/96 128/78/97 44/77/98
f 93/90/87 107/61/61 106/31/31
f 7/100/99 94/101/100 18/102/101
f 40/48/48 6/34/34 92/54/54
f 43/20/20 4/22/22 136/39/39
f 109/8/8 88/7/7 119/99/96
f 72/80/77 70/3/3 86/36/36
f 21/103/91 63/104/102 14/74/73
f 46/105/103 68/106/104 124/107/105
f 28/59/59 137/108/106 115/109/107
f 71/64/64 8/110/108 81/62/62
f 48/81/78 86/36/36 112/35/35
f 133/12/12 126/72/71 62/71/70
f 69/19/19 110/85/82 40/48/48
f 78/111/109 116/33/33 24/112/110
f 119/99/96 121/113/111 123/15/15
f 70/3/3 111/2/2 86/36/36
f 90/46/46 36/95/92 83/114/112
f 41/38/38 49/73/72 97/44/44
f 105/60/60 63/104/102 21/103/91
f 87/37/37 85/115/113 12/93/90
f 45/116/114 43/20/20 97/44/44
f 40/48/48 110/85/82 127/117/115
f 90/46/46 40/48/48 127/117/115
f 108/42/42 9/118/116 43/20/20
f 38/25/25 75/43/43 103/14/14
f 126/72/71 133/12/12 31/11/11
f 3/55/55 110/85/82 69/19/19
f 21/94/91 5/119/117 83/114/112
f 23/84/81 138/120/118 96/121/119
f 135/16/16 131/5/5 100/10/10
f 53/45/45 75/43/43 38/25/25
f 35/6/6 135/16/16 62/71/70
f 92/54/54 42/17/17 69/19/19
f 97/44/44 16/75/74 45/116/114
f 78/111/109 24/112/110 18/102/101
f 25/122/120 13/96/93 99/56/56
f 29/29/29 85/115/113 91/88/85
f 53/45/45 38/25/25 27/24/24
f 126/72/71 117/26/26 120/70/69
f 16/75/74 97/44/44 49/73/72
f 55/123/121 51/67/66 111/2/2
f 62/71/70 135/16/16 133/12/12
f 59/58/58 134/124/122 131/5/5
f 36/95/92 90/46/46 127/117/115
f 108/42/42 2/91/88 9/118/116
f 21/94/91 14/125/73 5/119/117
f 53/45/45 82/83/80 23/84/81
f 14/125/73 49/126/72 30/92/89
f 46/105/103 117/26/26 129/127/123
f 85/115/113 29/29/29 12/93/90
f 118/87/84 127/117/115 110/85/82
f 65/128/124 113/49/49 76/129/125
f 43/20/20 45/116/114 31/11/11
f 88/7/7 128/78/97 119/99/96
f 30/92/89 96/121/119 138/120/118
f 124/107/105 120/70/69 46/105/103
f 44/77/98 121/113/111 119/99/96
f 36/95/92 21/94/91 83/114/112
f 102/53/53 98/40/40 136/39/39
f 54/79/76 82/83/80 95/47/47
f 117/26/26 126/72/71 31/11/11
f 99/56/56 13/96/93 3/55/55
f 7/100/99 19/130/126 78/111/109
f 89/9/9 87/37/37 98/131/40
f 129/127/123 117/26/26 58/89/86
f 80/86/83 110/85/82 3/55/55
f 9/118/116 39/21/21 43/20/20
f 13/96/93 80/86/83 3/55/55
f 105/66/60 21/94/91 104/65/65
f 79/27/27 31/11/11 45/116/114
f 130/132/127 28/59/59 131/5/5
f 63/104/102 16/75/74 14/74/73
f 92/54/54 69/19/19 40/48/48
f 79/27/27 107/61/61 117/26/26
f 53/45/45 27/24/24 48/81/78
f 13/96/93 25/122/120 116/33/33
f 17/23/23 70/3/3 27/24/24
f 96/121/119 29/29/29 60/28/28
f 124/107/105 62/71/70 120/70/69
f 97/44/44 136/39/39 41/38/38
f 111/2/2 52/69/68 42/17/17
f 119/99/96 91/88/85 109/8/8
f 53/45/45 32/97/94 47/98/95
f 85/115/113 87/37/37 109/8/8
f 32/97/94 96/121/119 60/28/28
f 125/51/51 76/129/125 113/49/49
f 61/32/32 118/87/84 80/86/83
f 22/133/128 71/64/64 84/63/63
f 53/45/45 47/98/95 132/30/30
f 79/27/27 63/104/102 105/60/60
f 112/35/35 6/34/34 95/47/47
f 7/100/129 11/134/129 10/135/129
f 104/65/65 127/117/115 118/87/84
f 14/125/73 30/92/89 5/119/117
f 105/60/60 61/136/32 107/61/61
f 104/65/65 36/95/92 127/117/115
f 112/35/35 95/47/47 82/83/80
f 129/127/123 22/133/128 68/106/104
f 70/3/3 72/80/77 27/24/24
f 46/105/103 129/127/123 68/106/104
f 10/135/130 37/137/131 7/100/99
f 75/43/43 91/88/85 103/14/14
f 83/114/112 5/119/117 138/120/118
f 87/37/37 49/126/72 41/138/38
f 83/114/112 138/120/118 23/84/81
f 13/96/93 116/33/33 61/32/32
f 54/79/76 90/46/46 83/114/112
f 66/139/132 102/53/53 67/52/52
f 96/121/119 32/97/94 23/84/81
f 131/5/5 56/140/133 34/57/57
f 96/121/119 30/92/89 29/29/29
f 86/36/36 33/41/41 6/34/34
f 48/81/78 112/35/35 82/83/80
f 61/136/32 106/141/31 107/61/61
f 22/133/128 58/89/86 122/142/134
f 19/130/126 106/31/31 116/33/33
f 5/119/117 30/92/89 138/120/118
f 134/124/122 130/132/127 131/5/5
f 83/114/112 23/84/81 54/79/76
f 101/50/50 1/143/135 125/51/51
f 100/10/10 133/12/12 135/16/16
f 52/69/68 111/2/2 51/67/66
f 71/64/64 122/142/134 93/90/87
f 63/104/102 45/116/114 16/75/74
f 8/110/108 93/90/87 19/130/126
f 30/92/89 49/126/72 87/37/37
f 86/36/36 48/81/78 72/80/77
f 119/99/96 103/14/14 91/88/85
f 116/33/33 78/111/109 19/130/126
f 85/115/113 109/8/8 91/88/85
f 120/70/69 117/26/26 46/105/103
f 4/22/136 39/21/136 74/144/136
f 118/87/84 61/32/32 104/65/65
f 116/33/33 25/122/120 24/112/110
f 106/31/31 19/130/126 93/90/87
f 43/20/20 31/11/11 100/10/10
f 136/39/39 73/82/79 67/52/52
f 12/93/90 29/29/29 30/92/89
f 42/17/17 52/69/68 64/18/18
f 19/130/126 7/100/99 8/110/108
f 47/98/95 60/28/28 132/30/30
f 119/99/96 123/15/15 103/14/14
f 28/59/59 115/109/107 2/91/88
f 77/145/137 15/146/138 59/58/137
f 111/2/2 57/1/1 55/123/121
f 53/45/45 23/84/81 32/97/94
f 20/4/4 56/140/133 131/5/5
f 107/61/61 58/89/86 117/26/26
f 78/111/109 94/101/100 7/100/99
f 93/90/87 122/142/134 58/89/86
f 93/90/87 8/110/108 71/64/64
f 58/89/86 22/133/128 129/127/123
f 122/142/134 71/64/64 22/133/128
f 98/131/40 87/37/37 41/138/38
f 59/58/137 34/57/139 77/145/137
f 7/100/99 37/137/131 76/129/125
f 8/110/108 76/129/125 125/51/51
f 53/45/45 48/81/78 82/83/80
f 8/110/108 125/51/51 81/62/62
f 79/27/27 45/116/114 63/104/102
f 76/129/125 8/110/108 7/100/99
f 94/101/100 78/111/109 18/102/101

