# 162 vertices
v 41.0256 1.73515 -15.4664
v 41.2141 1.73515 -8.719
v 34.2256 -3.57921 -8.52379
v 45.0426 -8.55566 -11.6395
v 33.4897 -2.99 -8.50324
v 32.0237 -0.512123 -15.2149
v 32.3363 -0.967077 -8.47102
v 32.3039 1.36146 -8.47012
v 37.6707 -1.37797 -8.62002
v 33.6278 3.70292 -15.2597
v 39.2677 -8.61764 -15.4173
v 34.4186 4.21748 -15.2818
v 36.418 4.70366 -8.58504
v 38.081 4.40896 -15.3841
v 39.1089 3.97957 -8.6602
v 39.8403 3.3846 -8.68063
v 31.9706 0.429494 -15.2134
v 44.0504 -4.44613 -8.79823
v 44.8668 -8.72264 -8.82103
v 35.9138 -4.57594 -15.3236
v 37.1962 -5.70275 -8.60677
v 39.6518 3.3846 -15.428
v 44.8252 -8.67807 -15.5725
v 36.2295 4.70366 -15.3324
v 37.8246 -7.34427 -15.377
v 38.4571 -8.08129 -15.3946
v 35.8143 -4.40253 -10.2563
v 38.4156 -7.91982 -10.329
v 38.0131 -7.34427 -8.62959
v 44.4814 -8.8385 -15.5629
v 43.6413 -3.14599 -8.7868
v 40.3994 -8.84853 -8.69625
v 39.1727 -8.45712 -8.66198
v 37.3591 4.6539 -8.61132
v 32.1591 0.429494 -8.46607
v 38.2695 4.40896 -8.63675
v 33.8162 3.70292 -8.51236
v 38.077 -7.52853 -12.0077
v 44.63 -8.85866 -8.81442
v 33.3012 -2.99 -15.2506
v 32.4879 -1.84115 -15.2279
v 38.9204 3.97957 -15.4076
v 44.6006 -8.82016 -12.7526
v 32.8923 -2.26027 -8.48655
v 32.1155 1.36146 -15.2175
v 45.1035 -8.58663 -8.82764
v 35.7811 -4.34473 -8.56724
v 45.0893 -8.34655 -15.5799
v 35.047 4.38675 -8.54674
v 40.7921 2.16638 -8.70721
v 35.2984 4.55602 -15.3064
v 45.2778 -8.34655 -8.83251
v 43.4528 -3.14599 -15.5342
v 32.2097 1.36146 -11.8438
v 38.1988 4.40896 -11.167
v 38.4017 -7.866 -8.64045
v 34.8899 4.34443 -10.2305
v 36.7959 -2.4124 -8.59559
v 45.0372 -8.46563 -14.1716
v 44.9599 -8.55732 -14.3102
v 41.1199 1.73515 -12.0927
v 34.0371 -3.57921 -15.2712
v 45.1369 -8.4866 -10.2354
v 37.8442 0.41195 -8.62487
v 42.276 -0.400349 -8.74866
v 38.9765 -1.72643 -8.6565
v 37.0784 -5.70275 -12.8239
v 44.9643 -8.63235 -12.2001
v 33.7456 3.70292 -11.0426
v 45.1702 -8.38656 -11.6431
v 45.1315 -8.39657 -12.7675
v 36.9116 -0.990081 -15.3515
v 36.6131 -2.26365 -8.59048
v 32.6396 -1.99832 -12.6999
v 37.6996 2.08987 -15.3735
v 37.2649 4.6539 -11.985
v 36.3473 4.70366 -11.1153
v 32.9292 2.83691 -11.8639
v 44.6866 -8.78005 -12.755
v 32.1952 1.1673 -11.2807
v 39.7932 3.3846 -10.3675
v 44.8529 -8.70779 -11.0715
v 32.2206 1.12847 -10.1559
v 44.7276 -8.76836 -12.1935
v 36.4788 0.20018 -15.3394
v 32.1953 0.662485 -8.46708
v 41.4192 -5.40575 -15.4774
v 44.9572 -8.51231 -15.5762
v 34.6204 4.20902 -11.3484
v 38.3531 -7.88289 -12.5781
v 45.006 -8.53708 -13.3267
v 44.8425 -8.69664 -12.7594
v 38.7173 1.39446 -15.4019
v 39.5393 0.538602 -8.67222
v 33.1514 3.03493 -8.49379
v 45.1364 -8.34655 -13.8931
v 32.2581 -0.853338 -10.157
v 39.2624 -0.147733 -8.66448
v 40.122 -5.745 -8.6885
v 44.5186 -8.84354 -13.8758
v 39.0382 3.97957 -11.1905
v 39.9771 -3.26855 -15.4371
v 35.2579 -1.68951 -15.3053
v 43.8619 -4.44613 -15.5456
v 32.707 2.63889 -15.234
v 44.8807 -8.70107 -10.1579
v 44.7764 -8.72322 -13.883
v 44.5557 -8.84858 -12.1887
v 45.1569 -8.42658 -11.08
v 36.6402 -1.03174 -8.59124
v 44.7903 -8.73808 -11.6325
v 38.36 -7.86875 -11.4529
v 38.4432 -8.02747 -13.7061
v 38.2866 -1.08917 -8.63722
v 34.6542 4.28096 -12.7562
v 45.1835 -8.34655 -12.2062
v 44.6455 -8.79174 -13.3166
v 38.1673 0.112108 -8.6339
v 35.157 4.46081 -11.5041
v 40.0795 -8.82786 -12.9077
v 44.5928 -8.85362 -10.5015
v 45.0999 -8.52661 -10.5157
v 38.8045 0.402083 -8.65169
v 39.2439 -8.57751 -13.7285
v 43.3848 -4.63349 -8.77964
v 38.7745 -0.618454 -8.65085
v 37.0077 -5.70275 -15.3541
v 41.6324 0.514865 -15.4833
v 44.7129 -8.74912 -14.1626
v 38.5345 1.22937 -8.64415
v 37.9569 -1.72161 -8.62802
v 42.2392 -0.70542 -15.5003
v 37.0339 -2.71695 -8.60223
v 45.0339 -8.60949 -10.5139
v 32.6395 2.24284 -8.47949
v 43.5723 -8.85613 -8.78488
v 35.9492 -0.331517 -15.3246
v 44.8948 -8.65521 -13.8863
v 45.0964 -8.46659 -12.2038
v 38.5456 -0.343546 -8.64446
v 45.1266 -8.44658 -11.6419
v 36.9262 3.59529 -15.3519
v 37.3201 -1.00022 -8.61023
v 42.846 -1.9257 -15.5173
v 45.2307 -8.34655 -10.5194
v 32.112 0.429494 -10.1529
v 38.7235 -8.18847 -12.0257
v 44.6788 -8.81351 -10.5039
v 32.0916 0.233324 -11.2778
v 34.1078 -3.57921 -12.7409
v 32.1771 0.798397 -9.87337
v 37.3785 2.07192 -8.61186
v 36.7324 0.95283 -15.3465
v 32.0648 0.429494 -11.8397
v 45.0512 -8.50184 -12.7652
v 37.6729 4.53143 -13.6846
v 44.6397 -8.81684 -11.6283
v 45.0928 -8.40657 -13.8918
v 39.7225 3.3846 -12.8977
v 33.3955 -2.99 -11.8769
v 36.9354 -4.92094 -17.5413
v 38.0206 -7.07311 -18.1038
# 177 texture coordinates
vt 0.39580 0.26480
vt 0.54577 0.30204
vt 0.44905 0.30289
vt 1.03365 0.31209
vt 1.09899 0.28411
vt 1.13858 0.29773
vt 0.12692 0.44353
vt 0.12748 0.49998
vt 0.12576 0.48128
vt 0.13515 0.55707
vt 0.13309 0.53758
vt 0.13422 0.51876
vt 0.12860 0.61288
vt 0.12491 0.61315
vt 0.12587 0.57071
vt 0.37906 0.73928
vt 0.31347 0.72620
vt 0.31347 0.55655
vt 0.66789 0.36452
vt 0.65964 0.47667
vt 0.63818 0.46670
vt 0.65802 0.63414
vt 0.70944 0.65215
vt 0.60851 0.63456
vt 0.12122 0.61342
vt 0.12122 0.55671
vt 0.12229 0.51901
vt 0.76023 0.33872
vt 0.73902 0.46196
vt 0.73902 0.34783
vt 0.55832 0.35750
vt 0.52768 0.34720
vt 0.67747 0.33417
vt 0.13408 0.48062
vt 0.12804 0.55643
vt 1.24352 0.28337
vt 1.17356 0.29294
vt 1.16756 0.27928
vt 1.31347 0.27380
vt 0.54430 0.70237
vt 0.57776 0.71439
vt 0.13394 0.44247
vt 0.13263 0.51843
vt 0.61204 0.30597
vt 0.61345 0.50051
vt 0.57852 0.50000
vt 1.39580 0.26480
vt 1.37522 0.26705
vt 0.57347 0.43206
vt 0.57431 0.47791
vt 0.55832 0.50000
vt 0.12507 0.44366
vt 0.12459 0.51902
vt 0.12379 0.50025
vt 0.47285 0.68028
vt 0.44905 0.54928
vt 0.47285 0.50000
vt 0.57852 0.36192
vt 0.61838 0.36647
vt 0.59851 0.36487
vt 0.52684 0.68815
vt 0.53783 0.64859
vt 0.58267 0.67938
vt 1.03365 0.68791
vt 1.07776 0.71439
vt 0.93785 0.69524
vt 0.47285 0.31972
vt 0.13038 0.55608
vt 0.13216 0.49927
vt 0.23866 0.34521
vt 0.21119 0.35638
vt 0.25872 0.33191
vt 0.69801 0.64001
vt 0.49532 0.33298
vt 0.25194 0.66326
vt 0.25737 0.52263
vt 0.27124 0.68043
vt 0.55222 0.29317
vt 0.62270 0.30006
vt 0.66583 0.31083
vt 0.23209 0.65105
vt 0.21563 0.53707
vt 0.23373 0.57459
vt 0.12250 0.55683
vt 0.12336 0.48131
vt 0.84205 0.70258
vt 0.78219 0.54324
vt 0.84205 0.50000
vt 0.76023 0.66128
vt 0.78219 0.67296
vt 0.68141 0.68954
vt 0.12208 0.48118
vt 0.25363 0.58042
vt 0.25798 0.46792
vt 0.12293 0.46236
vt 0.67229 0.48345
vt 0.69801 0.46500
vt 0.50240 0.27431
vt 0.60899 0.28383
vt 0.63786 0.29103
vt 0.12539 0.53779
vt 0.67794 0.63637
vt 0.68244 0.67024
vt 0.88995 0.69891
vt 0.55832 0.42875
vt 0.55405 0.47752
vt 0.82219 0.30286
vt 0.78219 0.32704
vt 0.66673 0.29823
vt 0.48691 0.28328
vt 0.44905 0.69711
vt 0.53022 0.42255
vt 0.71559 0.29334
vt 0.64784 0.28609
vt 0.73902 0.65217
vt 0.72868 0.57434
vt 0.76023 0.45968
vt 0.71833 0.50000
vt 0.63553 0.67270
vt 0.56337 0.35860
vt 0.56632 0.41862
vt 0.12422 0.43413
vt 0.50232 0.53860
vt 0.12383 0.56615
vt 0.63818 0.63320
vt 0.66172 0.53303
vt 0.84205 0.29742
vt 0.68668 0.28836
vt 0.60464 0.67919
vt 0.57760 0.27952
vt 0.13141 0.56582
vt 0.63818 0.36680
vt 0.56513 0.28570
vt 0.08494 0.32514
vt 0.18286 0.31589
vt 0.50652 0.66198
vt 0.13572 0.38567
vt 0.15459 0.37835
vt 0.13553 0.44280
vt 0.69801 0.35999
vt 0.12543 0.67484
vt 0.13534 0.49993
vt 0.26641 0.49571
vt 0.12636 0.38708
vt 0.25703 0.41475
vt 0.24783 0.49938
vt 0.49240 0.28036
vt 0.39161 0.38342
vt 0.37522 0.26705
vt 0.78219 0.41352
vt 0.27124 0.31957
vt 0.12122 0.38658
vt 0.12122 0.44329
vt 0.50736 0.27296
vt 0.13496 0.61420
vt 0.05554 0.33071
vt 0.07088 0.32799
vt 0.13104 0.38638
vt 0.66542 0.43192
vt 0.71833 0.35481
vt 0.70991 0.70849
vt 0.57852 0.63808
vt 0.12252 0.69591
vt 0.12962 0.51850
vt 0.13119 0.48058
vt 0.44561 0.72029
vt 0.55832 0.64250
vt 0.05554 0.66929
vt 0.92587 0.30384
vt 0.03365 0.68791
vt 0.12122 0.50000
vt 0.13012 0.43127
vt 0.13023 0.46188
vt 0.31347 0.27380
vt 0.98575 0.69158
vt 0.03365 0.31209
vt 0.98049 0.28926
# 218 vertex normals
vn -0.027922 -8.84604e-008 -0.99961
vn -0.0279215 -9.24821e-007 -0.99961
vn -0.0279173 2.47697e-006 -0.99961
vn -0.0279218 -1.52664e-007 -0.99961
vn -0.0279224 3.88114e-007 -0.99961
vn -0.027921 4.96505e-007 -0.99961
vn -0.651318 0.758624 0.0165899
vn -0.651324 0.758619 0.0165896
vn -0.781669 0.623239 0.0238031
vn -0.422549 0.90626 0.012012
vn -0.422558 0.906256 0.0120117
vn -0.422553 0.906259 0.0120116
vn -0.578981 0.8152 0.0151727
vn -0.781674 0.623233 0.0238056
vn -0.78167 0.623238 0.0238034
vn 0.595133 0.80346 -0.0164015
vn 0.815677 0.578059 -0.0227872
vn 0.820256 0.571585 -0.021684
vn 0.389768 -0.920769 -0.0163035
vn 0.519323 -0.854115 -0.0281244
vn 0.621746 -0.783024 -0.0174717
vn 0.0279334 1.72764e-005 0.99961
vn 0.0279303 -2.14329e-005 0.99961
vn 0.0279102 -2.02121e-006 0.99961
vn -0.795437 0.605592 0.0232062
vn -0.808822 0.58762 0.0225961
vn -0.808786 0.587669 0.0225957
vn -0.516143 -0.856381 0.0144197
vn -0.359133 -0.93314 0.0165383
vn -0.359334 -0.933155 0.0100385
vn -0.0279211 -3.87181e-006 -0.99961
vn -0.0279207 7.50154e-007 -0.99961
vn -0.0279216 -1.66839e-006 -0.99961
vn -0.42256 0.906255 0.0120115
vn -0.651324 0.758618 0.0165895
vn -0.0279227 1.77487e-006 -0.99961
vn -0.0279228 7.17062e-007 -0.99961
vn 0.0279133 1.49345e-005 0.99961
vn 0.0279124 4.29624e-006 0.99961
vn 0.0279239 6.20079e-006 0.99961
vn -0.460668 0.887511 0.0104101
vn -0.422567 0.906252 0.0120111
vn -0.0279227 -4.55986e-007 -0.99961
vn 0.827241 -0.561653 -0.0147789
vn 0.831829 -0.554587 -0.0222462
vn 0.95785 -0.286212 -0.024635
vn 0.987743 -0.153629 -0.0275855
vn 0.987738 -0.153664 -0.027575
vn 0.998696 -0.0444487 -0.0251053
vn -0.795435 0.605595 0.0232057
vn -0.781684 0.62322 0.0238028
vn -0.795432 0.605598 0.0232048
vn 0.723899 0.689678 -0.0177566
vn 0.54456 0.838557 -0.0166409
vn 0.713684 0.700237 -0.0179711
vn -0.0279214 2.03401e-006 -0.99961
vn -0.0279224 8.85517e-007 -0.99961
vn -0.027943 1.29682e-005 -0.99961
vn 0.0279319 -7.65612e-006 0.99961
vn 0.0279384 -9.33199e-006 0.99961
vn 0.0279505 -1.96295e-005 0.999609
vn 0.0279275 2.06467e-006 0.99961
vn 0.0279284 3.02646e-006 0.99961
vn 0.537929 0.842809 -0.0174732
vn 0.702844 0.711073 -0.0196352
vn -0.460676 0.887507 0.01041
vn -0.460667 0.887512 0.0104101
vn -0.0279346 -2.68106e-005 -0.99961
vn -0.0279247 -5.88694e-006 -0.99961
vn -0.0279273 -6.59016e-006 -0.99961
vn 0.0279096 4.56192e-005 0.99961
vn 0.861898 0.506679 -0.0202007
vn 0.677366 0.735468 -0.0161981
vn 0.782582 0.62235 -0.0156797
vn 0.83243 0.553482 -0.0268031
vn -0.0279216 -9.53253e-007 -0.99961
vn -0.0279198 -1.92154e-006 -0.99961
vn -0.0279211 -1.26241e-006 -0.99961
vn 0.307388 0.951492 0.0132545
vn 0.150024 0.988676 -0.0034192
vn 0.475673 0.878995 -0.0332015
vn -0.795428 0.605603 0.0232049
vn -0.808776 0.587683 0.0225961
vn -0.767968 -0.640128 0.0214549
vn -0.702592 -0.711322 0.0196282
vn -0.757253 -0.652901 0.0169913
vn 0.0279276 -1.67848e-005 0.99961
vn 0.027912 3.15082e-006 0.99961
vn 0.0279145 4.50146e-006 0.99961
vn -0.808815 0.587629 0.0225954
vn 0.68116 0.731892 -0.0188443
vn 0.733847 0.67919 -0.0130099
vn -0.808788 0.587666 0.0225949
vn -0.00149662 -0.999959 0.0089435
vn 0.274373 -0.961549 -0.0119675
vn 0.0796353 -0.996816 -0.00409839
vn -0.0279234 1.52925e-006 -0.99961
vn -0.027924 1.92865e-006 -0.99961
vn -0.0279163 -3.82407e-006 -0.99961
vn -0.781668 0.623241 0.0238029
vn 0.292701 -0.956115 -0.0130564
vn 0.0279333 -8.67725e-006 0.99961
vn 0.0279299 3.30458e-006 0.99961
vn 0.998414 -0.0488992 -0.0278926
vn 0.994975 0.0981604 -0.0197342
vn -0.0279202 -1.3646e-006 -0.99961
vn -0.0279194 -1.82993e-006 -0.99961
vn -0.0279177 -2.99762e-006 -0.99961
vn -0.027922 -5.45201e-007 -0.99961
vn 0.549071 0.835635 -0.0153389
vn 0.976847 0.211678 -0.0310064
vn 0.971656 0.235169 -0.0241035
vn -0.0279238 1.79241e-006 -0.99961
vn -0.027931 7.32329e-006 -0.99961
vn -0.322898 -0.94638 0.010111
vn -0.277029 -0.960607 0.0221133
vn -0.533654 -0.845541 0.0165195
vn -0.156887 -0.987563 0.0102632
vn 0.0279422 -1.2155e-005 0.99961
vn 0.999526 -0.00120108 -0.0307774
vn 0.98775 -0.153585 -0.0275919
vn 0.987749 -0.15359 -0.0275936
vn 0.894171 -0.447419 -0.0165718
vn 0.763005 -0.646163 -0.0172041
vn -0.0279298 -3.44645e-006 -0.99961
vn -0.0279188 2.86325e-006 -0.99961
vn -0.80879 0.587663 0.0225962
vn -0.686806 -0.726588 0.0191879
vn 0.878564 0.477096 -0.0224612
vn -0.781675 0.623231 0.0238037
vn 0.611871 -0.790652 -0.0219796
vn 0.455562 -0.889988 -0.0196073
vn 0.454214 -0.890668 -0.019995
vn -0.0279246 2.35226e-006 -0.99961
vn -0.027927 4.3114e-006 -0.99961
vn 0.027937 -1.0029e-005 0.99961
vn -0.0279277 4.60193e-006 -0.99961
vn -0.422563 0.906254 0.0120117
vn 0.602785 -0.797726 -0.0168306
vn -0.0279181 -2.76642e-006 -0.99961
vn 0.0279132 -1.0837e-005 0.99961
vn 0.0278101 -6.40244e-005 0.999613
vn 0.00247679 0.999993 0.00293288
vn 0.00291501 0.999989 0.00377788
vn 0.00346073 0.999989 0.00317126
vn 0.980463 -0.194789 -0.0273815
vn -0.0279196 4.96545e-006 -0.99961
vn -0.0279127 3.27496e-005 -0.99961
vn -0.0279201 1.23842e-005 -0.99961
vn -0.76043 -0.64923 0.0156897
vn -0.714298 -0.699557 0.0199551
vn 0.0279104 8.26718e-006 0.99961
vn 0.0279266 -7.38401e-007 0.99961
vn 0.0279271 -8.39759e-007 0.99961
vn -0.422542 0.906264 0.0120113
vn 0.816942 0.576406 -0.0190151
vn -0.708736 0.705225 0.0187291
vn 0.0869922 -0.996206 -0.00243025
vn 0.154809 0.98792 -0.00691235
vn 0.492279 0.870374 -0.0104921
vn 0.712677 0.701375 -0.0127878
vn 0.549317 0.835258 -0.0244064
vn -0.0279205 -1.35798e-006 -0.99961
vn 0.573363 0.819129 -0.0167698
vn 0.581185 0.813607 -0.0163375
vn 0.771385 0.636092 -0.018768
vn -0.0279139 -5.5001e-006 -0.99961
vn -0.722501 -0.691165 0.0168382
vn 0.845337 0.533984 -0.0163161
vn 0.711687 0.702302 -0.016548
vn -0.8088 0.587649 0.0225952
vn -0.808813 0.587632 0.0225953
vn -0.422554 0.906258 0.012013
vn 0.0279263 1.08758e-005 0.99961
vn 0.0279423 -1.86106e-005 0.99961
vn -0.0279181 -3.7109e-006 -0.99961
vn -0.0279206 -1.92909e-007 -0.99961
vn 0.0279449 1.04698e-005 0.999609
vn -0.0279177 4.22209e-006 -0.99961
vn -0.0279193 6.38479e-006 -0.99961
vn -0.0279207 2.1106e-005 -0.99961
vn 0.454214 -0.890668 -0.0199947
vn -0.422546 0.906262 0.0120113
vn -0.460665 0.887513 0.0104102
vn 0.0279836 -7.30532e-005 0.999608
vn 0.00416328 0.999987 0.00289544
vn 0.0241754 0.999057 0.0360769
vn -0.574947 -0.818033 0.0160621
vn -0.15705 -0.987581 0.00438743
vn 0.027917 3.78747e-006 0.99961
vn 0.956705 -0.289829 -0.0267131
vn -0.497953 0.86716 0.00878984
vn -0.497948 0.867162 0.00879041
vn -0.0279207 2.15829e-005 -0.99961
vn 0.0278438 3.99071e-005 0.999612
vn 0.0279783 2.00697e-005 0.999609
vn 0.027981 2.07965e-005 0.999608
vn 0.0279445 1.13613e-005 0.999609
vn 0.964395 0.263091 -0.0269551
vn 0.0279318 -1.01727e-006 0.99961
vn 0.888406 0.458389 -0.0247948
vn 0.0278874 0.000162743 0.999611
vn 0.99607 -0.0840836 -0.0278222
vn -0.0279246 3.36196e-006 -0.99961
vn -0.0279224 2.01292e-007 -0.99961
vn -0.808851 0.587579 0.0225966
vn -0.497952 0.86716 0.00879039
vn -0.497961 0.867155 0.00879085
vn 0.0279282 -4.7689e-005 0.99961
vn 0.0276842 9.31395e-005 0.999617
vn -0.027911 4.32777e-005 -0.99961
vn -0.702593 -0.711321 0.0196289
vn 0.881463 0.436507 0.180235
vn 0.0279478 1.3333e-005 0.999609
vn -0.497948 0.867162 0.00878889
vn -0.0279262 6.17536e-006 -0.99961
vn -0.0279276 9.91024e-006 -0.99961
vn 0.00416317 0.999987 0.00289545
# 302 facets
f 3/3/3 110/2/2 47/1/1
f 125/6/6 66/5/5 31/4/4
f 4/9/9 68/8/8 134/7/7
f 43/12/12 117/11/11 100/10/10
f 60/15/15 88/14/14 23/13/13
f 67/18/18 127/17/17 20/16/16
f 69/21/21 89/20/20 49/19/19
f 105/24/24 142/23/23 12/22/22
f 71/27/27 96/26/26 48/25/25
f 36/30/30 55/29/29 15/28/28
f 152/33/33 7/32/32 35/31/31
f 117/11/11 43/12/12 157/34/34
f 138/35/35 60/15/15 23/13/13
f 66/38/5 125/37/6 99/36/36
f 66/38/5 99/36/36 21/39/37
f 102/41/40 72/40/39 20/16/38
f 79/43/42 157/34/34 148/42/41
f 64/44/43 110/2/2 152/33/33
f 54/46/46 105/24/45 78/45/44
f 66/38/5 21/48/37 47/47/1
f 154/51/49 80/50/48 83/49/47
f 139/54/52 155/53/51 122/52/50
f 160/57/55 150/56/54 40/55/53
f 135/60/58 95/59/57 8/58/56
f 137/63/61 6/62/60 103/61/59
f 132/66/63 102/65/40 53/64/62
f 160/57/55 5/67/65 3/3/64
f 79/43/42 84/69/67 107/68/66
f 56/72/70 32/71/69 33/70/68
f 150/56/54 160/57/55 3/3/64
f 142/23/23 24/73/71 12/22/22
f 5/67/65 160/57/55 44/74/72
f 25/77/75 90/76/74 26/75/73
f 130/80/78 118/79/77 143/78/76
f 124/83/81 120/82/80 11/81/79
f 68/8/8 60/15/15 138/35/35
f 139/54/52 141/85/83 158/84/82
f 61/88/86 159/87/85 1/86/84
f 93/91/89 22/90/88 42/89/87
f 71/27/27 70/92/90 96/26/26
f 90/76/74 112/94/92 113/93/91
f 141/85/83 109/95/93 71/27/27
f 77/97/96 119/96/95 24/73/94
f 154/51/49 54/46/46 80/50/48
f 140/100/99 114/99/98 133/98/97
f 68/8/8 91/101/100 60/15/15
f 24/73/94 119/96/95 51/102/101
f 75/103/102 93/91/89 42/89/87
f 102/65/40 132/66/63 128/104/103
f 149/106/105 154/51/49 146/105/104
f 123/109/108 16/108/107 50/107/106
f 73/110/109 143/78/76 47/1/1
f 62/111/110 150/56/54 20/16/16
f 97/112/112 6/62/111 154/51/49
f 126/114/114 114/99/98 94/113/113
f 101/117/117 156/116/116 14/115/115
f 76/118/118 24/73/94 156/116/116
f 105/24/24 6/62/60 153/119/119
f 151/121/122 86/120/121 35/31/120
f 78/45/44 95/59/124 135/60/123
f 154/51/49 151/121/122 146/105/104
f 150/56/54 62/111/110 40/55/53
f 7/32/32 5/67/126 44/74/125
f 63/122/127 141/85/83 122/52/50
f 101/117/117 16/108/128 15/28/28
f 6/62/111 97/112/112 74/123/129
f 60/15/15 59/124/130 88/14/14
f 12/22/133 115/126/132 10/125/131
f 98/128/135 94/113/113 2/127/134
f 154/51/49 149/106/105 97/112/112
f 72/40/39 85/129/136 103/61/59
f 133/98/97 131/130/137 47/1/1
f 129/131/138 107/68/66 23/13/13
f 95/59/124 69/21/21 37/132/139
f 69/21/21 78/45/44 105/24/45
f 118/79/77 123/109/108 9/133/140
f 156/116/116 24/73/94 14/115/115
f 9/133/140 133/98/97 47/1/1
f 99/135/36 125/134/6 32/71/69
f 78/45/44 69/21/21 95/59/124
f 6/62/60 41/136/142 40/55/141
f 124/83/81 11/81/79 26/75/73
f 121/139/145 136/138/144 39/137/143
f 80/50/48 54/46/46 8/58/146
f 13/140/149 36/30/148 15/28/147
f 130/80/78 64/44/43 152/33/33
f 61/88/86 2/127/151 50/107/150
f 87/141/154 127/17/153 25/77/152
f 108/142/155 43/12/12 100/10/10
f 38/143/156 90/76/74 25/77/75
f 97/112/112 149/106/105 35/31/120
f 63/122/127 122/52/50 46/144/157
f 77/97/96 13/140/158 49/19/19
f 136/138/144 120/82/80 32/71/159
f 147/146/162 28/145/161 33/70/160
f 85/129/136 137/63/61 103/61/59
f 118/79/77 9/133/140 58/147/163
f 21/149/166 27/148/165 47/1/164
f 86/120/167 152/33/33 35/31/31
f 140/100/99 123/109/108 94/113/113
f 85/129/136 72/40/39 75/103/102
f 159/87/85 61/88/86 81/150/168
f 115/126/132 12/22/133 51/102/101
f 122/52/50 4/9/9 46/144/157
f 56/72/170 28/145/161 29/151/169
f 55/29/29 76/118/118 156/116/116
f 147/146/162 120/82/80 124/83/81
f 90/76/74 113/93/91 26/75/73
f 151/121/122 83/49/47 8/58/146
f 145/153/172 63/122/127 52/152/171
f 109/95/93 141/85/83 63/122/127
f 117/11/11 79/43/42 129/131/138
f 98/128/135 66/154/5 131/130/137
f 152/33/33 13/140/149 15/28/147
f 100/10/10 129/131/138 30/155/173
f 83/49/47 80/50/48 8/58/146
f 11/81/175 87/141/154 26/75/174
f 125/157/6 18/156/177 52/152/176
f 103/61/59 6/62/60 62/111/178
f 19/158/181 136/138/180 46/144/179
f 114/99/98 140/100/99 94/113/113
f 89/20/20 115/126/132 57/159/182
f 20/16/16 150/56/54 27/148/165
f 43/12/12 108/142/155 121/139/183
f 115/126/132 69/21/21 10/125/131
f 38/143/156 67/18/18 29/151/169
f 148/42/41 157/34/34 39/137/184
f 105/24/24 12/22/22 10/125/185
f 143/78/76 58/147/163 47/1/1
f 101/117/117 81/150/168 16/108/128
f 4/9/9 134/7/7 46/144/157
f 30/155/187 120/82/80 100/10/186
f 93/91/89 72/40/39 102/41/40
f 151/121/122 154/51/49 83/49/47
f 123/109/108 140/100/99 9/133/140
f 55/29/29 101/117/117 15/28/28
f 101/117/117 14/115/115 42/89/188
f 123/109/108 130/80/78 16/108/107
f 153/119/119 137/63/61 75/103/102
f 131/130/137 66/154/5 47/1/1
f 101/117/117 159/87/85 81/150/168
f 119/96/95 115/126/132 51/102/101
f 16/108/107 130/80/78 15/28/147
f 155/53/51 91/101/100 4/9/9
f 76/118/118 55/29/29 34/160/189
f 30/155/190 87/141/154 11/81/175
f 93/91/89 102/41/40 128/161/103
f 112/94/92 38/143/156 28/145/161
f 113/93/91 124/83/81 26/75/73
f 84/69/67 79/43/42 148/42/41
f 7/32/32 110/2/2 3/3/3
f 110/2/2 64/44/43 73/110/109
f 105/24/45 54/46/46 45/162/191
f 152/33/33 110/2/2 7/32/32
f 127/17/153 87/141/154 102/163/40
f 155/53/51 139/54/52 158/84/82
f 158/84/82 71/27/27 48/25/25
f 141/85/83 139/54/52 122/52/50
f 130/80/78 152/33/33 15/28/147
f 136/138/180 125/157/6 52/152/176
f 115/126/132 119/96/95 57/159/182
f 87/141/154 25/77/152 26/75/174
f 72/40/39 93/91/89 75/103/102
f 143/78/76 118/79/77 58/147/163
f 95/59/57 86/120/167 8/58/56
f 28/145/161 38/143/156 29/151/169
f 89/20/20 57/159/182 49/19/19
f 92/164/192 68/8/8 138/35/35
f 112/94/92 147/146/162 113/93/91
f 115/126/132 89/20/20 69/21/21
f 28/145/161 56/72/170 33/70/160
f 145/153/172 109/95/93 63/122/127
f 109/95/93 70/92/90 71/27/27
f 160/57/55 74/123/129 44/74/72
f 84/69/67 111/165/193 107/68/66
f 76/118/118 77/97/96 24/73/94
f 136/138/180 19/158/181 39/137/194
f 127/166/153 102/41/40 20/16/38
f 69/21/21 105/24/45 10/125/131
f 67/18/18 25/77/75 127/17/17
f 86/120/121 151/121/122 8/58/146
f 6/62/60 105/24/24 17/167/195
f 104/168/198 88/14/197 48/25/196
f 58/147/163 9/133/140 47/1/1
f 9/133/140 140/100/99 133/98/97
f 7/32/199 97/112/112 35/31/120
f 59/124/130 155/53/51 158/84/82
f 54/46/46 78/45/44 135/60/123
f 54/46/46 135/60/123 8/58/146
f 64/44/43 130/80/78 143/78/76
f 126/114/114 98/128/135 131/130/137
f 93/91/89 128/161/103 1/86/200
f 74/123/129 41/136/201 6/62/111
f 12/22/22 24/73/71 51/102/202
f 149/106/105 146/105/104 35/31/120
f 55/29/29 36/30/30 34/160/189
f 154/51/49 6/62/111 17/167/203
f 120/82/80 147/146/162 33/70/160
f 13/140/158 77/97/96 34/160/189
f 92/164/192 138/35/35 23/13/13
f 41/136/201 74/123/129 40/55/53
f 81/150/168 61/88/86 50/107/150
f 147/146/162 112/94/92 28/145/161
f 147/146/162 124/83/81 113/93/91
f 95/59/57 152/33/33 86/120/167
f 99/135/36 56/72/70 29/151/204
f 66/5/5 65/169/205 31/4/4
f 155/53/51 4/9/9 122/52/50
f 120/82/80 30/155/187 11/81/79
f 87/141/154 104/168/198 53/170/62
f 70/92/90 116/171/206 96/26/26
f 99/135/36 32/71/69 56/72/70
f 97/112/112 7/32/199 44/74/72
f 82/173/208 111/165/193 106/172/207
f 62/111/178 6/62/60 40/55/141
f 14/115/209 24/73/71 142/23/23
f 136/138/180 52/152/176 46/144/179
f 30/155/173 129/131/138 23/13/13
f 21/174/37 99/135/36 29/151/204
f 17/167/195 105/24/24 45/162/210
f 102/163/40 87/141/154 53/170/62
f 141/85/83 71/27/27 158/84/82
f 32/71/159 120/82/80 33/70/160
f 94/113/113 123/109/108 50/107/106
f 36/30/148 13/140/149 34/160/211
f 72/40/39 103/61/59 62/111/178
f 22/90/212 159/87/85 42/89/188
f 60/15/15 91/101/100 59/124/130
f 98/128/135 126/114/114 94/113/113
f 67/18/18 38/143/156 25/77/75
f 117/11/11 129/131/138 100/10/10
f 77/97/96 76/118/118 34/160/189
f 120/82/80 136/138/144 121/139/145
f 67/18/18 21/174/166 29/151/169
f 74/123/129 160/57/55 40/55/53
f 54/46/46 154/51/49 17/167/203
f 119/96/95 77/97/96 49/19/19
f 2/127/134 94/113/113 50/107/106
f 144/175/213 132/66/213 53/64/213
f 146/105/104 151/121/122 35/31/120
f 52/152/171 63/122/127 46/144/157
f 18/156/177 125/157/6 31/176/4
f 70/92/90 109/95/93 145/153/172
f 57/159/182 119/96/95 49/19/19
f 104/168/198 30/155/190 23/13/214
f 91/101/100 68/8/8 4/9/9
f 67/18/18 27/148/165 21/174/166
f 93/91/89 1/86/200 22/90/88
f 68/8/8 106/172/207 134/7/7
f 14/115/209 142/23/23 42/89/87
f 106/172/207 111/165/193 148/42/41
f 134/7/7 106/172/207 46/144/157
f 111/165/193 82/173/208 92/164/192
f 27/148/165 3/3/64 47/1/164
f 107/68/66 92/164/192 23/13/13
f 91/101/100 155/53/51 59/124/130
f 82/173/208 68/8/8 92/164/192
f 111/165/193 92/164/192 107/68/66
f 106/172/207 19/158/215 46/144/157
f 68/8/8 82/173/208 106/172/207
f 126/114/114 131/130/137 133/98/97
f 106/172/207 148/42/41 39/137/184
f 111/165/193 84/69/67 148/42/41
f 114/99/98 126/114/114 133/98/97
f 123/109/108 118/79/77 130/80/78
f 38/143/156 112/94/92 90/76/74
f 37/132/216 13/140/149 95/59/57
f 54/46/46 17/167/203 45/162/191
f 150/56/54 3/3/64 27/148/165
f 16/108/128 81/150/168 50/107/150
f 64/44/43 143/78/76 73/110/109
f 110/2/2 73/110/109 47/1/1
f 157/34/34 121/139/183 39/137/184
f 116/171/206 70/92/90 145/153/172
f 67/18/18 20/16/16 27/148/165
f 157/34/34 43/12/12 121/139/183
f 1/86/84 159/87/85 22/90/212
f 125/134/6 136/138/180 32/71/69
f 104/168/198 87/141/154 30/155/190
f 88/14/14 59/124/130 48/25/25
f 5/67/126 7/32/32 3/3/3
f 37/132/139 69/21/21 49/19/19
f 142/23/23 153/119/119 42/89/87
f 129/131/138 79/43/42 107/68/66
f 66/5/5 98/177/135 2/127/134
f 79/43/42 117/11/11 157/34/34
f 74/123/129 97/112/112 44/74/72
f 101/117/117 55/29/29 156/116/116
f 59/124/130 158/84/82 48/25/25
f 13/140/149 37/132/216 49/19/217
f 72/40/39 62/111/178 20/16/38
f 19/158/215 106/172/207 39/137/184
f 120/82/80 108/142/218 100/10/186
f 159/87/85 101/117/117 42/89/188
f 65/169/205 66/5/5 2/127/134
f 152/33/33 95/59/57 13/140/149
f 88/14/197 104/168/198 23/13/214
f 108/142/218 120/82/80 121/139/145
f 153/119/119 75/103/102 42/89/87
f 137/63/61 85/129/136 75/103/102
f 6/62/60 137/63/61 153/119/119
f 105/24/24 153/119/119 142/23/23

