<svg xmlns="http://www.w3.org/2000/svg" width="192" height="192" viewBox="0 0 192 192">
  <title>anniversary</title>
  <path fill="#212121" fill-rule="evenodd" d="M95,135h1v1h-1Z"/>
  <path fill="#2A2A2A" fill-rule="evenodd" d="M15,93h1v-8h1v-5h1v-4h1v-4h1v-3h1v-2h1v-2h1v-2h1v-2h1v-2h1v-2h1v-2h1v-1h1v-2h1v-1h1v-2h1v-1h1v-1h1v-1h1v-2h1v-1h1v-1h1v-1h1v-1h1v-1h1v-1h1v-1h1v-1h2v-1h1v-1h1v-1h1v-1h2v-1h1v-1h2v-1h1v-1h2v-1h1v-1h2v-1h2v-1h2v-1h3v-1h3v-1h2v-1h3v-1h4v-1h5v-1h9v-1h10v1h9v1h4v1h4v1h3v1h3v1h3v1h2v1h2v1h2v1h2v1h1v1h-2v-1h-1v1h1v1h2v1h2v1h1v-1h-1v-1h2v1h1v1h2v1h1v1h1v1h-1v2h1v1h1v1h2v1h1v1h-1v1h1v-1h1v1h1v-2h1v1h1v1h1v1h1v1h1v1h1v2h1v1h1v1h1v2h1v1h1v2h1v2h1v1h1v2h1v2h1v2h1v3h1v2h1v3h1v3h1v5h1v5h1v23h-1v5h-1v5h-1v3h-1v3h-1v3h-1v2h-1v2h-1v2h-1v2h-1v2h-1v1h-1v2h-1v1h-1v2h-1v1h-1v2h-1v1h-1v1h-1v1h-1v-1h-1v1h1v1h-1v1h-1v2h-1v1h-1v1h-1v1h-2v1h-1v1h-1v1h-1v1h-1v1h-2v1h-1v1h-1v1h-2v1h-2v1h-1v1h-2v1h-2v1h-2v1h-2v1h-2v1h-3v1h-3v1h-3v1h-3v1h-6v1h-8v1h-11v-1h-9v-1h-5v-1h-3v-1h-4v-1h-2v-1h-3v-1h-2v-1h-2v-1h-2v-1h-2v-1h-2v-1h-1v-1h-2v-1h-1v-1h-2v-1h-1v-1h-1v-1h-2v-1h-1v-1h-1v-1h-1v-1h-1v-1h-1v-1h-1v-1h-1v-1h-1v-1h-1v-1h-1v-2h-1v-1h-1v-1h-1v-2h-1v-1h-1v-2h-1v-2h-1v-1h-1v-2h-1v-2h-1v-2h-1v-3h-1v-3h-1v-3h-1v-4h-1v-5h-1v-8h-1ZM25,90v17h1v6h1v5h1v3h1v3h1v2h1v2h1v2h1v2h1v2h1v2h1v1h1v1h1v2h1v1h1v1h1v2h1v1h1v1h1v1h1v1h1v1h1v1h2v1h1v1h1v1h1v1h2v1h1v1h2v1h1v1h2v1h2v1h2v1h2v1h3v1h3v1h3v1h5v1h12v1h7v-1h8v-1h4v-1h4v-1h3v-1h2v-1h3v-1h2v-1h2v-1h2v-1h1v-1h2v-1h2v-1h1v-1h1v-1h2v-1h1v-1h1v-1h1v-1h1v-1h1v-1h1v-1h1v-1h1v-1h1v-1h1v-1h1v-1h1v-1h1v-2h1v-1h1v-1h1v-2h1v-1h1v-2h1v-2h1v-2h1v-2h1v-2h1v-3h1v-3h1v-3h1v-4h1v-7h1v-15h-1v-6h-1v-5h-1v-3h-1v-3h-1v-2h-1v-3h-1v-2h-1v-2h-1v-1h-1v-2h-1v-2h-1v-1h-1v-1h-1v-2h-1v-1h-1v-1h-1v-1h-1v-1h-1v-2h-1v-1h1v-1h1v-1h-1v1h-1v-2h1v-1h1v-2h-4v1h1v1h-2v1h1v1h-2v-1h-1v-1h-1v-1h-2v-1h-1v-1h-1v-1h1v-1h-1v1h-2v-1h-1v-1h1v-1h-1v1h-2v-1h-2v-1h-2v-1h-2v-1h-2v-1h-3v-1h-3v-1h-4v-1h-5v-1h-22v1h-5v1h-4v1h-3v1h-3v1h-2v1h-2v1h-2v1h-2v1h-2v1h-2v1h-1v1h-2v1h-1v1h-1v1h-2v1h-1v1h-1v1h-1v1h-1v1h-1v1h-1v1h-1v1h-1v1h-1v1h-1v1h-1v1h-1v2h-1v1h-1v1h-1v2h-1v1h-1v2h-1v2h-1v2h-1v2h-1v2h-1v3h-1v3h-1v3h-1v5h-1v6ZM49,119h1v1h-1ZM50,118h1v1h-1ZM51,117h1v1h-1ZM52,116h1v1h-1ZM53,113h1v2h-1ZM57,110h1v4h-1ZM57,132h1v2h-1ZM58,114h1v2h-1ZM58,129h1v1h-1ZM59,83h1v3h-1ZM59,116h1v2h-1ZM59,127h1v1h-1ZM60,89h1v2h-1ZM60,118h1v1h-1ZM60,126h1v1h-1ZM61,93h1v2h-1ZM61,125h1v1h-1ZM62,96h1v2h-1ZM62,119h1v1h-1ZM62,124h2v1h-2ZM63,98h1v2h-1ZM64,101h1v1h-1ZM64,120h2v1h-2ZM65,102h1v2h-1ZM66,104h1v2h-1ZM67,106h1v1h-1ZM68,107h1v2h-1ZM69,109h1v1h-1ZM70,110h1v1h-1ZM71,111h1v1h-1ZM72,112h1v2h-1ZM73,114h1v1h-1ZM73,141h1v1h-1ZM74,115h1v1h-1ZM75,20v1h2v-1ZM75,116h2v1h1v1h-2v-1h-1ZM77,120h2v1h1v1h1v1h2v-1h-1v-1h2v1h2v1h1v1h-1v1h-1v2h-1v2h-1v2h-1v-3h1v-1h-1v1h-2v-1h-2v-1h-1ZM78,118h1v1h-1ZM79,119h1v1h-1ZM80,120h2v1h-2ZM81,131h1v1h-1ZM83,25v1h1v-1ZM83,133h1v1h-1ZM84,123v1h1v-1ZM84,134h3v1h-3ZM87,135h5v1h-5ZM88,24v1h3v-1ZM89,18v1h2v-1ZM90,22v1h2v-1ZM92,138h1v1h-1ZM93,139h1v2h-1ZM94,24v1h1v-1ZM94,141h1v2h-1ZM95,144h1v8h-1ZM96,135h5v-1h3v1h-2v1h-5v2h-1ZM97,138h1v2h-1ZM98,140h1v2h-1ZM99,18v1h1v-1ZM99,142h1v3h-1ZM101,123h2v3h-1v-2h-1ZM103,122h2v-1h2v-1h2v1h-1v1h1v-1h2v-1h2v2h-1v1h1v1h1v1h-2v1h2v1h-1v2h-1v1h-2v-1h-3v-3h-2v-3h-2ZM103,126h1v2h-1ZM104,128h1v2h-1ZM104,133h1v1h-1ZM105,130h1v1h-1ZM105,132h1v1h-1ZM106,122v1h1v-1ZM106,131h1v1h-1ZM107,130h1v1h-1ZM109,119h1v-1h2v1h-1v1h-2ZM112,117h1v1h-1ZM113,116h2v1h-2ZM115,115h1v1h-1ZM115,117h1v-1h1v-1h1v-1h1v-1h1v-1h1v-1h1v1h1v1h1v1h1v-1h1v1h1v2h-1v-1h-2v1h1v1h-1v3h-1v-1h-1v-1h-1v-1h-1v1h-1v1h-1v1h-1v-1h-1v-1h-1ZM116,114h1v1h-1ZM116,121h1v1h-1ZM117,113h1v1h-1ZM117,140h2v1h-2ZM118,112h1v1h-1ZM119,111h1v1h-1ZM119,139h1v1h-1ZM120,110h1v1h-1ZM121,109h1v1h-1ZM121,119h1v1h-1ZM121,140h1v1h-1ZM121,143h1v1h-1ZM122,107h1v-1h1v2h-1v1h-1ZM123,109h1v1h-1ZM124,105h1v1h-1ZM124,108h1v1h-1ZM125,103h1v2h-1ZM126,102h1v1h-1ZM126,105h1v-1h1v-2h1v6h-1v-1h-1v-1h-1ZM126,112h1v1h-1ZM127,100h1v2h-1ZM127,110h1v2h-1ZM127,113h1v1h-1ZM127,122h1v-2h1v-1h2v1h-1v1h-1v3h-1v-1h-1ZM128,99h1v1h-1ZM128,117h1v-1h1v2h-1v1h-1ZM129,97h1v2h-1ZM129,124h1v1h-1ZM130,95h1v2h-1ZM130,125h4v1h-4ZM131,93h1v2h-1ZM131,118h3v1h-3ZM132,90h1v2h-1ZM133,87h1v2h-1ZM134,82h1v3h-1ZM134,117h1v-1h1v2h-2ZM134,124h1v1h-1ZM135,75h1v4h-1ZM136,111h1v5h-1ZM137,28h2v1h-2ZM137,108h1v2h-1ZM138,107h1v1h-1ZM139,106h1v1h-1ZM140,105h1v1h-1ZM140,118h1v1h-1ZM141,104h1v1h-1ZM141,114h1v2h-1ZM142,111h1v1h-1ZM143,103h1v1h-1ZM144,43h1v1h-1ZM145,41h1v1h-1ZM145,44h1v1h-1ZM146,34h1v1h-1ZM146,109h1v1h-1ZM147,35h2v1h1v1h-2v-1h-1ZM147,82h1v1h-1ZM150,37h1v1h-1ZM151,38h1v1h-1ZM154,43v1h1v-1Z"/>
  <path fill="#373737" fill-rule="evenodd" d="M15,89h1v4h-1ZM15,104h1v4h-1ZM16,82h1v3h-1ZM16,112h1v3h-1ZM17,78h1v2h-1ZM17,117h1v2h-1ZM18,74h1v2h-1ZM18,121h1v1h-1ZM19,71h1v1h-1ZM19,124h1v1h-1ZM20,127h1v1h-1ZM21,66h1v1h-1ZM22,64h1v1h-1ZM23,62h1v1h-1ZM24,60h1v1h-1ZM25,58h1v1h-1ZM25,90h1v5h-1ZM25,102h1v5h-1ZM25,137h1v1h-1ZM26,56h1v1h-1ZM26,84h1v2h-1ZM26,111h1v2h-1ZM26,139h1v1h-1ZM27,79h1v2h-1ZM27,116h1v2h-1ZM28,53h1v1h-1ZM28,76h1v1h-1ZM28,119h1v2h-1ZM28,142h1v1h-1ZM29,73h1v1h-1ZM29,122h1v2h-1ZM30,50h1v1h-1ZM30,70h1v2h-1ZM30,125h1v1h-1ZM31,68h1v1h-1ZM31,127h1v1h-1ZM31,146h1v1h-1ZM32,66h1v1h-1ZM32,129h1v1h-1ZM33,46h1v1h-1ZM33,64h1v1h-1ZM33,131h1v1h-1ZM34,45h1v1h-1ZM34,62h1v1h-1ZM34,133h1v1h-1ZM35,60h1v1h-1ZM35,135h1v1h-1ZM36,59h1v1h-1ZM36,136h1v1h-1ZM37,57h1v1h-1ZM38,56h1v1h-1ZM38,103h1v-8h1v-3h1v-1h1v-2h1v-1h5v-2h1v-1h1v-2h-2v-1h-2v-1h3v1h1v-1h-1v-1h-1v-1h-1v-2h1v-4h2v-2h1v-2h1v-1h3v-3h1v-2h2v-1h1v-1h2v2h1v-1h1v3h-1v3h-1v4h-1v11h-1v3h1v1h1v2h-1v2h1v1h1v1h-1v2h2v1h-1v2h1v2h2v1h-1v1h1v2h1v2h1v1h1v2h1v1h1v1h1v1h1v2h1v1h1v1h1v1h1v1h2v1h1v1h-2v6h1v1h2v1h2v3h-1v1h2v2h1v1h3v1h5v1h1v1h-1v1h1v2h1v2h2v1h-1v8h1v1h-1v3h-1v1h-1v1h-1v-1h-1v1h-1v-1h-1v1h-8v-1h-2v-1h-4v-1h-2v-1h-2v-1h-2v-2h-3v-1h-2v-1h-3v-1h-2v-1h-1v-1h-2v-1h-1v-1h-1v-1h-1v-1h-1v-2h-1v-1h-1v-2h-1v-3h-1v-2h-1v-1h-1v-1h-1v-3h-1v-1h-1v-2h1v1h1v-2h2v1h2v1h2v1h1v1h1v2h1v3h1v3h2v-1h1v-2h-1v-2h2v-1h-1v-1h2v-1h1v-1h1v-1h2v-2h3v-1h-1v-2h-2v1h-1v-2h-1v1h-1v-2h-1v-2h-1v-2h-1v-4h-3v3h-2v2h1v1h-2v1h-1v1h-1v1h-1v1h-1v1h-3v2h-1v-1h-2v-3h-1v-4h-1v-3h-1v-4h-1v-3h1v-1h-1ZM38,139h1v1h-1ZM39,140h1v1h-1ZM40,53h1v1h-1ZM41,52h1v1h-1ZM41,143h1v1h-1ZM42,51h1v1h-1ZM42,144h1v1h-1ZM43,84h1v1h-1ZM43,145h1v1h-1ZM43,158h1v1h-1ZM44,35h1v1h-1ZM44,82h2v1h-2ZM44,146h1v1h-1ZM44,159h1v1h-1ZM45,34h1v1h-1ZM45,86h1v1h-1ZM45,147h1v1h-1ZM46,148h1v1h-1ZM47,149h1v1h-1ZM47,161h1v1h-1ZM48,162h1v1h-1ZM49,31h1v1h-1ZM50,163h1v1h-1ZM51,42h1v1h-1ZM51,118h1v1h-1ZM51,152h1v1h-1ZM52,29h1v1h-1ZM52,41h1v1h-1ZM52,153h1v1h-1ZM53,165h1v1h-1ZM55,27h1v1h-1ZM55,39h1v1h-1ZM55,155h1v1h-1ZM55,166h1v1h-1ZM56,38h1v1h-1ZM57,167h1v1h-1ZM58,25h1v1h-1ZM58,157h1v1h-1ZM59,36h1v1h-1ZM59,168h1v1h-1ZM60,24h1v1h-1ZM60,158h1v1h-1ZM61,35h1v1h-1ZM61,169h1v1h-1ZM62,159h1v1h-1ZM63,34h1v1h-1ZM63,60h1v2h-1ZM64,58h1v2h-1ZM64,160h1v1h-1ZM64,170h1v1h-1ZM65,22h1v1h-1ZM65,33h1v1h-1ZM65,56h1v-1h1v2h-1v1h-1ZM66,161h1v1h-1ZM66,171h1v1h-1ZM67,21h2v1h-2ZM67,32h1v1h-1ZM67,53h1v-1h1v2h-1v1h-1ZM67,105h1v1h-1ZM69,31h1v1h-1ZM69,51h1v1h-1ZM69,108h1v1h-1ZM69,144v1h1v2h1v1h2v-1h2v-4h-1v-2h-1v1h-2v1h-1v1ZM69,162h1v1h-1ZM70,20h1v1h-1ZM70,50h1v1h-1ZM70,172h1v1h-1ZM71,30h2v1h-2ZM71,49h1v1h-1ZM72,48h1v1h-1ZM72,149v1h1v-1ZM72,163h1v1h-1ZM73,19h1v1h-1ZM73,47h1v1h-1ZM73,113h1v1h-1ZM73,173h1v1h-1ZM74,29h1v1h-1ZM74,46h2v1h-2ZM74,114h1v1h-1ZM75,20h2v1h-2ZM75,115h1v1h-1ZM75,164h2v1h-2ZM76,18h2v1h-2ZM76,45h1v1h-1ZM77,28h2v1h-2ZM77,44h1v1h-1ZM77,174h2v1h-2ZM78,43h2v1h-2ZM78,185h1v1h-1ZM79,120h1v1h-1ZM80,42h2v1h-2ZM80,119h1v1h-1ZM80,121h2v1h1v1h-2v-1h-1ZM80,165h3v1h-3ZM81,17h2v1h-2ZM81,27h2v1h-2ZM82,41h2v1h-2ZM82,127h1v1h-1ZM83,25h1v1h-1ZM84,40h2v1h-2ZM84,123h1v1h-1ZM84,133h1v1h-1ZM85,125h1v1h-1ZM85,175h3v1h-3ZM86,26h4v1h-4ZM86,122h1v1h-1ZM87,16h5v1h-5ZM87,39h2v1h-2ZM87,134h1v1h-1ZM88,24h3v1h-3ZM88,163h1v1h-1ZM89,18h2v1h-2ZM89,161h1v1h-1ZM90,22h2v1h-2ZM90,160h1v1h-1ZM91,38h6v1h-6ZM91,159h1v1h-1ZM92,166h7v1h-7ZM93,163h1v1h-1ZM94,24h1v1h-1ZM94,140h1v1h-1ZM94,162h1v1h-1ZM95,160h1v1h-1ZM96,158h1v-1h1v-3h1v-4h1v-3h-1v-2h1v-3h-1v-2h-1v-2h-1v-2h5v-1h2v-1h1v-1h1v-1h1v-1h1v-1h-1v1h-1v-1h-1v-2h-1v-2h-1v-3h2v3h2v3h3v1h2v-1h1v-2h1v-1h-2v-1h2v-1h-1v-1h-1v-1h1v-2h-2v-1h1v-1h1v-1h2v1h1v1h1v1h1v-1h1v-1h1v-1h1v1h1v1h-1v1h1v-1h1v1h1v-3h1v-1h-1v-1h2v1h1v-2h1v-1h-1v-1h1v-2h-1v2h-1v1h-1v1h-1v-1h-1v-1h-1v-1h-1v-1h1v-1h1v1h1v-1h1v-1h-1v-2h1v-1h1v1h1v1h1v1h1v-6h-1v-2h1v-1h1v-2h1v-2h1v-2h-1v-1h2v-2h-1v-1h2v-2h-1v-1h1v-1h1v-3h-1v-2h1v-1h1v-4h-1v-3h-1v-6h-1v-3h-1v-3h-1v-2h-1v-2h-1v-1h-1v-2h1v-1h-1v-1h-1v-1h5v1h1v1h1v1h1v1h1v1h1v3h2v1h2v1h1v1h1v2h2v1h1v2h1v3h1v1h1v3h1v1h-1v2h1v2h-1v1h1v2h1v1h1v2h1v2h1v4h1v6h1v2h-1v10h-1v3h-1v3h-1v3h-1v4h-1v1h-1v2h-1v1h-1v3h-1v2h-1v2h-2v2h-1v2h-1v1h-1v2h-1v1h-1v1h-1v1h-1v1h-1v1h-1v1h-1v1h-2v1h-1v1h-4v1h-1v1h-1v1h-4v1h-1v2h-2v1h-3v1h-3v1h-6v1h-2v-1h-1v1h-2v2h-2v-1h-1v1h-1ZM99,18h1v1h-1ZM99,38h7v1h-7ZM99,134h2v1h-2ZM99,175h3v1h-3ZM102,16h5v1h-5ZM103,26h5v1h-5ZM104,165h3v1h-3ZM105,131h1v1h-1ZM106,122h1v1h-1ZM107,39h3v1h-3ZM107,174h2v1h-2ZM108,121h1v1h-1ZM109,120h2v1h-2ZM109,164h2v1h-2ZM110,40h3v1h-3ZM111,17h2v1h-2ZM111,27h2v1h-2ZM113,41h2v1h-2ZM113,163h2v1h-2ZM113,173h1v1h-1ZM114,115h1v1h-1ZM115,18h2v1h-2ZM115,28h2v1h-2ZM115,42h2v1h-2ZM115,114h1v1h-1ZM115,116h1v1h-1ZM116,115h1v1h-1ZM116,121v1h1v-1ZM116,162h2v1h-2ZM116,172h1v1h-1ZM117,43h1v1h-1ZM117,114h1v1h-1ZM117,140v3h2v1h3v-4h-2v-1h-1v1ZM118,44h2v1h-2ZM118,113h1v1h-1ZM119,19h1v1h-1ZM119,29h1v1h-1ZM119,42h1v1h-1ZM119,110h1v1h-1ZM119,112h1v1h-1ZM119,161h1v1h-1ZM119,171h1v1h-1ZM120,43h1v1h-1ZM120,45h1v1h-1ZM120,109h1v1h-1ZM120,111h1v1h-1ZM121,30h2v1h-2ZM121,46h1v1h-1ZM121,108h1v1h-1ZM122,20h1v1h-1ZM122,47h1v1h-1ZM122,160h1v1h-1ZM122,170h1v1h-1ZM123,48h1v1h-1ZM123,108h1v1h-1ZM124,31h1v1h-1ZM124,49h1v1h-1ZM124,159h1v1h-1ZM125,21h1v1h-1ZM125,50h1v1h-1ZM126,32h1v1h-1ZM126,51h1v1h-1ZM126,103h1v-1h1v2h-1v1h-1ZM126,113h1v1h-1ZM126,158h1v1h-1ZM127,52h1v1h-1ZM127,122v1h1v1h1v1h1v1h4v-1h1v-2h2v-1h1v1h1v-3h1v-1h1v-1h-1v-1h1v-1h1v-2h-1v-1h1v-1h1v-2h2v-1h1v1h1v-2h1v-1h1v-2h-1v-1h-1v-1h-2v1h-1v-1h-1v2h-1v-1h-1v1h-1v1h-1v1h-1v1h-1v2h1v1h-2v5h-1v1h-1v1h-3v1h-2v-1h1v-2h-1v1h-1v2h1v1h-1v2ZM127,168h1v1h-1ZM127,180h1v1h-1ZM128,22h1v1h-1ZM128,33h1v1h-1ZM128,98h1v1h-1ZM128,157h1v1h-1ZM129,167h1v1h-1ZM130,23h1v1h-1ZM130,34h1v1h-1ZM130,94h1v1h-1ZM131,119h1v1h-1ZM131,155h1v1h-1ZM131,166h1v1h-1ZM132,24h1v1h-1ZM132,35h1v1h-1ZM133,34h1v1h-1ZM133,124h1v1h-1ZM133,154h1v1h-1ZM133,165h1v1h-1ZM134,25h1v1h-1ZM134,27h1v1h-1ZM134,153h1v1h-1ZM135,28h2v1h-2ZM135,37h1v1h-1ZM136,36h1v1h-1ZM136,38h1v1h-1ZM136,116h1v1h-1ZM136,163h1v1h-1ZM137,27h1v1h-1ZM137,29h2v1h-2ZM137,151h1v1h-1ZM138,150h1v1h-1ZM138,162h1v1h-1ZM139,28h1v1h-1ZM139,30h1v1h-1ZM139,40h1v1h-1ZM139,107h1v1h-1ZM139,149h1v1h-1ZM140,106h1v1h-1ZM141,105h1v1h-1ZM142,30h1v1h-1ZM142,159h1v1h-1ZM143,41h2v1h1v2h-1v-1h-1v-1h-1ZM143,43h1v1h-1ZM143,80v2h2v1h3v-2h1v-1h-1v-1h-1v-1h-2v1h-1v1ZM144,39h4v2h-1v1h-1v-1h-1v-1h-1ZM144,44h1v1h-1ZM145,34h1v1h1v1h1v1h2v1h1v1h1v2h-1v-1h-1v-1h-1v-1h-2v-1h-1v-1h-1ZM145,45h1v1h-1ZM146,33h1v1h-1ZM146,44h1v1h-1ZM146,46h1v1h-1ZM146,156h1v1h-1ZM147,34h1v1h-1ZM147,43h1v1h-1ZM147,155h1v1h-1ZM148,154h1v1h-1ZM149,40h1v1h-1ZM149,139h1v1h-1ZM150,51h1v1h-1ZM150,138h1v1h-1ZM151,52h1v1h-1ZM152,135h1v1h-1ZM153,55h1v1h-1ZM153,134h1v1h-1ZM153,149h1v1h-1ZM154,43h1v1h-1ZM154,56h1v1h-1ZM154,132h1v1h-1ZM154,146h1v1h-1ZM154,148h1v1h-1ZM155,58h1v1h-1ZM155,131h1v1h-1ZM155,147h1v1h-1ZM156,129h1v1h-1ZM156,146h1v1h-1ZM157,61h1v1h-1ZM157,127h1v1h-1ZM158,45h1v1h-1ZM158,63h1v1h-1ZM158,125h1v1h-1ZM159,65h1v2h-1ZM159,123h1v1h-1ZM159,142h1v1h-1ZM160,68h1v1h-1ZM160,121h1v1h-1ZM161,49h1v1h-1ZM161,70h1v2h-1ZM161,118h1v1h-1ZM161,139h1v1h-1ZM162,73h1v2h-1ZM162,115h1v1h-1ZM163,52h1v1h-1ZM163,76h1v3h-1ZM163,111h1v2h-1ZM163,136h1v1h-1ZM164,54h1v1h-1ZM164,81h1v2h-1ZM164,106h1v3h-1ZM165,87h1v15h-1ZM166,57h1v1h-1ZM166,131h1v1h-1ZM167,59h1v1h-1ZM167,129h1v1h-1ZM168,61h1v1h-1ZM168,127h1v1h-1ZM169,64h1v1h-1ZM169,125h1v1h-1ZM170,66h1v1h-1ZM170,122h1v1h-1ZM171,69h1v1h-1ZM171,119h1v1h-1ZM172,72h1v1h-1ZM172,116h1v1h-1ZM173,76h1v2h-1ZM173,111h1v2h-1ZM174,81h1v2h-1ZM174,106h1v2h-1ZM175,88h1v12h-1Z"/>
  <path fill="#444444" fill-rule="evenodd" d="M3,95h1v-9h1v-6h1v-5h1v-3h1v-3h1v-3h1v-2h1v-3h1v-2h1v-2h1v-2h1v-2h1v-2h1v-2h1v-1h1v-2h1v-1h1v-1h1v-1h1v-2h1v-1h1v-2h1v-1h1v-1h1v-1h1v-1h1v-1h1v-1h1v-1h1v-1h1v-1h1v-1h1v-1h1v-1h1v-1h2v-1h1v-1h2v-1h1v-1h2v-1h1v-1h1v-1h2v-1h2v-1h2v-1h2v-1h2v-1h1v-1h3v-1h3v-1h3v-1h3v-1h3v-1h5v-1h6v-1h23v1h6v1h4v1h4v1h3v1h3v1h3v1h3v1h2v1h2v1h1v1h2v1h2v1h1v1h2v1h1v1h2v1h1v1h2v1h1v1h1v1h1v1h2v1h1v1h1v1h1v1h1v2h1v1h1v1h1v1h1v1h1v1h1v1h1v2h1v1h1v1h1v2h1v1h1v2h1v2h1v2h1v2h1v1h1v2h1v3h1v2h1v3h1v3h1v3h1v5h1v6h1v26h-1v6h-1v4h-1v4h-1v3h-1v2h-1v3h-1v2h-1v2h-1v2h-1v1h-1v2h-1v2h-1v2h-1v2h-1v2h-1v1h-1v1h-1v1h-1v1h-1v2h-1v1h-1v1h-1v1h-1v1h-1v1h-1v1h-1v1h-1v1h-1v1h-1v1h-1v1h-1v1h-1v1h-1v1h-2v1h-1v1h-1v1h-2v1h-1v1h-2v1h-2v1h-1v1h-2v1h-2v1h-2v1h-2v1h-2v1h-3v1h-2v1h-3v1h-4v1h-4v1h-5v1h-8v1h-14v-1h-8v-1h-6v-1h-4v-1h-4v-1h-4v-1h-2v-1h-2v-1h-2v-1h-2v-1h-2v-1h-2v-1h-2v-1h-1v-1h-2v-1h-2v-1h-1v-1h-2v-1h-1v-1h-1v-1h-1v-1h-1v-1h-2v-1h-1v-1h-1v-1h-1v-1h-1v-1h-1v-1h-1v-1h-1v-1h-1v-2h-1v-1h-1v-1h-1v-2h-1v-1h-1v-1h-1v-2h-1v-1h-1v-1h-1v-2h-1v-2h-1v-2h-1v-2h-1v-2h-1v-3h-1v-2h-1v-3h-1v-3h-1v-3h-1v-5h-1v-5h-1v-9h-1ZM8,92v13h1v7h1v5h1v4h1v3h1v3h1v2h1v3h1v2h1v3h1v1h1v2h1v2h1v1h1v2h1v1h1v1h1v2h1v1h1v1h1v2h1v1h1v1h1v1h1v1h1v1h1v1h1v1h1v1h1v1h2v1h1v1h1v1h2v1h1v1h1v1h2v1h2v1h1v1h2v1h2v1h2v1h2v1h2v1h3v1h2v1h4v1h4v1h4v1h8v1h17v-1h8v-1h5v-1h3v-1h3v-1h3v-1h3v-1h2v-1h2v-1h2v-1h2v-1h2v-1h2v-1h1v-1h2v-1h1v-1h2v-1h1v-1h1v-1h2v-1h1v-1h1v-1h1v-1h1v-1h1v-1h1v-1h1v-1h1v-1h1v-1h1v-1h1v-1h1v-1h1v-2h1v-1h1v-1h1v-2h1v-1h1v-2h1v-1h1v-2h1v-1h1v-2h1v-2h1v-2h1v-2h1v-3h1v-2h1v-3h1v-3h1v-3h1v-5h1v-6h1v-21h-1v-6h-1v-4h-1v-5h-1v-2h-1v-2h-1v-3h-1v-2h-1v-2h-1v-2h-1v-2h-1v-2h-1v-2h-1v-1h-1v-2h-1v-1h-1v-2h-1v-1h-1v-1h-1v-2h-1v-1h-1v-2h-2v-1h1v-1h-1v-1h-1v-1h-1v-1h-3v-1h-1v-1h-2v-1h-1v-1h-1v-1h-1v-1h-1v-1h-1v-1h-2v-2h-2v-1h-2v-1h-3v-1h-2v-1h-2v-1h-3v-1h-2v-1h-3v-1h-3v-1h-3v-1h-4v-1h-5v-1h-27v1h-5v1h-3v1h-4v1h-3v1h-2v1h-3v1h-2v1h-2v1h-2v1h-2v1h-2v1h-1v1h-2v1h-1v1h-2v1h-1v1h-1v1h-2v1h-1v1h-1v1h-1v1h-1v1h-2v1h-1v1h-1v1h-1v1h-1v1h-1v1h-1v2h-1v1h-1v1h-1v1h-1v1h-1v2h-1v1h-1v2h-1v1h-1v2h-1v1h-1v2h-1v2h-1v2h-1v2h-1v2h-1v3h-1v2h-1v3h-1v3h-1v3h-1v6h-1v9ZM12,81h1v-3h1v-4h1v-3h1v-3h1v-3h1v1h1v3h-1v3h1v2h-1v-1h-1v1h1v4h-1v-2h-1v2h1v4h-1v-2h-1v3h-1v5h-1v-1h-1ZM13,109h1v1h-1ZM14,92h1v13h-1ZM15,83h1v6h-1ZM15,108h1v5h-1ZM16,115h1v2h-1ZM16,122h1v2h-1ZM17,119h1v2h-1ZM17,125h1v2h-1ZM18,63h1v2h-1ZM18,122h1v3h-1ZM18,128h1v1h-1ZM19,61h1v1h1v2h-1v-1h-1ZM19,65h1v1h-1ZM19,69h1v2h-1ZM19,125h1v2h-1ZM20,59h1v1h-1ZM20,67h1v2h-1ZM20,128h1v2h-1ZM21,60h1v2h-1ZM21,65h1v1h-1ZM21,130h1v2h-1ZM22,58h1v2h-1ZM22,62h1v2h-1ZM22,132h1v2h-1ZM23,56h1v-1h1v2h-1v1h-1ZM23,60h1v2h-1ZM23,134h1v2h-1ZM24,58h1v2h-1ZM24,136h1v1h-1ZM25,51h1v-2h1v1h1v2h-1v1h1v2h-1v-1h-1v1h-1ZM25,57h1v1h-1ZM25,95h1v-9h1v-5h1v-4h1v-3h1v-2h1v-3h1v-2h1v-2h1v-2h1v-2h1v-1h1v-2h1v-1h1v-2h1v-1h1v-1h1v-1h1v-2h1v-1h1v-1h1v-1h1v-1h1v-1h1v-1h1v-1h2v-1h1v-1h1v-1h2v-1h1v-1h1v-1h2v-1h2v-1h2v-1h2v-1h2v-1h2v-1h3v-1h2v-1h4v-1h4v-1h7v-1h13v1h8v1h4v1h4v1h2v1h3v1h2v1h2v1h2v1h2v1h2v1h1v1h1v1h2v1h1v1h2v1h1v1h1v1h1v1h1v1h1v1h1v1h1v1h1v1h1v2h1v1h1v1h1v2h1v1h1v2h1v1h1v2h1v2h1v3h1v2h1v3h1v3h1v4h1v4h1v23h-1v5h-1v4h-1v3h-1v3h-1v2h-1v2h-1v2h-1v2h-1v2h-1v1h-1v2h-1v1h-1v2h-1v1h-1v1h-1v2h-1v1h-1v1h-1v1h-1v1h-1v1h-1v1h-1v1h-1v1h-2v1h-1v1h-1v1h-1v1h-2v1h-1v1h-2v1h-1v1h-2v1h-2v1h-2v1h-2v1h-3v1h-3v1h-3v1h-4v1h-5v1h-13v-1h1v-1h2v-1h1v-1h-1v-1h2v-1h1v-1h1v1h2v-2h2v-1h1v1h2v-1h6v-1h3v-1h3v-1h2v-2h1v-1h4v-1h1v-1h1v-1h4v-1h1v-1h2v-1h1v-1h1v-1h1v-1h1v-1h1v-1h1v-1h1v-2h1v-1h1v-2h1v-2h2v-2h1v-2h1v-3h1v-1h1v-2h1v-1h1v-4h1v-3h1v-3h1v-3h1v-10h1v-2h-1v-6h-1v-4h-1v-2h-1v-2h-1v-1h-1v-2h-1v-1h1v-2h-1v-2h1v-1h-1v-3h-1v-1h-1v-3h-1v-2h-1v-1h-2v-2h-1v-1h-1v-1h-2v-1h-2v-3h-1v-1h-1v-1h-1v-1h-1v-1h-1v-1h-5v1h-1v-1h-1v-1h-1v-1h-1v-1h-1v-1h-1v-1h-1v-1h1v-1h-1v-1h-1v1h1v1h-2v-1h-1v-1h-2v-1h-2v-1h-3v-1h-3v1h-2v-1h1v-1h-7v1h-2v-1h-6v1h1v1h-3v-1h-2v1h1v1h-2v-1h-2v1h-2v1h-2v1h-2v1h-1v1h-1v1h-2v1h-1v1h-1v1h-1v1h-1v1h-1v1h-1v1h-1v2h-1v1h-1v2h-1v2h-1v2h-1v1h-1v-2h-2v1h-1v1h-2v2h-1v3h-3v1h-1v2h-1v2h-2v4h-1v2h1v1h1v1h-3v1h-2v1h1v2h1v1h-1v1h3v1h-5v1h-1v2h-1v1h-1v3h-1v8h-1v1h1v1h-1v3h1v4h1v3h1v4h1v3h2v1h1v2h-1v-1h-1v2h1v1h1v3h1v1h1v1h1v2h1v3h1v2h1v1h1v2h1v1h1v1h1v1h1v1h2v1h1v1h2v1h3v1h2v1h3v2h2v1h2v1h2v1h4v1h2v1h8v-1h1v1h1v-1h1v1h1v1h-2v1h-1v1h-1v1h1v1h-2v3h-5v-1h-6v-1h-4v-1h-3v-1h-3v-1h-2v-1h-2v-1h-2v-1h-2v-1h-2v-1h-1v-1h-2v-1h-1v-1h-1v-1h-2v-1h-1v-1h-1v-1h-1v-1h-1v-1h-1v-1h-1v-1h-1v-1h-1v-1h-1v-1h-1v-2h-1v-1h-1v-1h-1v-2h-1v-1h-1v-2h-1v-2h-1v-2h-1v-2h-1v-2h-1v-3h-1v-3h-1v-3h-1v-5h-1v-9h-1ZM25,138h1v1h-1ZM26,55h1v1h-1ZM26,140h1v1h-1ZM27,141h1v1h-1ZM28,49h1v1h-1ZM28,52h1v1h-1ZM28,143h1v1h-1ZM29,45h1v1h-1ZM29,48h1v1h-1ZM29,51h1v1h-1ZM29,144h1v1h-1ZM30,44h1v1h-1ZM30,46h1v-1h1v1h1v2h-1v-1h-1v1h-1ZM30,49h1v1h-1ZM30,145h1v1h-1ZM31,48h1v1h-1ZM32,44h1v1h-1ZM32,148h1v1h-1ZM33,43h1v1h-1ZM33,45h1v1h-1ZM33,149h1v1h-1ZM34,42h1v1h-1ZM34,44h1v1h-1ZM34,150h1v1h-1ZM35,41h1v1h-1ZM35,43h1v1h-1ZM35,151h1v1h-1ZM36,37h1v-1h1v-1h1v-1h1v-1h2v-1h1v-1h1v1h1v1h-1v1h-1v1h-1v1h-1v1h-1v1h-1v1h-1v1h-1v-2h-1ZM36,42h1v1h-1ZM36,152h1v1h-1ZM37,41h1v1h-1ZM37,153h1v1h-1ZM38,40h1v1h-1ZM38,154h1v1h-1ZM39,39h1v1h-1ZM39,155h1v1h-1ZM40,38h1v1h-1ZM40,156h1v1h-1ZM41,37h1v1h-1ZM41,157h1v1h-1ZM42,36h1v1h-1ZM42,158h1v1h-1ZM43,35h1v1h-1ZM43,84v1h1v-1ZM44,30h1v1h-1ZM44,34h1v1h-1ZM45,29h1v-1h1v-1h2v-1h1v-1h2v-1h2v-1h1v-1h2v-1h2v-1h2v-1h2v1h2v1h-2v1h-2v1h-1v2h-1v-1h-1v2h-1v-1h-1v1h1v1h-2v-1h-1v1h-1v1h1v1h-2v-1h-1v1h-1v1h1v1h-2v-1h-1v1h-1v1h-2v-1h1v-1h-1ZM45,121h1v2h-1ZM45,160h1v1h-1ZM46,33h1v1h-1ZM46,161h1v1h-1ZM47,32h1v1h-1ZM47,123h1v1h-1ZM48,31h1v1h-1ZM48,120h1v1h-1ZM49,81h1v1h-1ZM49,83h1v1h-1ZM49,124h1v1h-1ZM49,163h1v1h-1ZM50,119h1v1h-1ZM51,29h1v1h-1ZM51,164h1v1h-1ZM52,117h1v1h-1ZM52,165h1v1h-1ZM53,128h1v1h-1ZM54,27h1v1h-1ZM54,113h1v1h-1ZM54,130h1v2h-1ZM54,166h1v1h-1ZM55,134h2v1h-2ZM56,110h1v2h-1ZM56,167h1v1h-1ZM57,114h1v1h-1ZM57,129h1v1h-1ZM58,116h1v1h-1ZM58,127h1v1h-1ZM58,168h1v1h-1ZM59,126h1v1h-1ZM60,72h1v2h-1ZM60,84h1v3h-1ZM60,125h1v1h-1ZM60,169h1v1h-1ZM61,23h2v1h-2ZM61,68h1v1h-1ZM61,90h1v2h-1ZM61,124h1v1h-1ZM62,65h1v1h-1ZM62,94h1v1h-1ZM62,120h1v1h-1ZM62,170h2v1h-2ZM63,22h2v1h-2ZM63,62h1v1h-1ZM63,97h1v1h-1ZM63,123h1v1h-1ZM64,60h1v1h-1ZM64,99h1v1h-1ZM65,21h2v1h-2ZM65,58h1v1h-1ZM65,101h1v1h-1ZM65,121h1v1h-1ZM65,171h1v1h-1ZM66,103h1v1h-1ZM66,122h1v1h-1ZM67,55h1v1h-1ZM68,20h2v1h-2ZM68,106h1v1h-1ZM68,172h2v1h-2ZM69,52h1v1h-1ZM69,144h1v1h-1ZM70,16h2v1h1v-1h-1v-1h3v-1h4v-1h5v-1h11v1h4v-1h10v1h6v1h4v1h3v1h3v1h3v1h-1v1h1v1h-2v1h-3v-1h2v-1h-2v1h-3v-1h2v-1h-2v1h-3v-1h2v-1h-3v1h-3v-1h2v-1h-3v1h-5v-1h4v-1h-5v1h-19v-1h-3v1h3v1h-6v-1h-3v1h3v1h-4v-1h-3v1h2v1h-3v-1h-2v-1h-1ZM70,51h1v1h-1ZM70,109h1v1h-1ZM70,146h1v1h-1ZM71,19h2v1h-2ZM71,50h1v1h-1ZM71,110h1v1h-1ZM71,147h2v1h-2ZM71,173h2v1h-2ZM72,49h1v1h-1ZM72,149h1v1h-1ZM73,48h1v1h-1ZM74,47h1v1h-1ZM74,146h1v1h-1ZM75,174h2v1h-2ZM77,45h1v1h-1ZM78,44h1v1h-1ZM78,117h1v1h-1ZM79,118h1v1h-1ZM80,43h1v1h-1ZM80,175h5v1h-5ZM82,42h1v1h-1ZM82,120h1v1h-1ZM82,131h1v1h-1ZM83,129h1v1h-1ZM84,41h1v1h-1ZM84,121h1v1h-1ZM84,127h1v1h-1ZM85,133h1v1h-1ZM88,134h4v1h-4ZM90,161h1v1h-1ZM90,176h6v1h-6ZM91,160h1v1h-1ZM92,14v1h11v-1ZM92,135h1v2h-1ZM93,138h1v1h-1ZM93,157h1v1h-1ZM93,162h1v1h-1ZM95,134h4v1h-4ZM95,136h1v1h-1ZM95,142h1v1h-1ZM95,153h1v2h-1ZM95,159h1v1h-1ZM96,138h1v1h-1ZM96,145h1v6h-1ZM97,140h1v1h-1ZM97,156h1v1h-1ZM98,142h1v2h-1ZM98,153h1v1h-1ZM99,147h1v3h-1ZM101,122h2v1h-2ZM101,124h1v1h-1ZM102,126h1v1h-1ZM102,175h5v1h-5ZM103,128h1v1h-1ZM103,133h1v1h-1ZM104,121h1v1h-1ZM104,130h1v1h-1ZM106,120h1v1h-1ZM108,119h1v1h-1ZM109,40h1v1h-1ZM109,174h3v1h-3ZM111,117h1v1h-1ZM112,41h1v1h-1ZM112,116h1v1h-1ZM114,42h1v1h-1ZM114,173h2v1h-2ZM116,43h1v1h-1ZM116,113h1v1h-1ZM117,112h1v1h-1ZM117,141h1v2h-1ZM117,172h2v1h-2ZM118,111h1v1h-1ZM119,45h1v1h-1ZM120,46h1v1h-1ZM120,140h1v1h-1ZM120,143h1v1h-1ZM120,171h2v1h-2ZM121,141h1v2h-1ZM123,105h1v1h-1ZM123,170h1v1h-1ZM124,104h1v1h-1ZM125,169h2v1h-2ZM126,21h2v1h-2ZM126,52h1v1h-1ZM126,101h1v1h-1ZM127,51h1v1h-1ZM127,53h1v1h-1ZM127,99h1v1h-1ZM128,18h2v1h-2ZM128,20h2v-1h1v1h1v1h1v1h2v2h-1v-1h-2v-1h-2v-1h-2ZM128,52h1v1h-1ZM128,168h1v1h-1ZM129,22h1v1h-1ZM129,56h1v1h-1ZM129,96h1v1h-1ZM129,123h1v1h-1ZM130,58h1v1h-1ZM130,124h1v1h-1ZM130,167h1v1h-1ZM131,23h1v1h-1ZM131,60h1v1h-1ZM131,91h1v1h-1ZM132,63h1v1h-1ZM132,88h1v1h-1ZM132,119h2v1h-2ZM132,166h1v1h-1ZM133,20h1v1h-1ZM133,24h1v1h-1ZM133,66h1v2h-1ZM133,84h1v2h-1ZM134,72h1v8h-1ZM134,118h1v1h-1ZM134,165h1v1h-1ZM135,25h1v1h-1ZM135,164h1v1h-1ZM136,24h1v1h-1ZM136,26h2v1h-2ZM136,122h1v1h-1ZM137,111h1v2h-1ZM137,163h1v1h-1ZM138,27h1v1h-1ZM138,108h1v1h-1ZM138,122h1v1h-1ZM139,119h1v1h-1ZM140,28h1v1h-1ZM140,107h1v1h-1ZM140,115h1v2h-1ZM140,161h1v1h-1ZM141,27h2v1h-2ZM141,29h1v1h-1ZM141,108h1v1h-1ZM141,112h1v1h-1ZM141,160h1v1h-1ZM142,109h3v1h-2v1h-1ZM143,28h1v1h-1ZM143,30h1v1h-1ZM143,80h1v2h-1ZM143,159h1v1h-1ZM144,29h2v1h1v1h2v2h-1v1h-1v-1h-2v-1h1v-1h-1v-1h-1ZM144,31h1v1h-1ZM144,79h1v1h-1ZM144,158h1v1h-1ZM145,103h2v1h-2ZM145,157h1v1h-1ZM146,28h1v1h-1ZM146,78h1v1h-1ZM146,108h1v1h-1ZM147,79h1v1h-1ZM148,34h1v1h-1ZM148,80h1v1h-1ZM148,105h1v1h-1ZM149,33h2v1h1v1h1v1h1v1h1v1h-2v-1h-1v-1h-1v-1h-1v-1h-1ZM149,35h1v1h-1ZM150,31h1v1h-1ZM150,36h1v1h-1ZM150,153h1v1h-1ZM151,32h1v1h-1ZM151,37h1v1h-1ZM151,152h1v1h-1ZM152,33h1v1h-1ZM152,38h1v1h-1ZM152,151h1v1h-1ZM153,34h1v1h-1ZM153,39h1v1h-1ZM153,150h1v1h-1ZM154,40h1v1h-1ZM155,41h1v1h-1ZM156,42h1v1h-1ZM157,43h1v1h-1ZM157,145h1v1h-1ZM158,42h1v1h-1ZM158,44h1v1h-1ZM158,144h1v1h-1ZM159,43h1v1h-1ZM159,46h1v1h-1ZM159,143h1v1h-1ZM160,44h2v1h1v1h1v2h1v3h-1v-1h-1v1h-1v-2h1v-1h-1v-1h-1v-1h-1ZM160,47h1v1h-1ZM160,141h1v1h-1ZM161,48h1v1h-1ZM161,140h1v1h-1ZM162,138h1v2h-1ZM163,51h1v1h-1ZM163,137h1v1h-1ZM164,53h1v1h-1ZM164,135h1v1h-1ZM165,51h1v1h-1ZM165,54h1v2h-1ZM165,133h1v2h-1ZM166,56h1v1h-1ZM166,132h1v1h-1ZM167,58h1v1h-1ZM167,130h1v1h-1ZM168,56h1v1h2v1h-1v1h2v3h1v1h1v2h1v3h1v2h-3v2h-1v-3h1v-2h-1v-2h-1v1h-1v-2h1v-2h-1v-2h-1v-2h-1ZM168,60h1v1h-1ZM168,128h1v1h-1ZM169,62h1v2h-1ZM169,126h1v1h-1ZM170,123h1v2h-1ZM171,67h1v2h-1ZM171,120h1v2h-1ZM172,117h1v2h-1ZM173,72h1v4h-1ZM173,113h1v3h-1ZM174,77h1v4h-1ZM174,108h1v3h-1ZM175,82h1v6h-1ZM175,100h1v7h-1Z"/>
  <path fill="#838383" fill-rule="evenodd" d="M8,92h1v-9h1v-6h1v-3h1v-3h1v-3h1v-2h1v-3h1v-2h1v-2h1v-2h1v-2h1v-2h1v-1h1v-2h1v-1h1v-2h1v-1h1v-2h1v-1h1v-1h1v-1h1v-1h1v-2h1v-1h1v-1h1v-1h1v-1h1v-1h1v-1h2v-1h1v-1h1v-1h1v-1h1v-1h2v-1h1v-1h1v-1h2v-1h1v-1h2v-1h1v-1h2v-1h2v-1h2v-1h2v-1h2v-1h3v-1h2v-1h3v-1h4v-1h3v-1h5v-1h27v1h5v1h4v1h3v1h3v1h3v1h2v1h3v1h2v1h2v1h3v1h2v1h2v2h2v1h1v1h1v1h1v1h1v1h1v1h2v1h1v1h3v1h1v1h1v1h1v1h-1v1h2v2h1v1h1v2h1v1h1v1h1v2h1v1h1v2h1v1h1v2h1v2h1v2h1v2h1v2h1v2h1v3h1v2h1v2h1v5h1v4h1v6h1v21h-1v6h-1v5h-1v3h-1v3h-1v3h-1v2h-1v3h-1v2h-1v2h-1v2h-1v2h-1v1h-1v2h-1v1h-1v2h-1v1h-1v2h-1v1h-1v1h-1v2h-1v1h-1v1h-1v1h-1v1h-1v1h-1v1h-1v1h-1v1h-1v1h-1v1h-1v1h-1v1h-1v1h-2v1h-1v1h-1v1h-2v1h-1v1h-2v1h-1v1h-2v1h-2v1h-2v1h-2v1h-2v1h-2v1h-3v1h-3v1h-3v1h-3v1h-5v1h-8v1h-17v-1h-8v-1h-4v-1h-4v-1h-4v-1h-2v-1h-3v-1h-2v-1h-2v-1h-2v-1h-2v-1h-2v-1h-1v-1h-2v-1h-2v-1h-1v-1h-1v-1h-2v-1h-1v-1h-1v-1h-2v-1h-1v-1h-1v-1h-1v-1h-1v-1h-1v-1h-1v-1h-1v-1h-1v-1h-1v-2h-1v-1h-1v-1h-1v-2h-1v-1h-1v-1h-1v-2h-1v-1h-1v-2h-1v-2h-1v-1h-1v-3h-1v-2h-1v-3h-1v-2h-1v-3h-1v-3h-1v-4h-1v-5h-1v-7h-1ZM12,81v6h1v1h1v-5h1v9h-1v13h1v8h1v4h1v4h1v4h-1v2h1v-2h1v2h1v3h1v2h1v2h1v2h1v1h1v2h1v2h1v1h1v2h1v1h1v1h1v1h1v2h1v1h1v1h1v1h1v1h1v1h1v1h1v1h1v1h1v1h1v1h2v1h1v1h1v1h2v1h1v1h2v1h1v1h2v1h2v1h2v1h2v1h2v1h3v1h3v1h3v1h4v1h5v1h10v1h6v-1h11v-1h5v-1h4v-1h3v-1h3v-1h2v-1h3v-1h2v-1h2v-1h2v-1h2v-1h1v-1h2v-1h1v-1h2v-1h1v-1h2v-1h1v-1h1v-1h1v-1h1v-1h1v-1h2v-1h1v-1h1v-1h1v-2h1v-1h1v-1h1v-1h1v-1h1v-1h1v-2h1v-1h1v-1h1v-2h1v-2h1v-1h1v-2h1v-2h1v-2h1v-2h1v-2h1v-3h1v-3h1v-3h1v-5h1v-4h1v-25h-1v-5h-1v-5h-1v-2h3v-2h-1v-3h-1v-2h-1v-1h-1v-3h-2v-1h1v-1h-2v-1h-1v2h-1v-2h-1v-2h-1v-1h-1v-2h1v1h1v-1h-1v-3h-1v-2h-1v-1h-1v-1h-2v-1h-1v-1h-1v1h-1v-1h-1v-1h-1v-1h-1v-1h-1v-1h2v-1h-1v-1h-1v-1h1v-1h-1v-1h-1v-1h-1v-1h-1v1h1v1h-2v-2h-2v-1h-1v-1h1v-1h-1v1h-2v-1h-1v-1h-2v1h-2v-1h-1v-1h-2v-1h1v-1h-1v1h-2v-1h1v-2h-2v-1h1v-1h-1v1h-1v-1h-1v-1h-1v-1h-2v-1h-3v-1h-3v-1h-3v-1h-4v-1h-6v-1h-10v1h-4v-1h-11v1h-5v1h-4v1h-3v1h-2v1h1v1h2v1h-2v1h-3v1h-3v-1h-2v-1h-2v1h-2v1h-2v1h-2v1h-1v1h-2v1h-2v1h-1v1h-2v1h-1v1h-1v1h-1v1h-1v1h-1v1h-2v1h-1v1h-1v1h-1v1h-1v1h1v2h1v1h-1v1h-1v-1h-1v1h-1v1h-1v1h-1v1h-1v-1h-1v1h-1v1h1v2h-1v1h-1v1h-1v-1h-1v2h-1v4h-1v1h-1v2h-1v2h-1v-1h-1v1h1v2h-1v-1h-1v2h-1v2h-1v3h-1v3h-1v3h-1v4h-1v3ZM13,109v1h1v-1ZM15,80h1v3h-1ZM16,76h1v2h-1ZM16,122v2h1v-2ZM17,73h1v1h-1ZM18,65h1v1h-1ZM18,69h1v3h-1ZM18,128v1h1v-1ZM19,63h1v1h1v-2h1v3h-1v2h-1v2h-1v-3h1v-1h-1ZM22,60h1v2h-1ZM23,58h1v2h-1ZM24,57h1v1h-1ZM25,55h1v2h-1ZM26,54h1v1h-1ZM27,52h1v1h-1ZM28,50h1v-1h1v2h-1v1h-1ZM30,45h1v1h-1ZM30,48h1v1h-1ZM31,47h1v1h-1ZM32,45h1v1h-1ZM33,44h1v1h-1ZM34,43h1v1h-1ZM35,42h1v1h-1ZM38,39h1v1h-1ZM39,38h1v1h-1ZM40,37h1v1h-1ZM41,36h1v1h-1ZM42,35h1v1h-1ZM43,34h1v1h-1ZM44,31h1v1h-1ZM44,33h1v-1h2v1h-1v1h-2ZM45,30h1v1h-1ZM45,83h1v1h-1ZM46,82h2v1h-2ZM46,86h1v1h-1ZM46,121h2v1h-2ZM47,31h1v1h-1ZM48,30h1v1h-1ZM48,83h1v1h-1ZM48,85h1v1h-1ZM48,123h1v1h-1ZM49,84h1v1h-1ZM49,120h1v1h-1ZM50,29h1v1h-1ZM50,124h1v1h-1ZM51,28h1v1h-1ZM51,125h1v1h-1ZM52,126h1v1h-1ZM53,27h1v1h-1ZM53,116h1v1h-1ZM54,26h1v1h-1ZM54,114h1v1h-1ZM55,110h1v1h-1ZM56,25h1v1h-1ZM56,112h1v1h-1ZM56,132h1v2h-1ZM57,115h1v1h-1ZM58,24h1v1h-1ZM59,118h1v1h-1ZM60,23h1v1h-1ZM60,74h1v4h-1ZM60,82h1v2h-1ZM60,119h1v1h-1ZM61,22h2v1h-2ZM61,69h1v1h-1ZM61,89h1v1h-1ZM62,66h1v1h-1ZM62,93h1v1h-1ZM63,21h2v1h-2ZM63,63h1v1h-1ZM63,96h1v1h-1ZM64,98h1v1h-1ZM64,121h1v1h-1ZM65,59h1v1h-1ZM66,57h1v1h-1ZM66,102h1v1h-1ZM67,104h1v1h-1ZM68,54h1v1h-1ZM69,107h1v1h-1ZM70,143h1v1h-1ZM71,142h1v1h-1ZM72,16h1v1h-1ZM72,111h1v1h-1ZM73,112h1v1h-1ZM73,142h1v1h-1ZM74,17h3v1h-3ZM74,143h1v1h-1ZM76,46h1v1h-1ZM76,115h1v1h-1ZM77,116h1v1h-1ZM78,16h3v1h-3ZM79,44h1v1h-1ZM81,115h4v1h-4ZM81,119h1v1h-1ZM83,130h1v1h-1ZM83,132h1v1h-1ZM84,15h3v1h-3ZM84,128h1v1h-1ZM85,41h1v1h-1ZM85,126h1v1h-1ZM86,124h1v1h-1ZM86,131h2v1h-2ZM86,133h1v1h-1ZM87,122h1v1h-1ZM88,40h1v1h-1ZM88,164h1v2h-1ZM89,125h10v3h1v1h1v2h1v1h-4v1h-4v-1h-2v-1h-1v-2h-1v-1h-1ZM89,163h1v1h-1ZM90,165h1v1h-1ZM91,164h1v1h-1ZM92,14h11v1h-11ZM92,39h2v1h-2ZM92,159h1v1h-1ZM92,163h1v1h-1ZM93,137h1v1h-1ZM94,134h1v2h-1ZM94,139h1v1h-1ZM94,156h1v1h-1ZM94,160h1v1h-1ZM95,137h1v1h-1ZM95,141h1v1h-1ZM96,139h1v1h-1ZM96,144h1v1h-1ZM96,151h1v2h-1ZM96,157h1v1h-1ZM97,141h1v1h-1ZM97,155h1v1h-1ZM98,144h1v1h-1ZM98,151h1v2h-1ZM100,122h1v2h-1ZM101,116h1v-2h1v1h1v2h-2v1h-1ZM101,125h1v1h-1ZM101,133h2v1h-2ZM102,127h1v1h-1ZM103,39h2v1h-2ZM103,110h1v1h-1ZM103,121h1v1h-1ZM104,132h1v1h-1ZM106,15h5v1h-5ZM107,119h1v1h-1ZM108,40h1v1h-1ZM109,118h1v1h-1ZM111,41h1v1h-1ZM112,16h3v1h-3ZM113,42h1v1h-1ZM113,115h1v1h-1ZM115,43h1v1h-1ZM116,17h3v1h-3ZM117,44h1v1h-1ZM118,141h1v1h-1ZM119,140h1v1h-1ZM120,18h2v1h-2ZM121,47h1v1h-1ZM122,48h1v1h-1ZM122,106h1v1h-1ZM123,19h2v1h-2ZM123,49h1v1h-1ZM124,50h1v1h-1ZM125,51h1v1h-1ZM125,102h1v1h-1ZM126,20h2v1h-2ZM127,18h1v1h-1ZM128,19h2v1h-2ZM128,21h2v1h-2ZM128,55h1v1h-1ZM128,97h1v1h-1ZM129,57h1v1h-1ZM129,95h1v1h-1ZM129,121h1v1h-1ZM130,22h2v1h-2ZM130,59h1v1h-1ZM130,93h1v1h-1ZM130,120h1v1h-1ZM131,61h1v1h-1ZM131,90h1v1h-1ZM132,23h2v1h-2ZM132,64h1v1h-1ZM132,87h1v1h-1ZM132,124h1v1h-1ZM133,68h1v1h-1ZM133,82h1v2h-1ZM134,119h1v1h-1ZM134,123h1v1h-1ZM137,113h1v2h-1ZM137,121h2v1h-2ZM138,109h1v1h-1ZM139,118h1v1h-1ZM140,114h1v1h-1ZM141,28h2v1h1v1h-2v-1h-1ZM141,111h1v1h-1ZM143,104h1v1h-1ZM144,30h1v1h-1ZM145,31h1v1h-1ZM145,78h1v1h-1ZM146,82h1v1h-1ZM147,81h1v1h-1ZM147,104h1v1h-1ZM147,107h1v1h-1ZM148,33h1v1h-1ZM148,106h1v1h-1ZM149,34h1v1h-1ZM150,35h1v1h-1ZM151,33h1v1h-1ZM151,36h1v1h-1ZM152,34h1v1h-1ZM152,37h1v1h-1ZM158,43h1v1h-1ZM159,44h1v2h-1ZM160,46h1v1h-1ZM161,47h1v1h-1ZM162,48h1v1h-1ZM163,50h1v1h-1ZM168,58h1v2h-1ZM169,60h1v2h-1ZM170,62h1v2h-1ZM171,65h1v2h-1ZM172,67h1v2h-1Z"/>
  <path fill="#B6B6B6" fill-rule="evenodd" d="M47,86h1v1h-1ZM51,119h1v1h-1ZM52,118h1v1h-1ZM53,127h1v1h-1ZM54,129h1v1h-1ZM55,111h1v1h-1ZM55,133h1v1h-1ZM56,113h1v1h-1ZM56,131h1v1h-1ZM57,128h1v1h-1ZM58,117h1v1h-1ZM59,125h1v1h-1ZM60,78h1v4h-1ZM61,70h1v1h-1ZM61,88h1v1h-1ZM62,75h1v-5h1v-3h1v-2h1v-2h1v-2h1v-1h1v-2h1v-1h1v-2h1v-1h1v-1h2v-1h1v-1h1v-1h1v-1h1v-2h1v-1h2v-1h4v-1h1v-1h2v-1h4v1h5v1h1v-1h6v1h7v1h2v1h3v1h1v1h1v1h1v1h2v2h1v1h1v1h1v1h1v1h1v2h1v2h1v1h1v3h1v4h1v16h-1v4h-1v3h-1v2h-1v3h-1v2h-1v2h-1v1h-1v2h-1v1h-1v1h-1v1h-1v2h-1v1h-1v1h-1v1h-1v1h-1v1h-1v1h-1v1h-1v1h-2v1h-2v1h-1v1h-2v1h-2v1h-3v1h-3v1h-6v-1h-3v-1h-2v-1h-2v-1h-2v-1h-1v-1h-2v-1h-1v-1h-1v-1h-1v-1h-1v-1h-1v-1h-1v-1h-1v-1h-2v-1h1v-1h-1v-1h-2v-1h1v-1h-1v-2h-1v-2h-1v-2h-1v-3h-1v-4h-1v-5h-1ZM62,92h1v1h-1ZM62,123h1v1h-1ZM63,95h1v1h-1ZM63,121h1v1h-1ZM64,61h1v1h-1ZM65,100h1v1h-1ZM65,122h1v1h-1ZM67,56h1v1h-1ZM69,53h1v1h-1ZM70,145h1v1h-1ZM73,146h1v1h-1ZM74,113h1v1h-1ZM74,145h1v1h-1ZM75,47h1v1h-1ZM75,114h1v1h-1ZM80,118h1v1h-1ZM81,43h1v1h-1ZM81,115v1h4v-1ZM83,42h1v1h-1ZM83,120h1v1h-1ZM84,131h1v-2h1v-2h1v-2h1v-1h12v3h1v1h1v2h1v2h-1v-1h-1v-2h-1v-1h-1v-3h-10v3h1v1h1v2h1v1h2v1h1v1h-2v-1h-5v1h-1v-2h1v-1h-2v1h-2ZM85,121h1v1h-1ZM87,123h1v1h-1ZM89,40h1v1h-1ZM89,165h1v1h-1ZM90,162h1v1h-1ZM91,161h1v1h-1ZM92,134h1v1h-1ZM92,160h1v1h-1ZM93,158h1v-1h1v-2h1v-2h2v2h-1v2h-1v2h-1v1h-1v-1h-1ZM93,161h1v1h-1ZM94,39h9v1h-9ZM94,136h1v1h-1ZM95,138h1v1h-1ZM95,140h1v1h-1ZM96,142h2v1h-1v1h-1ZM97,147h1v-2h1v6h-1v-1h-1ZM98,132h4v1h-1v1h-3ZM101,116v2h1v-1h2v-2h-1v-1h-1v2ZM103,110v1h1v-1ZM103,129h1v1h-1ZM104,131h1v1h-1ZM105,120h1v1h-1ZM107,40h1v1h-1ZM110,41h1v1h-1ZM110,117h1v1h-1ZM112,56v8h1v2h1v2h1v1h1v1h1v1h1v1h2v1h3v-1h1v-1h1v-1h1v-7h-1v-2h-1v-2h-1v-2h-2v-1h-1v-1h-2v-1h-4v1h-1v1ZM114,114h1v1h-1ZM118,45h1v1h-1ZM118,142h1v1h-1ZM119,143h1v1h-1ZM120,141h1v1h-1ZM121,76v2h1v1h1v1h2v-1h1v-3h-1v-1h-3v1ZM121,107h1v1h-1ZM124,103h1v1h-1ZM126,100h1v1h-1ZM127,54h1v1h-1ZM129,122h1v1h-1ZM130,92h1v1h-1ZM131,62h1v1h-1ZM131,124h1v1h-1ZM132,86h1v1h-1ZM133,69h1v2h-1ZM133,80h1v2h-1ZM135,118h1v1h-1ZM135,120h2v2h-1v-1h-1ZM135,122h1v1h-1ZM136,117h1v1h-1ZM137,115h1v1h-1ZM138,120h1v1h-1ZM139,117h1v1h-1ZM140,108h1v1h-1ZM140,113h1v1h-1ZM141,106h1v2h-1ZM141,109h1v1h-1ZM142,105h1v1h-1ZM142,108h1v1h-1ZM144,81h1v1h-1ZM144,104h1v1h-1ZM145,82h1v1h-1ZM145,108h1v1h-1ZM147,80h1v1h-1Z"/>
  <path fill="#D7D7D8" fill-rule="evenodd" d="M46,85h1v1h-1ZM46,122h1v1h-1ZM48,121h1v1h-1ZM49,122h1v-2h1v1h1v-1h1v-1h1v-1h-1v-1h2v-1h1v1h1v1h1v2h2v1h1v1h1v1h-1v2h-2v2h-1v1h-1v3h-1v-2h-1v-2h-1v-1h-1v-1h-1v-1h-1v-1h-1v1h-1ZM54,115h1v1h-1ZM55,112h1v1h-1ZM55,132h1v1h-1ZM56,114h1v1h-1ZM57,116h1v1h-1ZM61,71h2v4h-1v-2h-1ZM61,86h2v4h-1v-2h-1ZM61,120h1v1h-1ZM62,67h2v3h-1v-2h-1ZM62,91h2v4h-1v-3h-1ZM63,64h1v1h-1ZM64,65h1v2h-1ZM64,95h1v3h-1ZM65,62h1v-2h1v-1h1v-2h1v-2h1v-1h1v-1h1v-1h1v-1h1v-1h1v-1h1v-1h1v-1h2v2h-1v1h-1v1h-1v1h-1v1h-2v1h-1v1h-1v2h-1v1h-1v2h-1v1h-1v2h-1v2h-1ZM65,98h1v2h-1ZM66,58h1v1h-1ZM66,100h1v2h-1ZM67,102h1v2h-1ZM68,104h1v1h-1ZM69,106h1v1h-1ZM70,52h1v1h-1ZM70,107h1v1h-1ZM70,144h3v2h-1v-1h-2ZM71,51h1v1h-1ZM71,109h1v1h-1ZM71,146h1v1h-1ZM72,50h1v1h-1ZM72,110h1v1h-1ZM72,142h1v1h-1ZM73,49h1v1h-1ZM73,111h1v1h-1ZM74,48h1v1h-1ZM74,112h1v1h-1ZM74,144h1v1h-1ZM75,113h1v1h-1ZM76,114h1v1h-1ZM77,115h1v1h-1ZM78,45h1v1h-1ZM78,116h1v1h-1ZM79,46h1v1h-1ZM79,117h2v1h-2ZM80,45h2v1h-2ZM81,118h1v1h-1ZM82,44h3v-1h2v1h-1v1h-4ZM82,119h2v1h-2ZM83,131h1v1h-1ZM84,120h2v1h-2ZM84,129h1v2h-1ZM84,132h3v1h-3ZM85,127h1v2h-1ZM86,41h1v1h-1ZM86,121h2v1h-2ZM86,125h1v2h-1ZM87,42h2v1h-2ZM88,123h1v-1h2v1h6v-1h3v1h-1v1h-11ZM88,133h5v1h-5ZM89,164h1v-1h1v-1h1v-1h1v2h-1v1h-1v1h-2ZM90,40h1v1h15v1h4v1h2v1h-7v-1h-6v1h-1v-1h-5v-1h-3ZM93,134h1v1h-1ZM93,136h1v1h-1ZM93,159h1v2h-1ZM94,137h1v2h-1ZM95,133h3v1h-3ZM95,139h1v1h-1ZM96,140h1v2h-1ZM97,143h1v4h-1ZM97,150h1v3h-1ZM100,121h3v1h-3ZM100,124h1v2h1v2h-1v-1h-1ZM102,128h1v2h-1ZM102,132h1v-2h1v3h-2ZM103,120h2v1h-2ZM105,119h2v1h-2ZM106,40h1v1h-1ZM107,118h1v-1h2v1h-1v1h-2ZM110,116h2v1h-2ZM112,42h1v1h-1ZM112,44h2v1h-2ZM112,56h1v8h-1ZM112,115h1v1h-1ZM113,55h1v-1h4v1h2v1h-1v1h1v1h1v2h1v1h1v2h1v-2h1v2h1v7h-1v1h-1v1h-1v1h-3v-1h-2v-1h1v-1h-1v-1h-1v-1h-1v-1h2v-2h2v-1h-1v-1h-2v1h-1v2h-1v-2h-1v-7h1v-1h1v-1h-1v1h-2ZM113,64h1v2h-1ZM113,114h1v1h-1ZM114,43h1v1h-1ZM114,45h2v1h-2ZM114,66h1v2h-1ZM114,113h1v-1h1v-1h1v-1h1v-1h2v1h-1v1h-1v1h-1v1h-1v1h-2ZM115,68h1v1h-1ZM116,44h1v1h-1ZM116,69h1v1h-1ZM117,46h1v1h-1ZM117,70h1v1h-1ZM118,47h1v1h-1ZM119,46h1v1h-1ZM119,48h1v1h-1ZM119,66v2h1v-2ZM119,141h1v1h1v1h-2ZM120,49h2v1h-2ZM120,56h1v1h-1ZM120,62v1h1v1h1v-1h-1v-1ZM120,106h1v1h-1ZM120,108h1v1h-1ZM121,57h2v2h-1v-1h-1ZM121,76h1v-1h3v1h1v3h-1v1h-2v-1h-1v-1h-1ZM121,105h1v1h-1ZM122,50h1v2h-1ZM122,104h2v1h-2ZM123,52h1v1h-1ZM123,59h1v2h-1ZM124,53h1v1h-1ZM124,101h1v-1h1v2h-2ZM125,54h1v1h-1ZM126,53h1v1h-1ZM126,55h1v1h-1ZM126,98h2v1h-2ZM127,57h1v1h-1ZM127,96h2v1h-2ZM128,56h1v1h-1ZM128,58h1v2h-1ZM128,93h1v1h1v1h-2ZM129,60h2v1h-2ZM129,91h1v1h-1ZM130,63h1v1h-1ZM130,88h1v1h1v1h-2ZM130,123h1v1h-1ZM131,66h1v-1h1v2h-1v1h-1ZM131,84h1v1h1v1h-1v1h-1ZM131,120h2v1h1v-1h1v2h-1v2h-1v-1h-2ZM132,71h2v3h-1v2h1v4h-1v2h-1ZM135,119h1v1h-1ZM137,116h1v1h-1ZM137,118h1v1h-1ZM138,110h1v1h-1ZM138,119h1v1h-1ZM139,108h1v1h-1ZM139,116h1v1h-1ZM140,112h1v1h-1ZM141,110h1v1h-1ZM143,106h2v-1h1v1h1v1h-3v1h1v1h-2ZM145,80h1v1h-1ZM146,79h1v1h-1ZM146,81h1v1h-1Z"/>
  <path fill="#FCFCFC" fill-rule="evenodd" d="M45,84h1v-1h2v1h1v1h-1v1h-1v-1h-2ZM47,122h2v1h-2ZM49,121h1v1h-1ZM50,123h1v1h-1ZM51,120h1v1h-1ZM51,124h1v1h-1ZM52,119h1v1h-1ZM52,125h1v1h-1ZM53,118h1v1h-1ZM53,126h1v1h-1ZM54,116h1v1h-1ZM54,127h1v2h-1ZM55,113h1v2h1v2h-1v-1h-1ZM55,129h1v3h-1ZM57,117h1v1h-1ZM58,118h1v1h1v1h-2ZM60,120h1v1h-1ZM61,73h1v13h-1ZM61,121h2v1h2v1h-3v-1h-1ZM61,123h1v1h-1ZM62,68h1v3h-1ZM62,90h1v1h-1ZM63,65h1v2h-1ZM64,62h1v3h-1ZM65,60h1v2h-1ZM66,59h1v1h-1ZM67,57h1v2h-1ZM68,55h1v2h-1ZM69,54h1v1h-1ZM70,53h1v1h-1ZM71,52h1v1h-1ZM71,143h3v3h-1v-2h-2ZM71,145h1v1h-1ZM72,51h1v1h-1ZM72,146h1v1h-1ZM73,50h1v1h-1ZM74,49h1v1h-1ZM75,48h1v1h-1ZM76,47h1v1h-1ZM77,46h2v1h-2ZM79,45h1v1h-1ZM80,44h2v1h-2ZM82,43h2v-1h3v1h-2v1h-3ZM87,41h3v1h-3ZM87,124h1v1h-1ZM88,122h1v1h-1ZM91,40h15v1h-15ZM93,135h1v1h-1ZM99,123h1v1h-1ZM106,41h4v1h-4ZM110,42h2v1h-2ZM112,43h2v1h-2ZM113,56h2v1h-1v7h-1ZM114,44h2v1h-2ZM114,64h1v2h-1ZM115,55h1v1h-1ZM115,66h1v-2h1v-1h2v1h1v1h-2v2h-2v1h-1ZM116,45h2v1h-2ZM116,68h1v1h-1ZM117,69h1v1h-1ZM118,46h1v1h-1ZM118,70h1v1h-1ZM119,47h2v1h1v1h-2v-1h-1ZM119,56h1v1h-1ZM119,66h1v2h-1ZM119,108h1v1h-1ZM120,57h1v1h-1ZM120,62h1v1h-1ZM120,107h1v1h-1ZM121,58h1v1h1v2h-1v-1h-1ZM121,63h1v1h-1ZM121,106h1v1h-1ZM122,49h1v1h-1ZM122,105h1v1h-1ZM123,50h1v1h1v1h1v2h-1v-1h-1v-1h-1ZM123,61h1v2h-1ZM123,103h1v1h-1ZM124,102h1v1h-1ZM126,54h1v1h-1ZM126,99h1v1h-1ZM127,55h1v2h-1ZM127,97h1v1h-1ZM128,57h1v1h-1ZM128,95h1v1h-1ZM129,58h1v2h-1ZM129,92h1v2h-1ZM130,61h1v2h-1ZM130,90h1v2h-1ZM130,121h1v2h-1ZM131,63h1v3h-1ZM131,87h1v2h-1ZM131,123h2v1h-2ZM132,67h1v4h-1ZM132,82h1v3h-1ZM133,74h1v2h-1ZM133,120h1v1h-1ZM134,122h1v1h-1ZM135,121h1v1h-1ZM136,118h1v1h1v2h-1v-1h-1ZM137,117h1v-6h1v-2h2v3h-1v4h-1v3h-1v-1h-1ZM142,106h1v2h-1ZM143,105h2v1h-2ZM144,80h1v1h-1ZM144,107h3v1h-3ZM145,79h1v1h-1ZM145,81h1v1h-1ZM145,104h2v1h1v2h-1v-1h-1v-1h-1ZM146,80h1v1h-1Z"/>
</svg>
